<?xml version="1.0" encoding="utf-8"?>
<!-- Generator: Adobe Illustrator 24.0.1, SVG Export Plug-In . SVG Version: 6.00 Build 0)  -->
<svg version="1.1" id="Слой_1" xmlns="http://www.w3.org/2000/svg" xmlns:xlink="http://www.w3.org/1999/xlink" x="0px" y="0px"
	 viewBox="0 0 62 72" enable-background="new 0 0 62 72" xml:space="preserve">
<g>
	<path fill="#4B4B4B" d="M13.21,16.46v-5.14c0-2.53,2.06-4.59,4.59-4.59h36.73c2.54,0,4.59,2.06,4.59,4.59v20.2
		c-0.01,2.35-1.79,4.31-4.12,4.54l-3.45,8.96c-0.91,2.37-3.57,3.54-5.93,2.63l-21.56-8.3c1.49,3.89,1.07,8.26-1.14,11.79l-0.53,0.84
		v8.92c0,0.51-0.41,0.92-0.92,0.92H4.94c-0.51,0-0.92-0.41-0.92-0.92V30.6c0.01-3.18,1.27-6.22,3.52-8.46L13.21,16.46z M13.21,21.95
		l-2.79,7.23C9.88,30.6,10.58,32.2,12,32.74l1.59,0.61c-0.26-0.58-0.39-1.21-0.39-1.84V21.95z M57.29,31.52v-20.2
		c0-1.52-1.23-2.76-2.76-2.76H17.8c-1.52,0-2.75,1.23-2.75,2.76v5.84h0.01l-0.01,0.02v14.34c0.01,0.16,0.03,0.32,0.06,0.48
		l8.41-8.41c1.89-1.85,4.9-1.86,6.81-0.03c1.91,1.83,2.02,4.84,0.26,6.81L27,34.28h27.53C56.05,34.28,57.29,33.04,57.29,31.52
		 M45.52,36.11l6.53,2.51l0.97-2.51H45.52z M46.28,45.95c1.42,0.55,3.01-0.16,3.56-1.58l1.55-4.03l-10.96-4.22v-0.01H25.32
		l-1.19,1.3L46.28,45.95z M5.86,59.99h14.69v-7.35H5.86V59.99z M5.86,50.81h15.1l0.4-0.64c2.24-3.58,2.33-8.1,0.23-11.76
		c-0.2-0.35-0.15-0.78,0.12-1.08l7.52-8.21c1.12-1.23,1.06-3.13-0.14-4.28c-1.2-1.15-3.1-1.13-4.28,0.04L10.18,39.52l-1.3-1.3
		l3.4-3.4l-0.94-0.37c-2.36-0.91-3.54-3.57-2.63-5.93l3.11-8.07l-2.98,2.98c-1.9,1.9-2.97,4.48-2.98,7.16V50.81z"/>
	<path fill="#4B4B4B" d="M48.65,19.58c-1.32,0-2.39-1.07-2.39-2.39v-4.41c0-1.32,1.07-2.39,2.39-2.39h4.41
		c1.32,0,2.39,1.07,2.39,2.39v4.41c0,1.32-1.07,2.39-2.39,2.39H48.65z M53.61,17.2v-1.28h-1.84v-1.84h1.84v-1.29
		c0-0.3-0.25-0.55-0.55-0.55h-4.41c-0.3,0-0.55,0.25-0.55,0.55v1.29h1.84v1.84H48.1v1.28c0,0.3,0.25,0.55,0.55,0.55h4.41
		C53.37,17.75,53.61,17.5,53.61,17.2"/>
	<rect x="50.86" y="22.34" fill-rule="evenodd" clip-rule="evenodd" fill="#4B4B4B" width="3.67" height="1.84"/>
	<rect x="50.86" y="27.85" fill-rule="evenodd" clip-rule="evenodd" fill="#4B4B4B" width="3.67" height="1.84"/>
	<rect x="34.33" y="27.85" fill-rule="evenodd" clip-rule="evenodd" fill="#4B4B4B" width="3.67" height="1.84"/>
	<rect x="45.35" y="22.34" fill-rule="evenodd" clip-rule="evenodd" fill="#4B4B4B" width="3.67" height="1.84"/>
	<rect x="39.84" y="22.34" fill-rule="evenodd" clip-rule="evenodd" fill="#4B4B4B" width="3.67" height="1.84"/>
	<rect x="34.33" y="22.34" fill-rule="evenodd" clip-rule="evenodd" fill="#4B4B4B" width="3.67" height="1.84"/>
	<rect x="18.72" y="11.32" fill-rule="evenodd" clip-rule="evenodd" fill="#4B4B4B" width="1.84" height="2.75"/>
	<rect x="22.39" y="11.32" fill-rule="evenodd" clip-rule="evenodd" fill="#4B4B4B" width="1.84" height="2.75"/>
	<rect x="26.06" y="11.32" fill-rule="evenodd" clip-rule="evenodd" fill="#4B4B4B" width="1.84" height="2.75"/>
	<rect x="29.74" y="11.32" fill-rule="evenodd" clip-rule="evenodd" fill="#4B4B4B" width="1.84" height="2.75"/>
	<rect x="16.88" y="54.48" fill-rule="evenodd" clip-rule="evenodd" fill="#4B4B4B" width="1.84" height="1.84"/>
</g>
</svg>
