<?xml version="1.0" encoding="utf-8"?>
<!-- Generator: Adobe Illustrator 24.0.1, SVG Export Plug-In . SVG Version: 6.00 Build 0)  -->
<svg version="1.1" id="Слой_1" xmlns="http://www.w3.org/2000/svg" xmlns:xlink="http://www.w3.org/1999/xlink" x="0px" y="0px"
	 viewBox="0 0 70 68" enable-background="new 0 0 70 68" xml:space="preserve">
<path fill="#4C4C4C" d="M63.58,41.75c-1.12-1.64-3.37-2.08-5.02-0.97l-7.51,5.02l-0.02-15.63l2.61,2.44c0.55,0.52,1.28,0.8,2.04,0.8
	h0c0.82,0,1.61-0.34,2.17-0.94c0.54-0.58,0.83-1.34,0.8-2.13c-0.03-0.8-0.36-1.53-0.94-2.08l-4.94-4.63
	c-0.34-0.32-0.87-0.3-1.19,0.04c-0.32,0.34-0.3,0.87,0.04,1.19l4.94,4.63c0.25,0.24,0.4,0.56,0.41,0.91
	c0.01,0.35-0.11,0.68-0.35,0.93c-0.25,0.26-0.59,0.41-0.95,0.41h0c-0.33,0-0.65-0.13-0.89-0.35v0L35.16,13
	c-0.32-0.3-0.83-0.3-1.15,0L14.44,31.44c-0.25,0.24-0.58,0.36-0.93,0.35c-0.35-0.01-0.67-0.16-0.91-0.41
	c-0.24-0.25-0.36-0.58-0.35-0.93c0.01-0.35,0.16-0.67,0.41-0.91L33.69,9.73c0.5-0.47,1.28-0.47,1.78,0l12.31,11.53
	c0.34,0.32,0.87,0.3,1.19-0.04c0.32-0.34,0.3-0.87-0.04-1.19L36.62,8.5c-1.14-1.07-2.94-1.07-4.08,0.01l-6.74,6.35l0-1.13
	c0-0.36-0.14-0.69-0.39-0.94c-0.25-0.25-0.59-0.39-0.94-0.39h0l-4.82,0.01c-0.36,0-0.69,0.14-0.94,0.39
	c-0.25,0.25-0.39,0.59-0.39,0.95l0.01,8.17l-6.83,6.43c-0.58,0.54-0.91,1.28-0.93,2.08c-0.02,0.8,0.26,1.55,0.81,2.13
	c0.54,0.58,1.28,0.91,2.08,0.93c0.03,0,0.06,0,0.09,0c0.76,0,1.48-0.29,2.04-0.81l2.6-2.45l0.01,7.39
	c-0.84-0.12-1.69-0.19-2.55-0.19h-1.44v-0.5c0-1.69-1.38-3.06-3.06-3.06H8.46c-1.69,0-3.07,1.37-3.07,3.06v13.15
	c0,0.46,0.38,0.84,0.84,0.84c0.46,0,0.84-0.38,0.84-0.84V36.91c0-0.76,0.62-1.39,1.39-1.39h2.69c0.76,0,1.39,0.62,1.39,1.39v1.34
	v17.21v1.33c0,0.76-0.62,1.39-1.39,1.39H8.46c-0.76,0-1.39-0.62-1.39-1.39v-1.47c0-0.46-0.38-0.84-0.84-0.84
	c-0.46,0-0.84,0.38-0.84,0.84v1.47c0,1.69,1.38,3.07,3.07,3.07h2.69c1.69,0,3.06-1.38,3.06-3.07v-0.11l12.29,4.65
	c0.02,0.01,0.05,0.02,0.07,0.02c0.53,0.15,1.07,0.23,1.6,0.23c0.29,0,0.57-0.02,0.85-0.07l18.07-2.6c0,0,0.01,0,0.01,0
	c1.54-0.24,2.98-0.89,4.19-1.88c0.01-0.01,0.02-0.02,0.03-0.03l11.67-10.5C64.35,45.29,64.6,43.25,63.58,41.75 M24.12,14.06l0,2.36
	L20,20.31l-0.01-6.24L24.12,14.06z M19.88,37.92l-0.01-9.29l14.72-13.87l14.76,13.83l0.03,18.33L47,48.51l-2.52-0.14l-0.07-0.67
	c-0.23-2.35-1.97-4.25-4.27-4.7l-0.02-10.9c0-0.84-0.68-1.52-1.52-1.52h0l-8,0.01c-0.41,0-0.79,0.16-1.07,0.45
	c-0.29,0.29-0.44,0.67-0.44,1.08l0.01,9.51c-1.59-0.36-3.1-0.96-4.51-1.79c-0.18-0.1-0.35-0.2-0.53-0.3
	c-0.07-0.04-0.14-0.07-0.21-0.11c-0.11-0.06-0.22-0.11-0.33-0.17c-0.09-0.04-0.18-0.09-0.27-0.13c-0.09-0.04-0.19-0.09-0.28-0.13
	c-0.1-0.04-0.19-0.09-0.29-0.13c-0.09-0.04-0.18-0.08-0.27-0.11c-0.1-0.04-0.2-0.08-0.3-0.12c-0.09-0.04-0.18-0.07-0.27-0.1
	c-0.1-0.04-0.2-0.07-0.3-0.11c-0.09-0.03-0.19-0.07-0.28-0.1c-0.1-0.03-0.19-0.06-0.29-0.09c-0.1-0.03-0.21-0.06-0.31-0.09
	c-0.09-0.03-0.18-0.05-0.27-0.08c-0.12-0.03-0.23-0.06-0.35-0.09C19.99,37.95,19.93,37.94,19.88,37.92 M30.77,32.27l7.68-0.01
	l0.01,10.53l-7.02-0.81l-0.66-0.08L30.77,32.27z M61.87,45.25L50.21,55.73c-0.97,0.79-2.14,1.31-3.37,1.51l-18.06,2.6
	c0,0-0.01,0-0.01,0l-0.01,0c-0.55,0.09-1.12,0.05-1.69-0.11l-12.85-4.87V39.09h1.44c1.22,0,2.44,0.14,3.62,0.42
	c0.04,0.01,0.09,0.02,0.13,0.03c0.14,0.04,0.29,0.07,0.43,0.11c0.01,0,0.03,0.01,0.04,0.01c0.14,0.04,0.29,0.08,0.43,0.12
	c0.03,0.01,0.05,0.02,0.08,0.02c0.15,0.05,0.3,0.1,0.46,0.15c0.02,0.01,0.03,0.01,0.05,0.02c0.32,0.11,0.63,0.23,0.93,0.36
	c0.02,0.01,0.03,0.01,0.05,0.02c0.15,0.07,0.31,0.13,0.46,0.2c0,0,0.01,0,0.01,0.01c0.15,0.07,0.29,0.14,0.44,0.21
	c0.02,0.01,0.03,0.02,0.05,0.03c0.14,0.07,0.28,0.14,0.42,0.22c0.03,0.02,0.05,0.03,0.08,0.04c0.14,0.08,0.28,0.15,0.42,0.24
	c2,1.17,4.17,1.92,6.46,2.25c0.01,0,0.01,0,0.02,0l9.41,1.08c0.05,0.01,0.1,0.02,0.15,0.03c1.38,0.26,2.48,1.28,2.84,2.62
	c0.05,0.2,0.09,0.4,0.11,0.61l0.04,0.38L25.16,46.7c-0.46-0.04-0.87,0.3-0.91,0.76c-0.04,0.46,0.3,0.87,0.76,0.91l18.63,1.63
	c0.01,0,0.01,0,0.01,0c0,0,0.01,0,0.01,0l3.51,0.2c0.02,0,0.03,0,0.05,0c0.02,0,0.03,0,0.05,0c0.02,0,0.04,0,0.06,0
	c0.03,0,0.05-0.01,0.07-0.01c0.02,0,0.03-0.01,0.05-0.01c0.03-0.01,0.05-0.02,0.08-0.03c0.01-0.01,0.03-0.01,0.04-0.02
	c0.04-0.02,0.08-0.04,0.11-0.06l2.98-2l8.81-5.9c0.89-0.6,2.1-0.36,2.7,0.52C62.74,43.5,62.6,44.6,61.87,45.25"/>
</svg>
