<?xml version="1.0" encoding="utf-8"?>
<!-- Generator: Adobe Illustrator 24.0.1, SVG Export Plug-In . SVG Version: 6.00 Build 0)  -->
<svg version="1.1" id="Слой_1" xmlns="http://www.w3.org/2000/svg" xmlns:xlink="http://www.w3.org/1999/xlink" x="0px" y="0px"
	 viewBox="0 0 62 72" enable-background="new 0 0 62 72" xml:space="preserve">
<g>
	<path fill="#4B4B4B" d="M59.82,48.93L47.68,36.79c-0.41-0.41-0.96-0.64-1.55-0.64c-0.4,0-0.79,0.11-1.13,0.32l-6.82-6.82
		c-0.35-0.35-0.92-0.35-1.27,0c-0.35,0.35-0.35,0.92,0,1.27l6.77,6.78l-2.5,2.5L28.76,27.75l2.5-2.5l1.66,1.66
		c0.35,0.35,0.92,0.35,1.27,0c0.35-0.35,0.35-0.92,0-1.27l-1.66-1.66l4.33-4.33l0.34,0.34c0.43,0.43,0.99,0.66,1.59,0.66
		c0.6,0,1.17-0.23,1.59-0.66l1.6-1.6c0.42-0.42,0.66-0.99,0.66-1.59c0-0.6-0.23-1.17-0.66-1.59L29.74,2.99
		c-0.43-0.43-0.99-0.66-1.59-0.66c-0.6,0-1.17,0.23-1.59,0.66l-1.6,1.6c-0.43,0.43-0.66,0.99-0.66,1.59c0,0.6,0.23,1.17,0.66,1.59
		l0.34,0.34L11.62,21.79l-0.34-0.34c-0.88-0.88-2.31-0.88-3.18,0l-1.6,1.6c-0.42,0.43-0.66,0.99-0.66,1.59
		c0,0.6,0.23,1.17,0.66,1.59l12.24,12.24c0.43,0.43,0.99,0.66,1.59,0.66c0.6,0,1.17-0.23,1.59-0.66l1.6-1.6
		c0.88-0.88,0.88-2.31,0-3.18l-0.34-0.34l4.33-4.33l12.47,12.47c-0.2,0.34-0.32,0.72-0.32,1.13c0,0.58,0.23,1.13,0.64,1.55
		l12.14,12.14c0.41,0.41,0.96,0.64,1.55,0.64c0.58,0,1.13-0.23,1.55-0.64l4.28-4.28c0.41-0.41,0.64-0.96,0.64-1.55
		C60.46,49.9,60.23,49.35,59.82,48.93 M26.22,5.85l1.6-1.6c0.09-0.09,0.2-0.13,0.33-0.13c0.12,0,0.24,0.05,0.33,0.14l12.24,12.24
		c0.09,0.09,0.14,0.2,0.14,0.33c0,0.12-0.05,0.24-0.14,0.33l-1.6,1.6c-0.17,0.17-0.48,0.17-0.65,0L26.22,6.5
		c-0.09-0.09-0.14-0.2-0.14-0.33C26.09,6.05,26.14,5.94,26.22,5.85 M22.25,35.61l-1.59,1.6c-0.17,0.17-0.48,0.17-0.65,0L7.76,24.96
		c-0.09-0.09-0.14-0.2-0.14-0.33s0.05-0.24,0.14-0.33l1.59-1.6c0.09-0.09,0.21-0.13,0.33-0.13c0.12,0,0.24,0.04,0.33,0.13
		l12.24,12.24C22.43,35.13,22.43,35.43,22.25,35.61 M26.86,27.12C26.86,27.12,26.86,27.12,26.86,27.12l-4.96,4.96l-9.02-9.02
		L26.57,9.38l9.02,9.02l-4.96,4.96c0,0,0,0,0,0L26.86,27.12z M58.55,50.76l-4.28,4.28c-0.1,0.1-0.22,0.12-0.28,0.12
		c-0.06,0-0.18-0.01-0.28-0.12L41.56,42.9c-0.1-0.1-0.12-0.22-0.12-0.28s0.02-0.18,0.12-0.28l0.26-0.26l4.02-4.02
		c0.1-0.1,0.22-0.12,0.28-0.12s0.18,0.01,0.28,0.12L58.55,50.2c0.1,0.1,0.12,0.22,0.12,0.28C58.67,50.54,58.65,50.66,58.55,50.76"/>
	<path fill="#4B4B4B" d="M35.41,51.27h-1.37v-4.72c0-1.05-0.86-1.91-1.91-1.91H16.7c-0.49,0-0.89,0.4-0.89,0.9
		c0,0.49,0.4,0.9,0.89,0.9h15.43c0.07,0,0.12,0.05,0.12,0.12v4.72H8.46v-4.72c0-0.06,0.05-0.12,0.12-0.12h2.49
		c0.49,0,0.89-0.4,0.89-0.9c0-0.49-0.4-0.9-0.89-0.9H8.58c-1.05,0-1.91,0.86-1.91,1.91v4.72H5.3c-2.14,0-3.89,1.74-3.89,3.89v2.55
		c0,0.83,0.67,1.5,1.5,1.5h34.9c0.83,0,1.5-0.67,1.5-1.5v-2.55C39.3,53.01,37.56,51.27,35.41,51.27 M37.51,57.41H3.2v-2.26
		c0-1.16,0.94-2.1,2.1-2.1h30.11c1.16,0,2.1,0.94,2.1,2.1V57.41z"/>
</g>
</svg>
