<?xml version="1.0" encoding="utf-8"?>
<!-- Generator: Adobe Illustrator 24.0.1, SVG Export Plug-In . SVG Version: 6.00 Build 0)  -->
<svg version="1.1" id="Слой_1" xmlns="http://www.w3.org/2000/svg" xmlns:xlink="http://www.w3.org/1999/xlink" x="0px" y="0px"
	 viewBox="0 0 70 68" enable-background="new 0 0 70 68" xml:space="preserve">
<path fill="#4C4C4C" d="M61.82,3.57c-0.21-0.22-0.51-0.34-0.81-0.34l-28.2,0c-0.63,0-1.15,0.52-1.15,1.15v3.3L20.8,10.61
	c-0.61,0.17-0.97,0.8-0.81,1.41l5.63,21.15l-4.87,4.9c-0.62-0.91-1.66-1.51-2.84-1.51h-11c-1.9,0-3.44,1.55-3.44,3.46v18.81
	c0,1.91,1.54,3.46,3.44,3.46h11c1.61,0,2.97-1.12,3.34-2.63l1.36,1.2c1.05,0.92,2.4,1.43,3.8,1.43h34.6c0.63,0,1.15-0.52,1.15-1.15
	V4.38C62.15,4.08,62.03,3.78,61.82,3.57 M31.66,29.37l-2.09-7.79c0.87-0.45,1.59-1.13,2.09-1.94V29.37z M31.66,10.07v4.27
	l-0.77,0.21c-0.29,0.08-0.54,0.27-0.7,0.54c-0.15,0.27-0.19,0.58-0.12,0.88c0.44,1.65-0.54,3.36-2.18,3.8
	c-0.29,0.08-0.54,0.27-0.7,0.54c-0.15,0.27-0.19,0.58-0.11,0.88l4.47,16.65h-2.3l-1.18-4.67c-0.04-0.15-0.1-0.29-0.19-0.4
	L22.5,12.54L31.66,10.07z M17.91,59.99h-11c-0.63,0-1.15-0.52-1.15-1.15V40.03c0-0.64,0.51-1.15,1.15-1.15h4.36v13.29
	c0,0.64,0.51,1.15,1.15,1.15s1.15-0.52,1.15-1.15V38.88h4.36c0.63,0,1.15,0.52,1.15,1.15v18.81C19.05,59.48,18.54,59.99,17.91,59.99
	 M26.4,59.99c-0.84,0-1.65-0.31-2.29-0.86l-2.77-2.43V40.74l5-5.04l0.91,3.57c0.13,0.51,0.59,0.87,1.11,0.87l22.54,0
	c0.88,0,1.6,0.73,1.6,1.62c0,0.89-0.72,1.61-1.6,1.61H39.36c-0.63,0-1.15,0.52-1.15,1.15c0,0.64,0.51,1.15,1.15,1.15h15.14
	c0.88,0,1.6,0.73,1.6,1.61c0,0.89-0.72,1.62-1.6,1.62H39.36c-0.63,0-1.15,0.52-1.15,1.15s0.51,1.15,1.15,1.15h12.68
	c0.89,0,1.6,0.73,1.6,1.62c0,0.89-0.72,1.62-1.6,1.62H39.36c-0.63,0-1.15,0.52-1.15,1.15s0.51,1.15,1.15,1.15h8.77
	c0.88,0,1.6,0.73,1.6,1.62c0,0.89-0.72,1.61-1.6,1.61L26.4,59.99L26.4,59.99z M59.86,59.99h-8.18c0.22-0.49,0.35-1.04,0.35-1.62
	c0-0.58-0.13-1.12-0.35-1.62h0.36c2.15,0,3.9-1.76,3.9-3.92c0-0.63-0.15-1.23-0.41-1.76c1.65-0.46,2.87-1.98,2.87-3.78
	c0-0.88-0.29-1.68-0.77-2.34V30.34c0-0.64-0.51-1.15-1.15-1.15s-1.15,0.52-1.15,1.15v13.13c-0.27-0.06-0.55-0.09-0.84-0.09h-0.04
	c0.22-0.49,0.35-1.04,0.35-1.61c0-2.16-1.75-3.92-3.9-3.92h-1.84c1.96-0.85,3.33-2.8,3.33-5.08c0-3.05-2.46-5.52-5.49-5.52
	s-5.49,2.48-5.49,5.52c0,2.27,1.38,4.23,3.33,5.08h-6.27V15.9c2.05-0.45,3.66-2.08,4.11-4.14h8.62c0.45,2.06,2.06,3.69,4.11,4.14
	v3.59c0,0.64,0.51,1.15,1.15,1.15s1.15-0.52,1.15-1.15v-4.62c0-0.64-0.51-1.15-1.15-1.15c-1.7,0-3.09-1.39-3.09-3.11
	c0-0.64-0.51-1.15-1.15-1.15H41.57c-0.63,0-1.15,0.52-1.15,1.15c0,1.71-1.38,3.11-3.09,3.11c-0.63,0-1.15,0.52-1.15,1.15v22.97
	h-2.24V5.54l25.9,0V59.99z M46.91,35.98c-1.76,0-3.19-1.44-3.19-3.21s1.43-3.21,3.19-3.21s3.19,1.44,3.19,3.21
	S48.67,35.98,46.91,35.98"/>
</svg>
