<?xml version="1.0" encoding="utf-8"?>
<!-- Generator: Adobe Illustrator 24.0.1, SVG Export Plug-In . SVG Version: 6.00 Build 0)  -->
<svg version="1.1" id="Слой_1" xmlns="http://www.w3.org/2000/svg" xmlns:xlink="http://www.w3.org/1999/xlink" x="0px" y="0px"
	 viewBox="0 0 62 72" enable-background="new 0 0 62 72" xml:space="preserve">
<g>
	<path fill="#4B4B4B" d="M29.5,39.74l2.13,1.06c0.2,0.1,0.33,0.31,0.33,0.53c0,0.22-0.13,0.43-0.33,0.53c-0.4,0.2-0.87,0.2-1.27,0
		l-0.86-0.43c-0.48-0.24-1.05-0.04-1.29,0.43c-0.24,0.48-0.04,1.05,0.43,1.29l0.86,0.43c0.17,0.08,0.35,0.14,0.53,0.19v1.4h1.93
		v-1.4c0.18-0.05,0.36-0.11,0.53-0.19c0.85-0.43,1.39-1.3,1.39-2.26c0-0.96-0.54-1.83-1.39-2.26l-2.13-1.06
		c-0.2-0.1-0.33-0.31-0.33-0.53c0-0.23,0.13-0.43,0.33-0.53c0.4-0.2,0.87-0.2,1.27,0l0.86,0.43c0.48,0.24,1.05,0.04,1.29-0.43
		c0.24-0.48,0.04-1.05-0.43-1.29l-0.87-0.43c-0.17-0.08-0.35-0.14-0.53-0.19v-1.4h-1.92v1.4c-0.18,0.05-0.36,0.11-0.53,0.19
		c-0.85,0.43-1.39,1.3-1.39,2.26C28.11,38.44,28.65,39.32,29.5,39.74L29.5,39.74z"/>
	<path fill="#4B4B4B" d="M31,49.04c5.32,0,9.63-4.31,9.63-9.63c0-5.32-4.31-9.63-9.63-9.63c-5.32,0-9.63,4.31-9.63,9.63
		C21.38,44.73,25.68,49.04,31,49.04 M31,31.71c4.26,0,7.7,3.45,7.7,7.7c0,4.26-3.45,7.71-7.7,7.71s-7.7-3.45-7.7-7.71
		C23.3,35.16,26.75,31.71,31,31.71"/>
	<path fill="#4B4B4B" d="M6.92,38.45v18.07l-0.96,1.93c-0.75,1.49-0.67,3.27,0.21,4.68c0.88,1.42,2.43,2.28,4.1,2.28h41.46
		c1.67,0,3.22-0.86,4.1-2.28c0.88-1.42,0.96-3.19,0.21-4.68l-0.96-1.93V38.45c-0.01-10.37-6.92-19.46-16.9-22.26
		c2.7-0.82,4.95-2.72,6.21-5.24c0.24-0.47,0.04-1.05-0.43-1.29c-0.47-0.24-1.05-0.04-1.29,0.43c-1.1,2.19-3.1,3.8-5.48,4.39
		l-0.39,0.1c0.62-0.94,0.94-2.04,0.94-3.16V8.6c0-0.33-0.17-0.64-0.46-0.82C37,7.6,36.65,7.59,36.35,7.73L31,10.41l-5.35-2.67
		C25.35,7.59,25,7.6,24.71,7.78c-0.28,0.17-0.46,0.48-0.46,0.82v2.82c0,1.53,0.6,3.01,1.69,4.09l0.17,0.17
		C15.04,17.59,6.94,27.2,6.92,38.45 M26.18,10.15l4.38,2.2c0.27,0.14,0.59,0.14,0.86,0l4.39-2.2v1.26c0,1.02-0.4,2-1.13,2.72
		l-1.2,1.2h-4.98l-1.2-1.2c-0.73-0.72-1.13-1.7-1.13-2.72V10.15z M30.04,17.26h1.93c11.7,0.01,21.17,9.49,21.19,21.19v18.3
		c0,0.15,0.03,0.3,0.1,0.43l1.07,2.13c0.45,0.89,0.4,1.96-0.13,2.81c-0.53,0.85-1.45,1.37-2.45,1.37H10.27c-1,0-1.93-0.52-2.46-1.37
		c-0.53-0.85-0.57-1.92-0.13-2.81l1.07-2.13c0.07-0.13,0.1-0.28,0.1-0.43v-18.3C8.86,26.75,18.34,17.28,30.04,17.26"/>
	<rect x="25.22" y="38.45" fill-rule="evenodd" clip-rule="evenodd" fill="#4B4B4B" width="1.93" height="1.93"/>
	<rect x="34.85" y="38.45" fill-rule="evenodd" clip-rule="evenodd" fill="#4B4B4B" width="1.93" height="1.93"/>
	<path fill="#4B4B4B" d="M11.74,61.56h2.89v-1.93H12.7v-1.93h-1.93v2.89C10.78,61.13,11.21,61.56,11.74,61.56"/>
	<rect x="16.55" y="59.64" fill-rule="evenodd" clip-rule="evenodd" fill="#4B4B4B" width="1.93" height="1.93"/>
	<rect x="20.41" y="59.64" fill-rule="evenodd" clip-rule="evenodd" fill="#4B4B4B" width="1.93" height="1.93"/>
	<rect x="10.78" y="53.86" fill-rule="evenodd" clip-rule="evenodd" fill="#4B4B4B" width="1.93" height="1.93"/>
	<rect x="10.78" y="50.01" fill-rule="evenodd" clip-rule="evenodd" fill="#4B4B4B" width="1.93" height="1.93"/>
</g>
</svg>
