<?xml version="1.0" encoding="utf-8"?>
<!-- Generator: Adobe Illustrator 24.0.1, SVG Export Plug-In . SVG Version: 6.00 Build 0)  -->
<svg version="1.1" id="Слой_1" xmlns="http://www.w3.org/2000/svg" xmlns:xlink="http://www.w3.org/1999/xlink" x="0px" y="0px"
	 viewBox="0 0 62 72" enable-background="new 0 0 62 72" xml:space="preserve">
<g>
	<path fill="#4B4B4B" d="M40.79,41.51c1.34,0,2.43,0.94,2.43,2.1c0,0.61,0.49,1.1,1.1,1.1c0.61,0,1.1-0.49,1.1-1.1
		c0-2.02-1.51-3.72-3.53-4.19v-0.57c0-0.61-0.49-1.1-1.1-1.1s-1.1,0.49-1.1,1.1v0.57c-2.03,0.46-3.53,2.16-3.53,4.19
		c0,2.38,2.08,4.31,4.64,4.31c1.34,0,2.43,0.94,2.43,2.1s-1.09,2.1-2.43,2.1s-2.43-0.94-2.43-2.1c0-0.61-0.49-1.1-1.1-1.1
		c-0.61,0-1.1,0.49-1.1,1.1c0,2.02,1.51,3.72,3.53,4.19v0.48c0,0.61,0.49,1.1,1.1,1.1s1.1-0.49,1.1-1.1v-0.48
		c2.02-0.46,1.6-3.59,3.53-4.19c4.22-1.3,4.59-2.61-4.64-4.31c-1.32-0.24-2.43-0.94-2.43-2.1C38.36,42.45,39.45,41.51,40.79,41.51"
		/>
	<path fill="#4B4B4B" d="M52.88,39.14c-1.44-2.25-3.47-4.04-5.88-5.2c-0.55-0.26-1.21-0.03-1.47,0.52
		c-0.26,0.55-0.03,1.21,0.52,1.47c4.19,2.01,6.89,6.31,6.89,10.95c0,1.99-0.49,3.96-1.42,5.7c-0.29,0.54-0.08,1.21,0.46,1.49
		c0.17,0.09,0.34,0.13,0.52,0.13c0.4,0,0.78-0.21,0.98-0.59c1.1-2.06,1.67-4.39,1.67-6.73C55.14,44.13,54.36,41.45,52.88,39.14"/>
	<path fill="#4B4B4B" d="M42.45,34.74h0.06h0.01c0.61,0,1.1-0.49,1.1-1.1c0-0.61-0.49-1.11-1.1-1.11h-0.07c-0.61,0-1.1,0.49-1.1,1.1
		C41.34,34.25,41.84,34.74,42.45,34.74"/>
	<path fill="#4B4B4B" d="M35.54,57.84c-4.18-2.01-6.89-6.31-6.89-10.95c0-1.99,0.49-3.95,1.41-5.7c0.29-0.54,0.08-1.21-0.46-1.49
		c-0.54-0.29-1.21-0.08-1.49,0.46c-1.1,2.06-1.67,4.39-1.67,6.73c0,2.76,0.78,5.43,2.27,7.74c1.44,2.25,3.47,4.05,5.87,5.2
		c0.15,0.08,0.32,0.11,0.48,0.11c0.41,0,0.81-0.23,1-0.63C36.32,58.76,36.09,58.1,35.54,57.84"/>
	<path fill="#4B4B4B" d="M39.14,59.03l-0.06,0c-0.61,0-1.11,0.49-1.11,1.1c0,0.61,0.49,1.11,1.1,1.11l0.07,0c0.61,0,1.1-0.5,1.1-1.1
		C40.24,59.52,39.75,59.03,39.14,59.03"/>
	<path fill="#4B4B4B" d="M45.8,28.8c-0.13-0.32-0.3-0.62-0.49-0.9h2.87c2.8,0,5.08-2.28,5.08-5.08c0-2.8-2.28-5.08-5.08-5.08h-8.84
		c0.56-0.82,0.89-1.81,0.89-2.87c0-2.8-2.28-5.08-5.08-5.08H8.11c-2.8,0-5.08,2.28-5.08,5.08c0,2.8,2.28,5.08,5.08,5.08h8.84
		c-0.56,0.82-0.89,1.8-0.89,2.87s0.33,2.05,0.89,2.87h-2.88c-2.8,0-5.08,2.28-5.08,5.08c0,1.61,0.75,3.04,1.92,3.97
		C9.75,35.67,9,37.11,9,38.72s0.75,3.04,1.92,3.97C9.75,43.62,9,45.06,9,46.67c0,1.61,0.75,3.04,1.92,3.97
		C9.75,51.57,9,53.01,9,54.61c0,2.8,2.28,5.08,5.08,5.08h13.01c3.43,3.67,8.3,5.96,13.71,5.96c10.35,0,18.77-8.42,18.77-18.77
		C59.56,38.27,53.73,31,45.8,28.8 M5.24,14.87c0-1.58,1.29-2.87,2.87-2.87h27.05c1.58,0,2.87,1.29,2.87,2.87
		c0,1.58-1.29,2.87-2.87,2.87H8.11C6.53,17.74,5.24,16.45,5.24,14.87 M18.27,22.82c0-1.58,1.29-2.87,2.87-2.87h27.05
		c1.58,0,2.87,1.29,2.87,2.87s-1.29,2.87-2.87,2.87h-7.07H21.14C19.56,25.69,18.27,24.4,18.27,22.82 M11.2,30.77
		c0-1.58,1.29-2.87,2.87-2.87h27.05c0.45,0,0.87,0.1,1.25,0.29c-0.52-0.04-1.05-0.07-1.58-0.07c-5.18,0-9.88,2.11-13.28,5.52H14.08
		C12.49,33.64,11.2,32.35,11.2,30.77 M11.2,38.72c0-1.58,1.29-2.87,2.87-2.87h11.55c-1.25,1.72-2.22,3.65-2.84,5.74h-8.71
		C12.49,41.59,11.2,40.3,11.2,38.72 M11.2,46.67c0-1.58,1.29-2.87,2.87-2.87h8.21c-0.17,1.01-0.26,2.04-0.26,3.09
		c0,0.9,0.07,1.78,0.19,2.65h-8.14C12.49,49.54,11.2,48.25,11.2,46.67 M14.08,57.48c-1.58,0-2.87-1.29-2.87-2.87
		c0-1.58,1.29-2.87,2.87-2.87h8.59c0.56,2.08,1.46,4.01,2.65,5.74H14.08z M40.79,63.45c-9.13,0-16.56-7.43-16.56-16.56
		c0-9.13,7.43-16.56,16.56-16.56s16.56,7.43,16.56,16.56C57.35,56.02,49.92,63.45,40.79,63.45"/>
</g>
</svg>
