<?xml version="1.0" encoding="utf-8"?>
<!-- Generator: Adobe Illustrator 24.0.1, SVG Export Plug-In . SVG Version: 6.00 Build 0)  -->
<svg version="1.1" id="Слой_1" xmlns="http://www.w3.org/2000/svg" xmlns:xlink="http://www.w3.org/1999/xlink" x="0px" y="0px"
	 viewBox="0 0 62 72" enable-background="new 0 0 62 72" xml:space="preserve">
<g>
	<path fill="#4C4C4C" d="M59.15,18.17H44.68V4.61c0-0.53-0.43-0.97-0.97-0.97H18.63c-0.54,0-0.97,0.43-0.97,0.97v0v13.56H3.19
		c-0.53,0-0.97,0.43-0.97,0.97v0v34.87c0,0.54,0.43,0.97,0.97,0.97H5.2c-0.05,0.32-0.08,0.64-0.08,0.97v4.84
		c0,0.54,0.43,0.97,0.96,0.97h50.18c0.53,0,0.96-0.43,0.96-0.97v-4.84c0-0.32-0.03-0.65-0.08-0.97h2.01c0.53,0,0.97-0.43,0.97-0.97
		V19.14C60.12,18.61,59.69,18.17,59.15,18.17z M43.71,45.29c0,1.07-0.86,1.94-1.93,1.94c-1.06,0-1.93-0.87-1.93-1.94
		c0-1.07,0.87-1.94,1.93-1.94C42.85,43.36,43.71,44.22,43.71,45.29 M20.56,43.36c1.06,0,1.93,0.87,1.93,1.94
		c0,1.07-0.87,1.94-1.93,1.94c-1.07,0-1.93-0.87-1.93-1.94C18.63,44.22,19.49,43.36,20.56,43.36 M14.77,59.82H7.05v-3.88
		c0-2.14,1.73-3.87,3.86-3.87s3.86,1.73,3.86,3.87V59.82z M8.98,48.2c0-1.07,0.86-1.94,1.93-1.94c1.06,0,1.93,0.87,1.93,1.94
		c0,1.07-0.87,1.94-1.93,1.94C9.84,50.14,8.98,49.27,8.98,48.2 M14.91,51.76c-0.36-0.35-0.77-0.65-1.21-0.9
		c1.47-1.55,1.41-4-0.13-5.48c-1.54-1.48-3.98-1.42-5.45,0.13c-1.43,1.5-1.43,3.85,0,5.35c-0.93,0.51-1.69,1.27-2.22,2.18H4.15
		V20.11h13.51v22.65c-1.32,1.49-1.28,3.76,0.1,5.2C16.32,48.76,15.28,50.14,14.91,51.76 M24.42,59.82H16.7v-6.78
		c0-2.14,1.72-3.88,3.86-3.88c2.13,0,3.86,1.73,3.86,3.88V59.82z M35.99,59.82h-9.64v-6.78c0-2.68,2.16-4.84,4.82-4.84
		c2.66,0,4.82,2.17,4.82,4.84V59.82z M28.28,43.36c0-1.6,1.29-2.91,2.89-2.91c1.6,0,2.89,1.3,2.89,2.91c0,1.6-1.29,2.9-2.89,2.9
		C29.57,46.26,28.28,44.96,28.28,43.36 M37.05,49.71c-0.65-1.14-1.61-2.08-2.77-2.68c2.04-1.72,2.3-4.78,0.58-6.82
		c-1.72-2.05-4.76-2.31-6.8-0.58c-2.04,1.72-2.3,4.78-0.58,6.82c0.18,0.21,0.37,0.41,0.58,0.58c-1.16,0.61-2.12,1.54-2.77,2.68
		c-0.5-0.73-1.17-1.33-1.94-1.76c1.48-1.52,1.45-3.95-0.06-5.44c-0.98-0.96-2.39-1.32-3.7-0.96V5.58h23.16v35.98
		c-0.32-0.09-0.64-0.13-0.97-0.14c-2.12-0.01-3.85,1.72-3.86,3.85c0,1,0.38,1.96,1.07,2.68C38.22,48.39,37.55,48.99,37.05,49.71
		 M45.64,55.95v3.88h-7.72v-6.78c0-2.14,1.73-3.88,3.86-3.88c2.14,0,3.86,1.73,3.86,3.88V55.95z M55.29,59.82h-7.72v-3.88
		c0-2.14,1.73-3.87,3.86-3.87c2.13,0,3.86,1.73,3.86,3.87V59.82z M49.5,48.2c0-1.07,0.87-1.94,1.93-1.94c1.07,0,1.93,0.87,1.93,1.94
		c0,1.07-0.86,1.94-1.93,1.94C50.37,50.14,49.5,49.27,49.5,48.2 M58.19,53.04h-1.75c-0.53-0.92-1.29-1.67-2.22-2.18
		c1.48-1.55,1.42-4-0.12-5.48c-1.54-1.48-3.99-1.42-5.46,0.13c-1.42,1.5-1.42,3.85,0,5.35c-0.44,0.25-0.85,0.55-1.21,0.9
		c-0.37-1.62-1.41-3-2.85-3.81c1.38-1.44,1.42-3.7,0.1-5.2V20.11h13.51V53.04z"/>
	<rect x="37.92" y="34.64" fill-rule="evenodd" clip-rule="evenodd" fill="#4C4C4C" width="1.93" height="1.94"/>
	<rect x="22.49" y="23.02" fill-rule="evenodd" clip-rule="evenodd" fill="#4C4C4C" width="1.93" height="1.94"/>
	<rect x="22.49" y="26.89" fill-rule="evenodd" clip-rule="evenodd" fill="#4C4C4C" width="1.93" height="1.94"/>
	<rect x="22.49" y="30.76" fill-rule="evenodd" clip-rule="evenodd" fill="#4C4C4C" width="1.93" height="1.94"/>
	<rect x="22.49" y="34.64" fill-rule="evenodd" clip-rule="evenodd" fill="#4C4C4C" width="1.93" height="1.94"/>
	<rect x="26.35" y="23.02" fill-rule="evenodd" clip-rule="evenodd" fill="#4C4C4C" width="1.93" height="1.94"/>
	<rect x="26.35" y="26.89" fill-rule="evenodd" clip-rule="evenodd" fill="#4C4C4C" width="1.93" height="1.94"/>
	<rect x="26.35" y="30.76" fill-rule="evenodd" clip-rule="evenodd" fill="#4C4C4C" width="1.93" height="1.94"/>
	<rect x="26.35" y="34.64" fill-rule="evenodd" clip-rule="evenodd" fill="#4C4C4C" width="1.93" height="1.94"/>
	<rect x="30.21" y="23.02" fill-rule="evenodd" clip-rule="evenodd" fill="#4C4C4C" width="1.93" height="1.94"/>
	<rect x="30.21" y="26.89" fill-rule="evenodd" clip-rule="evenodd" fill="#4C4C4C" width="1.93" height="1.94"/>
	<rect x="30.21" y="30.76" fill-rule="evenodd" clip-rule="evenodd" fill="#4C4C4C" width="1.93" height="1.94"/>
	<rect x="30.21" y="34.64" fill-rule="evenodd" clip-rule="evenodd" fill="#4C4C4C" width="1.93" height="1.94"/>
	<rect x="34.06" y="23.02" fill-rule="evenodd" clip-rule="evenodd" fill="#4C4C4C" width="1.93" height="1.94"/>
	<rect x="26.35" y="19.14" fill-rule="evenodd" clip-rule="evenodd" fill="#4C4C4C" width="1.93" height="1.94"/>
	<rect x="30.21" y="19.14" fill-rule="evenodd" clip-rule="evenodd" fill="#4C4C4C" width="1.93" height="1.94"/>
	<rect x="34.06" y="19.14" fill-rule="evenodd" clip-rule="evenodd" fill="#4C4C4C" width="1.93" height="1.94"/>
	<rect x="34.06" y="26.89" fill-rule="evenodd" clip-rule="evenodd" fill="#4C4C4C" width="1.93" height="1.94"/>
	<rect x="34.06" y="30.76" fill-rule="evenodd" clip-rule="evenodd" fill="#4C4C4C" width="1.93" height="1.94"/>
	<rect x="34.06" y="34.64" fill-rule="evenodd" clip-rule="evenodd" fill="#4C4C4C" width="1.93" height="1.94"/>
	<rect x="37.92" y="23.02" fill-rule="evenodd" clip-rule="evenodd" fill="#4C4C4C" width="1.93" height="1.94"/>
	<rect x="37.92" y="26.89" fill-rule="evenodd" clip-rule="evenodd" fill="#4C4C4C" width="1.93" height="1.94"/>
	<rect x="37.92" y="30.76" fill-rule="evenodd" clip-rule="evenodd" fill="#4C4C4C" width="1.93" height="1.94"/>
	<rect x="47.57" y="25.92" fill-rule="evenodd" clip-rule="evenodd" fill="#4C4C4C" width="1.93" height="15.5"/>
	<rect x="53.36" y="25.92" fill-rule="evenodd" clip-rule="evenodd" fill="#4C4C4C" width="1.93" height="15.5"/>
	<rect x="7.05" y="25.92" fill-rule="evenodd" clip-rule="evenodd" fill="#4C4C4C" width="1.93" height="15.5"/>
	<rect x="12.84" y="25.92" fill-rule="evenodd" clip-rule="evenodd" fill="#4C4C4C" width="1.93" height="15.5"/>
	<path fill="#4C4C4C" d="M25.38,17.2h11.58c0.53,0,0.96-0.43,0.96-0.97V8.49c0-0.54-0.43-0.97-0.96-0.97H25.38
		c-0.53,0-0.96,0.43-0.96,0.97v0v7.75C24.42,16.77,24.85,17.2,25.38,17.2z M26.35,9.46h9.64v5.81h-9.64V9.46z"/>
</g>
</svg>
