<?xml version="1.0" encoding="utf-8"?>
<!-- Generator: Adobe Illustrator 24.0.1, SVG Export Plug-In . SVG Version: 6.00 Build 0)  -->
<svg version="1.1" id="Слой_1" xmlns="http://www.w3.org/2000/svg" xmlns:xlink="http://www.w3.org/1999/xlink" x="0px" y="0px"
	 viewBox="0 0 62 72" enable-background="new 0 0 62 72" xml:space="preserve">
<g>
	<path fill="#4C4C4C" d="M29.82,15.83c0.66,0.07,1.23-0.45,1.23-1.11c0-0.62-0.5-1.12-1.12-1.12c-0.62,0-1.12,0.5-1.12,1.12
		C28.82,15.3,29.25,15.78,29.82,15.83"/>
	<path fill="#4C4C4C" d="M52.31,15.84c-3.08,0-5.59-2.51-5.59-5.59c0-0.62-0.5-1.12-1.12-1.12H14.28c-0.62,0-1.12,0.5-1.12,1.12
		c0,3.08-2.51,5.59-5.59,5.59c-0.62,0-1.12,0.5-1.12,1.12v18.26c0,14.23,9.27,26.97,23.17,31.14c0.1,0.03,0.21,0.05,0.32,0.05
		c0.11,0,0.22-0.02,0.32-0.05c13.6-4.08,23.17-16.6,23.17-31.14V16.96C53.43,16.34,52.93,15.84,52.31,15.84 M51.19,35.21
		c0,13.36-8.53,24.93-21.25,28.9C17.31,60.18,8.68,48.5,8.68,35.21V18c3.42-0.49,6.14-3.21,6.63-6.63h29.24
		c0.49,3.42,3.21,6.14,6.63,6.63V35.21z"/>
	<path fill="#4C4C4C" d="M43.08,14.27c-0.18-0.41-0.58-0.67-1.02-0.67h-7.65c-0.62,0-1.12,0.5-1.12,1.12c0,0.62,0.5,1.12,1.12,1.12
		h6.94c1.18,2.31,3.05,4.18,5.37,5.37v14.01c0,10.95-6.57,20.39-16.78,24.17c-10.21-3.78-16.78-13.23-16.78-24.17V21.21
		c2.31-1.18,4.18-3.05,5.37-5.37h6.94c0.62,0,1.12-0.5,1.12-1.12c0-0.62-0.5-1.12-1.12-1.12h-7.65c-0.44,0-0.85,0.26-1.02,0.67
		c-1.02,2.33-2.87,4.18-5.2,5.2c-0.41,0.18-0.67,0.58-0.67,1.02v14.72c0,11.99,7.42,22.44,18.64,26.42
		c0.12,0.04,0.25,0.06,0.37,0.06c0.13,0,0.25-0.02,0.37-0.06c11.22-3.97,18.64-14.42,18.64-26.42V20.5c0-0.44-0.26-0.85-0.67-1.02
		C45.95,18.45,44.1,16.61,43.08,14.27"/>
	<path fill="#4C4C4C" d="M19.87,35.53c0,5.55,4.52,10.07,10.07,10.07C35.49,45.6,40,41.08,40,35.53s-4.52-10.07-10.07-10.07
		C24.38,25.46,19.87,29.98,19.87,35.53 M37.77,35.53c0,4.32-3.51,7.83-7.83,7.83c-4.32,0-7.83-3.51-7.83-7.83s3.51-7.83,7.83-7.83
		C34.25,27.7,37.77,31.21,37.77,35.53"/>
	<path fill="#4C4C4C" d="M27.37,35.86c-0.44-0.44-1.15-0.44-1.58,0c-0.44,0.44-0.44,1.15,0,1.58l2.24,2.24
		c0.22,0.22,0.51,0.33,0.79,0.33s0.57-0.11,0.79-0.33l5.59-5.59c0.44-0.44,0.44-1.15,0-1.58c-0.44-0.44-1.15-0.44-1.58,0l-4.8,4.8
		L27.37,35.86z"/>
</g>
</svg>
