<?xml version="1.0" encoding="utf-8"?>
<!-- Generator: Adobe Illustrator 24.0.1, SVG Export Plug-In . SVG Version: 6.00 Build 0)  -->
<svg version="1.1" id="Слой_1" xmlns="http://www.w3.org/2000/svg" xmlns:xlink="http://www.w3.org/1999/xlink" x="0px" y="0px"
	 viewBox="0 0 62 72" enable-background="new 0 0 62 72" xml:space="preserve">
<g>
	<path fill="#4B4B4B" d="M37.06,15.53c-0.45,0-0.84-0.33-0.9-0.78c-0.41-2.9-2.93-5.08-5.86-5.08c-1.88,0-3.67,0.91-4.79,2.43
		c-0.3,0.41-0.87,0.5-1.27,0.2c-0.41-0.3-0.5-0.87-0.2-1.27c1.45-1.99,3.79-3.18,6.26-3.18c3.83,0,7.13,2.86,7.67,6.64
		c0.07,0.5-0.28,0.96-0.77,1.03C37.15,15.52,37.1,15.53,37.06,15.53"/>
	<path fill="#4B4B4B" d="M50.34,26.07H10.25c-0.33,0-0.63-0.18-0.79-0.46c-0.16-0.29-0.16-0.64,0.01-0.92l2.73-4.56
		c0.16-0.27,0.46-0.44,0.78-0.44h1.48c0.5,0,0.91,0.41,0.91,0.91c0,0.5-0.41,0.91-0.91,0.91H13.5l-1.64,2.73h36.87l-1.64-2.73h-2.1
		c-0.5,0-0.91-0.41-0.91-0.91c0-0.5,0.41-0.91,0.91-0.91h2.62c0.32,0,0.62,0.17,0.78,0.44l2.73,4.56c0.17,0.28,0.17,0.63,0.01,0.92
		C50.97,25.89,50.67,26.07,50.34,26.07"/>
	<path fill="#4B4B4B" d="M43.93,25.72c-0.07,0-0.14-0.01-0.21-0.02c-0.49-0.11-0.79-0.6-0.68-1.09l1.67-7.15l-10.65-2.49l-0.73,3.12
		c-0.11,0.49-0.61,0.8-1.1,0.68c-0.49-0.11-0.79-0.6-0.68-1.09l0.94-4c0.05-0.24,0.2-0.44,0.41-0.57c0.2-0.13,0.45-0.17,0.69-0.11
		l12.42,2.9c0.23,0.06,0.44,0.2,0.57,0.41c0.13,0.21,0.17,0.45,0.11,0.69l-1.88,8.04C44.72,25.43,44.34,25.72,43.93,25.72"/>
	<path fill="#4B4B4B" d="M15.19,25.95c-0.45,0-0.85-0.34-0.9-0.8L12.9,13.43c-0.06-0.5,0.3-0.95,0.8-1.01l15.24-1.8
		c0.24-0.03,0.48,0.04,0.67,0.19c0.19,0.15,0.31,0.37,0.34,0.61l0.83,7.02c0.06,0.5-0.3,0.95-0.8,1.01c-0.5,0.06-0.95-0.3-1.01-0.8
		l-0.72-6.12l-13.43,1.59l1.28,10.81c0.06,0.5-0.3,0.95-0.8,1.01C15.26,25.95,15.22,25.95,15.19,25.95"/>
	<path fill="#4B4B4B" d="M37.1,25.93c-0.41,0-0.78-0.28-0.88-0.7l-1.6-6.63l-12.91,3.1l0.69,2.87c0.12,0.49-0.18,0.98-0.67,1.1
		c-0.49,0.12-0.98-0.18-1.1-0.67l-0.9-3.76c-0.12-0.49,0.18-0.98,0.67-1.1l14.68-3.53c0.24-0.06,0.48-0.02,0.69,0.11
		c0.21,0.13,0.35,0.33,0.41,0.56l1.81,7.52c0.12,0.49-0.18,0.98-0.67,1.1C37.24,25.93,37.17,25.93,37.1,25.93"/>
	<path fill="#4B4B4B" d="M52.16,61.6H8.43c-0.25,0-0.49-0.1-0.66-0.28s-0.26-0.42-0.25-0.67l1.82-35.53
		c0.03-0.48,0.43-0.86,0.91-0.86h40.09c0.48,0,0.89,0.38,0.91,0.86l1.82,35.53c0.01,0.25-0.08,0.49-0.25,0.67
		C52.65,61.5,52.41,61.6,52.16,61.6 M9.39,59.78H51.2l-1.73-33.71H11.12L9.39,59.78z"/>
	<path fill="#4B4B4B" d="M37.13,33.36c-1.51,0-2.73-1.23-2.73-2.73c0-1.51,1.23-2.73,2.73-2.73c1.51,0,2.73,1.23,2.73,2.73
		C39.86,32.13,38.64,33.36,37.13,33.36 M37.13,29.71c-0.5,0-0.91,0.41-0.91,0.91c0,0.5,0.41,0.91,0.91,0.91
		c0.5,0,0.91-0.41,0.91-0.91C38.04,30.12,37.63,29.71,37.13,29.71"/>
	<path fill="#4B4B4B" d="M23.46,33.36c-1.51,0-2.73-1.23-2.73-2.73c0-1.51,1.23-2.73,2.73-2.73c1.51,0,2.73,1.23,2.73,2.73
		C26.2,32.13,24.97,33.36,23.46,33.36 M23.46,29.71c-0.5,0-0.91,0.41-0.91,0.91c0,0.5,0.41,0.91,0.91,0.91
		c0.5,0,0.91-0.41,0.91-0.91C24.38,30.12,23.97,29.71,23.46,29.71"/>
	<path fill="#4B4B4B" d="M30.3,44.29c-4.27,0-7.74-3.47-7.74-7.74v-5.01c0-0.5,0.41-0.91,0.91-0.91c0.5,0,0.91,0.41,0.91,0.91v5.01
		c0,3.27,2.66,5.92,5.92,5.92c3.27,0,5.92-2.66,5.92-5.92v-4.66c-0.05-0.11-0.07-0.23-0.07-0.35c0-0.5,0.41-0.91,0.91-0.91h0.07
		c0.5,0,0.91,0.41,0.91,0.91v5.01C38.04,40.82,34.57,44.29,30.3,44.29"/>
</g>
</svg>
