<?xml version="1.0" encoding="utf-8"?>
<!-- Generator: Adobe Illustrator 24.0.1, SVG Export Plug-In . SVG Version: 6.00 Build 0)  -->
<svg version="1.1" id="Слой_1" xmlns="http://www.w3.org/2000/svg" xmlns:xlink="http://www.w3.org/1999/xlink" x="0px" y="0px"
	 viewBox="0 0 1701 379" enable-background="new 0 0 1701 379" xml:space="preserve">
<g>
	<path fill-rule="evenodd" clip-rule="evenodd" fill="#FF4448" d="M322.82,168.67c-1.25,1.14-2.48,2.31-3.67,3.51
		c-0.32-0.56-0.64-1.11-0.97-1.67C319.75,169.95,321.3,169.33,322.82,168.67z M1033.87,180.95c-1.25,1.14-2.48,2.31-3.67,3.52
		c-0.32-0.56-0.64-1.11-0.97-1.67C1030.8,182.23,1032.35,181.62,1033.87,180.95z M813.23,350.33c-1.28,0.05-2.57,0.09-3.86,0.11
		c-22.06,0.31-42.95-4.64-61.56-13.71c-8.07,2.44-16.57,3.8-25.34,3.92c-21.96,0.31-42.17-7.19-58.21-20
		c-12.06,5.97-25.5,9.39-39.66,9.59c-7.26,0.1-14.34-0.65-21.13-2.17c-13.88,8.5-29.98,13.48-47.15,13.72
		c-26.65,0.37-50.73-10.75-67.89-28.92c-10.38,4.22-21.64,6.6-33.39,6.77c-4.6,0.06-9.13-0.21-13.55-0.81
		c-15.84,12.68-35.6,20.35-57.01,20.65c-34.73,0.48-65.1-18.55-81.49-47.28c-16.96,17.08-39.98,27.76-65.32,28.12
		c-17.54,0.24-33.96-4.49-48.04-12.93c-17.24,19.47-41.86,31.86-69.18,32.24c-52.09,0.73-94.38-42.46-94.38-96.39
		c0-40.51,23.87-75.64,57.84-90.9c-6.51-12.83-10.2-27.48-10.2-43.05c0-51.65,40.5-94.14,90.39-94.84
		c26.76-0.37,50.81,11.35,67.37,30.27c14.36-19.19,36.71-31.72,61.8-32.07c27.52-0.38,51.75,13.98,65.75,36.01
		c13.56-11.77,30.94-18.97,49.88-19.24c24.73-0.35,46.81,11.22,61.19,29.56c15.79-19.07,39.09-31.33,65.06-31.69
		c22.12-0.31,42.3,8.06,57.55,22.06c15.42-15.3,36.22-24.84,59.1-25.16c28.39-0.4,53.58,13.51,69.27,35.25
		c14.95-13.16,34.2-21.23,55.2-21.52c12.32-0.17,24.05,2.35,34.65,7.04c15.89-13.45,36.07-21.65,58.02-21.96
		c20.1-0.28,38.71,6.1,53.9,17.16c7.32,4.62,13.95,10.3,19.67,16.85c14.36-19.19,36.71-31.72,61.8-32.07
		c27.51-0.38,51.74,13.98,65.75,36.01c13.56-11.77,30.93-18.98,49.87-19.24c24.73-0.35,46.81,11.22,61.19,29.56
		c15.79-19.07,39.1-31.33,65.07-31.69c22.12-0.31,42.3,8.06,57.55,22.06c15.42-15.3,36.22-24.84,59.1-25.16
		c28.38-0.4,53.58,13.51,69.26,35.25c14.95-13.16,34.21-21.23,55.21-21.52c12.32-0.17,24.05,2.35,34.65,7.04
		c15.89-13.45,36.07-21.65,58.02-21.96c51.15-0.71,92.67,41.69,92.67,94.64c0,18.8-5.23,36.41-14.27,51.35
		c2.35,10.57,3.6,21.59,3.6,32.93c0,80.89-63.44,147.44-141.57,148.53c-22.06,0.31-42.95-4.64-61.56-13.71
		c-8.07,2.44-16.57,3.8-25.35,3.92c-21.95,0.31-42.17-7.19-58.21-20c-12.06,5.97-25.5,9.39-39.66,9.59
		c-7.26,0.1-14.34-0.65-21.13-2.17c-13.88,8.5-29.98,13.48-47.15,13.72c-26.65,0.37-50.73-10.75-67.89-28.92
		c-10.39,4.22-21.64,6.6-33.4,6.77c-4.6,0.06-9.12-0.21-13.55-0.81c-15.84,12.68-35.59,20.35-57,20.65
		c-34.73,0.48-65.1-18.55-81.49-47.28c-16.96,17.08-39.98,27.76-65.32,28.12c-17.54,0.24-33.96-4.49-48.04-12.93
		c-17.24,19.47-41.86,31.86-69.18,32.24C825.24,351.99,819.14,351.44,813.23,350.33z"/>
	<g>
		<path fill="#FFFFFF" d="M338.79,194.21h-6.04l-4.68-18.32l-4.64,18.32h-6.04l-7.64-26.68h6.36l4.68,19.28l5.08-19.28h4.44
			l5.04,19.28l4.64-19.28h6.4L338.79,194.21z"/>
		<path fill="#FFFFFF" d="M356.43,194.69c-2.99,0-5.45-0.93-7.4-2.8c-1.95-1.87-2.92-4.32-2.92-7.36c0-2.85,0.94-5.25,2.82-7.2
			s4.27-2.92,7.18-2.92c2.88,0,5.21,0.98,7,2.94s2.68,4.53,2.68,7.7v1.12h-14.36c0.16,1.28,0.73,2.35,1.72,3.2
			c0.99,0.85,2.27,1.28,3.84,1.28c0.85,0,1.78-0.17,2.78-0.52c1-0.35,1.79-0.81,2.38-1.4l2.24,3.28
			C362.45,193.79,359.79,194.69,356.43,194.69z M360.87,182.72c-0.08-1.09-0.51-2.08-1.3-2.96c-0.79-0.88-1.94-1.32-3.46-1.32
			c-1.44,0-2.56,0.43-3.36,1.3c-0.8,0.87-1.27,1.86-1.4,2.98H360.87z"/>
		<path fill="#FFFFFF" d="M388.71,194.69c-2.99,0-5.44-0.95-7.36-2.84c-1.92-1.89-2.88-4.33-2.88-7.32c0-2.96,0.96-5.39,2.88-7.28
			s4.37-2.84,7.36-2.84c3.41,0,5.96,1.16,7.64,3.48l-3.32,3.12c-0.93-1.39-2.29-2.08-4.08-2.08c-1.55,0-2.81,0.51-3.78,1.54
			c-0.97,1.03-1.46,2.38-1.46,4.06c0,1.68,0.49,3.04,1.46,4.08c0.97,1.04,2.23,1.56,3.78,1.56c1.73,0,3.09-0.69,4.08-2.08l3.32,3.08
			C394.67,193.51,392.13,194.69,388.71,194.69z"/>
		<path fill="#FFFFFF" d="M416.35,194.21h-5.08v-2c-1.39,1.65-3.43,2.48-6.12,2.48c-1.73,0-3.29-0.57-4.66-1.7
			c-1.37-1.13-2.06-2.7-2.06-4.7c0-2.08,0.67-3.64,2.02-4.68s2.91-1.56,4.7-1.56c2.75,0,4.79,0.79,6.12,2.36v-2.6
			c0-0.99-0.39-1.77-1.16-2.36c-0.77-0.59-1.8-0.88-3.08-0.88c-2.11,0-3.99,0.76-5.64,2.28l-1.92-3.4c2.29-2.03,5.11-3.04,8.44-3.04
			c2.48,0,4.51,0.57,6.08,1.72c1.57,1.15,2.36,3.01,2.36,5.6V194.21z M407.19,191.25c1.89,0,3.25-0.56,4.08-1.68v-2.4
			c-0.83-1.12-2.19-1.68-4.08-1.68c-1.04,0-1.91,0.26-2.6,0.78c-0.69,0.52-1.04,1.23-1.04,2.14c0,0.88,0.35,1.57,1.04,2.08
			C405.29,190.99,406.15,191.25,407.19,191.25z"/>
		<path fill="#FFFFFF" d="M439.51,194.21h-5.08v-11.68c0-2.4-1.19-3.6-3.56-3.6c-1.84,0-3.31,0.76-4.4,2.28v13h-5.08v-19.32h5.08
			v2.52c1.68-2,3.93-3,6.76-3c2.08,0,3.65,0.55,4.7,1.64c1.05,1.09,1.58,2.6,1.58,4.52V194.21z"/>
		<path fill="#FFFFFF" d="M472.95,194.21h-5.08v-11.76c0-1.28-0.31-2.19-0.92-2.72c-0.61-0.53-1.51-0.8-2.68-0.8
			c-1.79,0-3.25,0.76-4.4,2.28v13h-5.08v-26.68h5.08v9.88c0.69-0.83,1.63-1.53,2.82-2.12c1.19-0.59,2.51-0.88,3.98-0.88
			c2.08,0,3.65,0.53,4.7,1.6c1.05,1.07,1.58,2.56,1.58,4.48V194.21z"/>
		<path fill="#FFFFFF" d="M487.07,194.69c-2.99,0-5.45-0.93-7.4-2.8c-1.95-1.87-2.92-4.32-2.92-7.36c0-2.85,0.94-5.25,2.82-7.2
			s4.27-2.92,7.18-2.92c2.88,0,5.21,0.98,7,2.94s2.68,4.53,2.68,7.7v1.12h-14.36c0.16,1.28,0.73,2.35,1.72,3.2
			c0.99,0.85,2.27,1.28,3.84,1.28c0.85,0,1.78-0.17,2.78-0.52c1-0.35,1.79-0.81,2.38-1.4l2.24,3.28
			C493.08,193.79,490.43,194.69,487.07,194.69z M491.51,182.72c-0.08-1.09-0.51-2.08-1.3-2.96c-0.79-0.88-1.94-1.32-3.46-1.32
			c-1.44,0-2.56,0.43-3.36,1.3c-0.8,0.87-1.27,1.86-1.4,2.98H491.51z"/>
		<path fill="#FFFFFF" d="M505.19,194.21h-5.08v-26.68h5.08V194.21z"/>
		<path fill="#FFFFFF" d="M521.27,194.69c-2.43,0-4.41-0.99-5.96-2.96v9.84h-5.08v-26.68h5.08v2.44c1.52-1.95,3.51-2.92,5.96-2.92
			c2.53,0,4.59,0.9,6.18,2.7c1.59,1.8,2.38,4.27,2.38,7.42s-0.79,5.63-2.38,7.44C525.86,193.78,523.8,194.69,521.27,194.69z
			 M519.67,190.17c1.47,0,2.65-0.52,3.54-1.56c0.89-1.04,1.34-2.4,1.34-4.08c0-1.65-0.45-3-1.34-4.04
			c-0.89-1.04-2.07-1.56-3.54-1.56c-0.83,0-1.65,0.21-2.48,0.64c-0.83,0.43-1.45,0.95-1.88,1.56v6.84c0.43,0.61,1.06,1.13,1.9,1.56
			S518.87,190.17,519.67,190.17z"/>
		<path fill="#FFFFFF" d="M566.15,194.21h-5.4l-4.08-13.16l-4.08,13.16h-5.44l-5.88-19.32h5.28l3.6,13l4.24-13h4.52l4.24,13l3.6-13
			h5.28L566.15,194.21z"/>
		<path fill="#FFFFFF" d="M577.07,172.8c-0.83,0-1.54-0.3-2.14-0.9c-0.6-0.6-0.9-1.31-0.9-2.14c0-0.83,0.3-1.53,0.9-2.12
			s1.31-0.88,2.14-0.88c0.85,0,1.57,0.29,2.16,0.88c0.59,0.59,0.88,1.29,0.88,2.12c0,0.83-0.29,1.54-0.88,2.14
			C578.64,172.5,577.92,172.8,577.07,172.8z M579.63,194.21h-5.08v-19.32h5.08V194.21z"/>
		<path fill="#FFFFFF" d="M591.15,194.69c-1.79,0-3.15-0.45-4.08-1.36c-0.93-0.91-1.4-2.21-1.4-3.92v-10.08h-3.2v-4.44h3.2v-5.28
			h5.12v5.28h3.92v4.44h-3.92v8.72c0,0.61,0.16,1.12,0.48,1.52c0.32,0.4,0.75,0.6,1.28,0.6c0.8,0,1.39-0.19,1.76-0.56l1.08,3.84
			C594.46,194.27,593.04,194.69,591.15,194.69z"/>
		<path fill="#FFFFFF" d="M616.35,194.21h-5.08v-11.76c0-1.28-0.31-2.19-0.92-2.72c-0.61-0.53-1.51-0.8-2.68-0.8
			c-1.79,0-3.25,0.76-4.4,2.28v13h-5.08v-26.68h5.08v9.88c0.69-0.83,1.63-1.53,2.82-2.12c1.19-0.59,2.51-0.88,3.98-0.88
			c2.08,0,3.65,0.53,4.7,1.6c1.05,1.07,1.58,2.56,1.58,4.48V194.21z"/>
		<path fill="#FFFFFF" d="M650.03,194.21h-5.12v-2.48c-1.57,1.97-3.56,2.96-5.96,2.96c-2.51,0-4.56-0.9-6.16-2.7
			c-1.6-1.8-2.4-4.27-2.4-7.42c0-3.09,0.8-5.56,2.4-7.4c1.6-1.84,3.65-2.76,6.16-2.76c2.45,0,4.44,0.99,5.96,2.96v-9.84h5.12V194.21
			z M640.51,190.17c0.85,0,1.69-0.21,2.52-0.62c0.83-0.41,1.45-0.94,1.88-1.58v-6.84c-0.43-0.64-1.05-1.17-1.88-1.58
			c-0.83-0.41-1.67-0.62-2.52-0.62c-1.44,0-2.61,0.52-3.52,1.56c-0.91,1.04-1.36,2.4-1.36,4.08c0,1.65,0.45,3,1.36,4.04
			C637.9,189.65,639.07,190.17,640.51,190.17z"/>
		<path fill="#FFFFFF" d="M664.15,194.69c-2.99,0-5.45-0.93-7.4-2.8c-1.95-1.87-2.92-4.32-2.92-7.36c0-2.85,0.94-5.25,2.82-7.2
			s4.27-2.92,7.18-2.92c2.88,0,5.21,0.98,7,2.94s2.68,4.53,2.68,7.7v1.12h-14.36c0.16,1.28,0.73,2.35,1.72,3.2
			c0.99,0.85,2.27,1.28,3.84,1.28c0.85,0,1.78-0.17,2.78-0.52c1-0.35,1.79-0.81,2.38-1.4l2.24,3.28
			C670.16,193.79,667.51,194.69,664.15,194.69z M668.59,182.72c-0.08-1.09-0.51-2.08-1.3-2.96c-0.79-0.88-1.94-1.32-3.46-1.32
			c-1.44,0-2.56,0.43-3.36,1.3c-0.8,0.87-1.27,1.86-1.4,2.98H668.59z"/>
		<path fill="#FFFFFF" d="M682.27,194.21h-5.08v-26.68h5.08v9.84c1.52-1.97,3.51-2.96,5.96-2.96c2.51,0,4.56,0.92,6.16,2.76
			c1.6,1.84,2.4,4.31,2.4,7.4c0,3.15-0.8,5.62-2.4,7.42c-1.6,1.8-3.65,2.7-6.16,2.7c-2.4,0-4.39-0.99-5.96-2.96V194.21z M682.27,188
			c0.43,0.61,1.05,1.13,1.88,1.54c0.83,0.41,1.65,0.62,2.48,0.62c1.47,0,2.65-0.51,3.56-1.54c0.91-1.03,1.36-2.38,1.36-4.06
			c0-1.68-0.45-3.04-1.36-4.08c-0.91-1.04-2.09-1.56-3.56-1.56c-0.83,0-1.65,0.21-2.48,0.64c-0.83,0.43-1.45,0.96-1.88,1.6V188z"/>
		<path fill="#FFFFFF" d="M707.11,194.69c-1.79,0-3.15-0.45-4.08-1.36c-0.93-0.91-1.4-2.21-1.4-3.92v-10.08h-3.2v-4.44h3.2v-5.28
			h5.12v5.28h3.92v4.44h-3.92v8.72c0,0.61,0.16,1.12,0.48,1.52c0.32,0.4,0.75,0.6,1.28,0.6c0.8,0,1.39-0.19,1.76-0.56l1.08,3.84
			C710.42,194.27,709,194.69,707.11,194.69z"/>
		<path fill="#FFFFFF" d="M721.11,194.69c-1.68,0-3.29-0.27-4.82-0.8c-1.53-0.53-2.81-1.27-3.82-2.2l2.2-3.56
			c0.75,0.69,1.76,1.31,3.04,1.84c1.28,0.53,2.49,0.8,3.64,0.8c1.07,0,1.87-0.19,2.42-0.56c0.55-0.37,0.82-0.88,0.82-1.52
			c0-0.48-0.29-0.87-0.86-1.18c-0.57-0.31-1.28-0.53-2.12-0.66c-0.84-0.13-1.76-0.33-2.76-0.6s-1.92-0.59-2.76-0.96
			c-0.84-0.37-1.55-0.97-2.12-1.78c-0.57-0.81-0.86-1.82-0.86-3.02c0-1.71,0.71-3.15,2.12-4.32c1.41-1.17,3.35-1.76,5.8-1.76
			c2.99,0,5.59,0.88,7.8,2.64l-2.04,3.48c-0.61-0.64-1.43-1.17-2.46-1.6c-1.03-0.43-2.11-0.64-3.26-0.64c-0.91,0-1.64,0.18-2.2,0.54
			c-0.56,0.36-0.84,0.82-0.84,1.38c0,0.43,0.28,0.78,0.84,1.06c0.56,0.28,1.27,0.49,2.12,0.62c0.85,0.13,1.77,0.34,2.76,0.62
			c0.99,0.28,1.91,0.61,2.76,1c0.85,0.39,1.56,1.01,2.12,1.86s0.84,1.89,0.84,3.12c0,1.81-0.74,3.3-2.22,4.46
			S723.72,194.69,721.11,194.69z"/>
		<path fill="#FFFFFF" d="M765.83,194.21h-5.4l-4.08-13.16l-4.08,13.16h-5.44l-5.88-19.32h5.28l3.6,13l4.24-13h4.52l4.24,13l3.6-13
			h5.28L765.83,194.21z"/>
		<path fill="#FFFFFF" d="M776.75,172.8c-0.83,0-1.54-0.3-2.14-0.9c-0.6-0.6-0.9-1.31-0.9-2.14c0-0.83,0.3-1.53,0.9-2.12
			s1.31-0.88,2.14-0.88c0.85,0,1.57,0.29,2.16,0.88c0.59,0.59,0.88,1.29,0.88,2.12c0,0.83-0.29,1.54-0.88,2.14
			C778.32,172.5,777.6,172.8,776.75,172.8z M779.31,194.21h-5.08v-19.32h5.08V194.21z"/>
		<path fill="#FFFFFF" d="M790.83,194.69c-1.79,0-3.15-0.45-4.08-1.36c-0.93-0.91-1.4-2.21-1.4-3.92v-10.08h-3.2v-4.44h3.2v-5.28
			h5.12v5.28h3.92v4.44h-3.92v8.72c0,0.61,0.16,1.12,0.48,1.52c0.32,0.4,0.75,0.6,1.28,0.6c0.8,0,1.39-0.19,1.76-0.56l1.08,3.84
			C794.13,194.27,792.72,194.69,790.83,194.69z"/>
		<path fill="#FFFFFF" d="M816.03,194.21h-5.08v-11.76c0-1.28-0.31-2.19-0.92-2.72c-0.61-0.53-1.51-0.8-2.68-0.8
			c-1.79,0-3.25,0.76-4.4,2.28v13h-5.08v-26.68h5.08v9.88c0.69-0.83,1.63-1.53,2.82-2.12c1.19-0.59,2.51-0.88,3.98-0.88
			c2.08,0,3.65,0.53,4.7,1.6c1.05,1.07,1.58,2.56,1.58,4.48V194.21z"/>
		<path fill="#FFFFFF" d="M847.99,194.21h-5.08v-2c-1.39,1.65-3.43,2.48-6.12,2.48c-1.73,0-3.29-0.57-4.66-1.7s-2.06-2.7-2.06-4.7
			c0-2.08,0.67-3.64,2.02-4.68s2.91-1.56,4.7-1.56c2.75,0,4.79,0.79,6.12,2.36v-2.6c0-0.99-0.39-1.77-1.16-2.36s-1.8-0.88-3.08-0.88
			c-2.11,0-3.99,0.76-5.64,2.28l-1.92-3.4c2.29-2.03,5.11-3.04,8.44-3.04c2.48,0,4.51,0.57,6.08,1.72s2.36,3.01,2.36,5.6V194.21z
			 M838.83,191.25c1.89,0,3.25-0.56,4.08-1.68v-2.4c-0.83-1.12-2.19-1.68-4.08-1.68c-1.04,0-1.91,0.26-2.6,0.78
			c-0.69,0.52-1.04,1.23-1.04,2.14c0,0.88,0.35,1.57,1.04,2.08C836.92,190.99,837.79,191.25,838.83,191.25z"/>
		<path fill="#FFFFFF" d="M858.11,194.21h-5.08v-26.68h5.08V194.21z"/>
		<path fill="#FFFFFF" d="M868.23,194.21h-5.08v-26.68h5.08V194.21z"/>
		<path fill="#FFFFFF" d="M912.59,194.21h-5.12V182c0-2.05-0.96-3.08-2.88-3.08c-0.83,0-1.59,0.23-2.3,0.68
			c-0.71,0.45-1.27,0.97-1.7,1.56v13.04h-5.12V182c0-2.05-0.96-3.08-2.88-3.08c-0.8,0-1.56,0.23-2.28,0.68s-1.29,0.99-1.72,1.6v13
			h-5.08v-19.32h5.08v2.52c0.48-0.69,1.32-1.37,2.52-2.02c1.2-0.65,2.47-0.98,3.8-0.98c2.8,0,4.59,1.17,5.36,3.52
			c0.61-0.96,1.53-1.79,2.74-2.48c1.21-0.69,2.51-1.04,3.9-1.04c1.81,0,3.21,0.49,4.2,1.46s1.48,2.43,1.48,4.38V194.21z"/>
		<path fill="#FFFFFF" d="M934.27,194.21h-5.08v-2c-1.39,1.65-3.43,2.48-6.12,2.48c-1.73,0-3.29-0.57-4.66-1.7
			c-1.37-1.13-2.06-2.7-2.06-4.7c0-2.08,0.67-3.64,2.02-4.68s2.91-1.56,4.7-1.56c2.75,0,4.79,0.79,6.12,2.36v-2.6
			c0-0.99-0.39-1.77-1.16-2.36c-0.77-0.59-1.8-0.88-3.08-0.88c-2.11,0-3.99,0.76-5.64,2.28l-1.92-3.4c2.29-2.03,5.11-3.04,8.44-3.04
			c2.48,0,4.51,0.57,6.08,1.72c1.57,1.15,2.36,3.01,2.36,5.6V194.21z M925.11,191.25c1.89,0,3.25-0.56,4.08-1.68v-2.4
			c-0.83-1.12-2.19-1.68-4.08-1.68c-1.04,0-1.91,0.26-2.6,0.78c-0.69,0.52-1.04,1.23-1.04,2.14c0,0.88,0.35,1.57,1.04,2.08
			S924.07,191.25,925.11,191.25z"/>
		<path fill="#FFFFFF" d="M937.51,202.04c-1.17,0-2.09-0.1-2.74-0.3c-0.65-0.2-1.35-0.55-2.1-1.06l1.4-3.8c0.8,0.67,1.67,1,2.6,1
			c0.8,0,1.44-0.27,1.92-0.8c0.48-0.53,0.72-1.32,0.72-2.36v-19.84h5.08v19.84c0,2.27-0.58,4.05-1.74,5.36
			C941.49,201.39,939.77,202.04,937.51,202.04z M941.83,172.8c-0.83,0-1.54-0.3-2.14-0.9c-0.6-0.6-0.9-1.31-0.9-2.14
			c0-0.83,0.3-1.53,0.9-2.12c0.6-0.59,1.31-0.88,2.14-0.88c0.85,0,1.57,0.29,2.16,0.88c0.59,0.59,0.88,1.29,0.88,2.12
			c0,0.83-0.29,1.54-0.88,2.14C943.4,172.5,942.68,172.8,941.83,172.8z"/>
		<path fill="#FFFFFF" d="M965.83,191.75c-1.87,1.96-4.35,2.94-7.44,2.94c-3.09,0-5.57-0.98-7.42-2.94
			c-1.85-1.96-2.78-4.37-2.78-7.22s0.93-5.25,2.78-7.2c1.85-1.95,4.33-2.92,7.42-2.92c3.09,0,5.57,0.97,7.44,2.92s2.8,4.35,2.8,7.2
			S967.69,189.79,965.83,191.75z M954.79,188.54c0.88,1.08,2.08,1.62,3.6,1.62c1.52,0,2.73-0.54,3.62-1.62
			c0.89-1.08,1.34-2.42,1.34-4.02c0-1.57-0.45-2.9-1.34-3.98c-0.89-1.08-2.1-1.62-3.62-1.62c-1.52,0-2.72,0.54-3.6,1.62
			s-1.32,2.41-1.32,3.98C953.47,186.13,953.91,187.46,954.79,188.54z"/>
		<path fill="#FFFFFF" d="M977.47,194.21h-5.08v-19.32h5.08v2.64c0.72-0.91,1.64-1.65,2.76-2.24c1.12-0.59,2.25-0.88,3.4-0.88v4.96
			c-0.35-0.08-0.81-0.12-1.4-0.12c-0.85,0-1.76,0.21-2.72,0.64c-0.96,0.43-1.64,0.95-2.04,1.56V194.21z"/>
		<path fill="#FFFFFF" d="M1006.02,194.69c-2.99,0-5.44-0.95-7.36-2.84c-1.92-1.89-2.88-4.33-2.88-7.32c0-2.96,0.96-5.39,2.88-7.28
			s4.37-2.84,7.36-2.84c3.41,0,5.96,1.16,7.64,3.48l-3.32,3.12c-0.93-1.39-2.29-2.08-4.08-2.08c-1.55,0-2.81,0.51-3.78,1.54
			c-0.97,1.03-1.46,2.38-1.46,4.06c0,1.68,0.49,3.04,1.46,4.08s2.23,1.56,3.78,1.56c1.73,0,3.09-0.69,4.08-2.08l3.32,3.08
			C1011.98,193.51,1009.44,194.69,1006.02,194.69z"/>
		<path fill="#FFFFFF" d="M1022.06,194.21h-5.08v-19.32h5.08v2.64c0.72-0.91,1.64-1.65,2.76-2.24c1.12-0.59,2.25-0.88,3.4-0.88v4.96
			c-0.35-0.08-0.81-0.12-1.4-0.12c-0.85,0-1.76,0.21-2.72,0.64c-0.96,0.43-1.64,0.95-2.04,1.56V194.21z"/>
		<path fill="#FFFFFF" d="M1040.46,194.69c-2.99,0-5.45-0.93-7.4-2.8c-1.95-1.87-2.92-4.32-2.92-7.36c0-2.85,0.94-5.25,2.82-7.2
			s4.27-2.92,7.18-2.92c2.88,0,5.21,0.98,7,2.94c1.79,1.96,2.68,4.53,2.68,7.7v1.12h-14.36c0.16,1.28,0.73,2.35,1.72,3.2
			s2.27,1.28,3.84,1.28c0.85,0,1.78-0.17,2.78-0.52c1-0.35,1.79-0.81,2.38-1.4l2.24,3.28
			C1046.48,193.79,1043.82,194.69,1040.46,194.69z M1044.9,182.72c-0.08-1.09-0.51-2.08-1.3-2.96c-0.79-0.88-1.94-1.32-3.46-1.32
			c-1.44,0-2.56,0.43-3.36,1.3c-0.8,0.87-1.27,1.86-1.4,2.98H1044.9z"/>
		<path fill="#FFFFFF" d="M1071.9,194.21h-5.12v-2.48c-1.57,1.97-3.56,2.96-5.96,2.96c-2.51,0-4.56-0.9-6.16-2.7
			c-1.6-1.8-2.4-4.27-2.4-7.42c0-3.09,0.8-5.56,2.4-7.4c1.6-1.84,3.65-2.76,6.16-2.76c2.45,0,4.44,0.99,5.96,2.96v-9.84h5.12V194.21
			z M1062.38,190.17c0.85,0,1.69-0.21,2.52-0.62c0.83-0.41,1.45-0.94,1.88-1.58v-6.84c-0.43-0.64-1.05-1.17-1.88-1.58
			c-0.83-0.41-1.67-0.62-2.52-0.62c-1.44,0-2.61,0.52-3.52,1.56s-1.36,2.4-1.36,4.08c0,1.65,0.45,3,1.36,4.04
			S1060.94,190.17,1062.38,190.17z"/>
		<path fill="#FFFFFF" d="M1079.46,172.8c-0.83,0-1.54-0.3-2.14-0.9c-0.6-0.6-0.9-1.31-0.9-2.14c0-0.83,0.3-1.53,0.9-2.12
			c0.6-0.59,1.31-0.88,2.14-0.88c0.85,0,1.57,0.29,2.16,0.88c0.59,0.59,0.88,1.29,0.88,2.12c0,0.83-0.29,1.54-0.88,2.14
			C1081.04,172.5,1080.32,172.8,1079.46,172.8z M1082.02,194.21h-5.08v-19.32h5.08V194.21z"/>
		<path fill="#FFFFFF" d="M1093.54,194.69c-1.79,0-3.15-0.45-4.08-1.36s-1.4-2.21-1.4-3.92v-10.08h-3.2v-4.44h3.2v-5.28h5.12v5.28
			h3.92v4.44h-3.92v8.72c0,0.61,0.16,1.12,0.48,1.52c0.32,0.4,0.75,0.6,1.28,0.6c0.8,0,1.39-0.19,1.76-0.56l1.08,3.84
			C1096.85,194.27,1095.44,194.69,1093.54,194.69z"/>
		<path fill="#FFFFFF" d="M1116.98,191.75c-1.87,1.96-4.35,2.94-7.44,2.94s-5.57-0.98-7.42-2.94s-2.78-4.37-2.78-7.22
			s0.93-5.25,2.78-7.2s4.33-2.92,7.42-2.92s5.57,0.97,7.44,2.92c1.87,1.95,2.8,4.35,2.8,7.2S1118.85,189.79,1116.98,191.75z
			 M1105.94,188.54c0.88,1.08,2.08,1.62,3.6,1.62c1.52,0,2.73-0.54,3.62-1.62s1.34-2.42,1.34-4.02c0-1.57-0.45-2.9-1.34-3.98
			s-2.1-1.62-3.62-1.62c-1.52,0-2.72,0.54-3.6,1.62s-1.32,2.41-1.32,3.98C1104.62,186.13,1105.06,187.46,1105.94,188.54z"/>
		<path fill="#FFFFFF" d="M1128.62,194.21h-5.08v-19.32h5.08v2.64c0.72-0.91,1.64-1.65,2.76-2.24c1.12-0.59,2.25-0.88,3.4-0.88v4.96
			c-0.35-0.08-0.81-0.12-1.4-0.12c-0.85,0-1.76,0.21-2.72,0.64c-0.96,0.43-1.64,0.95-2.04,1.56V194.21z"/>
		<path fill="#FFFFFF" d="M1144.9,194.69c-1.68,0-3.29-0.27-4.82-0.8s-2.81-1.27-3.82-2.2l2.2-3.56c0.75,0.69,1.76,1.31,3.04,1.84
			c1.28,0.53,2.49,0.8,3.64,0.8c1.07,0,1.87-0.19,2.42-0.56c0.55-0.37,0.82-0.88,0.82-1.52c0-0.48-0.29-0.87-0.86-1.18
			c-0.57-0.31-1.28-0.53-2.12-0.66c-0.84-0.13-1.76-0.33-2.76-0.6s-1.92-0.59-2.76-0.96c-0.84-0.37-1.55-0.97-2.12-1.78
			c-0.57-0.81-0.86-1.82-0.86-3.02c0-1.71,0.71-3.15,2.12-4.32c1.41-1.17,3.35-1.76,5.8-1.76c2.99,0,5.59,0.88,7.8,2.64l-2.04,3.48
			c-0.61-0.64-1.43-1.17-2.46-1.6c-1.03-0.43-2.11-0.64-3.26-0.64c-0.91,0-1.64,0.18-2.2,0.54s-0.84,0.82-0.84,1.38
			c0,0.43,0.28,0.78,0.84,1.06c0.56,0.28,1.27,0.49,2.12,0.62c0.85,0.13,1.77,0.34,2.76,0.62s1.91,0.61,2.76,1
			c0.85,0.39,1.56,1.01,2.12,1.86c0.56,0.85,0.84,1.89,0.84,3.12c0,1.81-0.74,3.3-2.22,4.46
			C1149.56,194.11,1147.52,194.69,1144.9,194.69z"/>
		<path fill="#FFFFFF" d="M1163.1,192.25c0,1.47-0.37,2.85-1.12,4.14c-0.75,1.29-1.75,2.39-3,3.3l-2.2-1.8
			c0.67-0.35,1.31-0.89,1.92-1.62c0.61-0.73,1-1.45,1.16-2.14c-0.24,0.08-0.49,0.12-0.76,0.12c-0.77,0-1.42-0.27-1.94-0.8
			c-0.52-0.53-0.78-1.23-0.78-2.08c0-0.88,0.31-1.63,0.92-2.26c0.61-0.63,1.35-0.94,2.2-0.94c0.99,0,1.83,0.37,2.54,1.1
			C1162.75,190,1163.1,190.99,1163.1,192.25z"/>
		<path fill="#FFFFFF" d="M1179.98,172.8c-0.83,0-1.54-0.3-2.14-0.9c-0.6-0.6-0.9-1.31-0.9-2.14c0-0.83,0.3-1.53,0.9-2.12
			c0.6-0.59,1.31-0.88,2.14-0.88c0.85,0,1.57,0.29,2.16,0.88c0.59,0.59,0.88,1.29,0.88,2.12c0,0.83-0.29,1.54-0.88,2.14
			C1181.55,172.5,1180.84,172.8,1179.98,172.8z M1182.54,194.21h-5.08v-19.32h5.08V194.21z"/>
		<path fill="#FFFFFF" d="M1205.7,194.21h-5.08v-11.68c0-2.4-1.19-3.6-3.56-3.6c-1.84,0-3.31,0.76-4.4,2.28v13h-5.08v-19.32h5.08
			v2.52c1.68-2,3.93-3,6.76-3c2.08,0,3.65,0.55,4.7,1.64c1.05,1.09,1.58,2.6,1.58,4.52V194.21z"/>
		<path fill="#FFFFFF" d="M1219.74,194.69c-2.99,0-5.44-0.95-7.36-2.84c-1.92-1.89-2.88-4.33-2.88-7.32c0-2.96,0.96-5.39,2.88-7.28
			s4.37-2.84,7.36-2.84c3.41,0,5.96,1.16,7.64,3.48l-3.32,3.12c-0.93-1.39-2.29-2.08-4.08-2.08c-1.55,0-2.81,0.51-3.78,1.54
			c-0.97,1.03-1.46,2.38-1.46,4.06c0,1.68,0.49,3.04,1.46,4.08c0.97,1.04,2.23,1.56,3.78,1.56c1.73,0,3.09-0.69,4.08-2.08l3.32,3.08
			C1225.7,193.51,1223.15,194.69,1219.74,194.69z"/>
		<path fill="#FFFFFF" d="M1235.78,194.21h-5.08v-26.68h5.08V194.21z"/>
		<path fill="#FFFFFF" d="M1258.94,194.21h-5.08v-2.44c-1.73,1.95-4,2.92-6.8,2.92c-2.08,0-3.64-0.53-4.68-1.6
			c-1.04-1.07-1.56-2.56-1.56-4.48v-13.72h5.08v11.72c0,2.37,1.19,3.56,3.56,3.56c1.79,0,3.25-0.73,4.4-2.2v-13.08h5.08V194.21z"/>
		<path fill="#FFFFFF" d="M1282.38,194.21h-5.12v-2.48c-1.57,1.97-3.56,2.96-5.96,2.96c-2.51,0-4.56-0.9-6.16-2.7
			c-1.6-1.8-2.4-4.27-2.4-7.42c0-3.09,0.8-5.56,2.4-7.4c1.6-1.84,3.65-2.76,6.16-2.76c2.45,0,4.44,0.99,5.96,2.96v-9.84h5.12V194.21
			z M1272.86,190.17c0.85,0,1.69-0.21,2.52-0.62c0.83-0.41,1.45-0.94,1.88-1.58v-6.84c-0.43-0.64-1.05-1.17-1.88-1.58
			c-0.83-0.41-1.67-0.62-2.52-0.62c-1.44,0-2.62,0.52-3.52,1.56s-1.36,2.4-1.36,4.08c0,1.65,0.45,3,1.36,4.04
			S1271.42,190.17,1272.86,190.17z"/>
		<path fill="#FFFFFF" d="M1289.94,172.8c-0.83,0-1.54-0.3-2.14-0.9c-0.6-0.6-0.9-1.31-0.9-2.14c0-0.83,0.3-1.53,0.9-2.12
			c0.6-0.59,1.31-0.88,2.14-0.88c0.85,0,1.57,0.29,2.16,0.88c0.59,0.59,0.88,1.29,0.88,2.12c0,0.83-0.29,1.54-0.88,2.14
			C1291.51,172.5,1290.79,172.8,1289.94,172.8z M1292.5,194.21h-5.08v-19.32h5.08V194.21z"/>
		<path fill="#FFFFFF" d="M1315.66,194.21h-5.08v-11.68c0-2.4-1.19-3.6-3.56-3.6c-1.84,0-3.31,0.76-4.4,2.28v13h-5.08v-19.32h5.08
			v2.52c1.68-2,3.93-3,6.76-3c2.08,0,3.65,0.55,4.7,1.64c1.05,1.09,1.58,2.6,1.58,4.52V194.21z"/>
		<path fill="#FFFFFF" d="M1328.62,202.04c-3.33,0-6.11-0.96-8.32-2.88l2.28-3.68c1.44,1.6,3.45,2.4,6.04,2.4
			c1.44,0,2.69-0.38,3.74-1.14s1.58-2.01,1.58-3.74v-1.96c-1.6,2.03-3.59,3.04-5.96,3.04c-2.51,0-4.55-0.86-6.14-2.58
			c-1.59-1.72-2.38-4.14-2.38-7.26c0-3.09,0.79-5.51,2.38-7.24c1.59-1.73,3.63-2.6,6.14-2.6c2.4,0,4.39,0.99,5.96,2.96v-2.48h5.12
			v18c0,1.76-0.31,3.27-0.94,4.52c-0.63,1.25-1.47,2.2-2.54,2.84c-1.07,0.64-2.17,1.1-3.3,1.38S1329.93,202.04,1328.62,202.04z
			 M1329.58,189.57c0.83,0,1.65-0.21,2.48-0.64c0.83-0.43,1.45-0.95,1.88-1.56v-6.24c-0.43-0.64-1.05-1.17-1.86-1.58
			c-0.81-0.41-1.65-0.62-2.5-0.62c-1.47,0-2.65,0.48-3.54,1.44c-0.89,0.96-1.34,2.25-1.34,3.88c0,1.63,0.45,2.92,1.34,3.88
			C1326.93,189.08,1328.11,189.57,1329.58,189.57z"/>
		<path fill="#FFFFFF" d="M1348.98,193.69c-0.64,0.64-1.4,0.96-2.28,0.96s-1.64-0.32-2.28-0.96c-0.64-0.64-0.96-1.4-0.96-2.28
			s0.32-1.64,0.96-2.28c0.64-0.64,1.4-0.96,2.28-0.96s1.64,0.32,2.28,0.96c0.64,0.64,0.96,1.4,0.96,2.28
			S1349.62,193.04,1348.98,193.69z"/>
		<path fill="#FFFFFF" d="M1359.22,193.69c-0.64,0.64-1.4,0.96-2.28,0.96s-1.64-0.32-2.28-0.96c-0.64-0.64-0.96-1.4-0.96-2.28
			s0.32-1.64,0.96-2.28c0.64-0.64,1.4-0.96,2.28-0.96s1.64,0.32,2.28,0.96c0.64,0.64,0.96,1.4,0.96,2.28
			S1359.86,193.04,1359.22,193.69z"/>
		<path fill="#FFFFFF" d="M1369.46,193.69c-0.64,0.64-1.4,0.96-2.28,0.96s-1.64-0.32-2.28-0.96c-0.64-0.64-0.96-1.4-0.96-2.28
			s0.32-1.64,0.96-2.28c0.64-0.64,1.4-0.96,2.28-0.96s1.64,0.32,2.28,0.96c0.64,0.64,0.96,1.4,0.96,2.28
			S1370.1,193.04,1369.46,193.69z"/>
	</g>
</g>
</svg>
