<?xml version="1.0" encoding="utf-8"?>
<!-- Generator: Adobe Illustrator 24.0.1, SVG Export Plug-In . SVG Version: 6.00 Build 0)  -->
<svg version="1.1" id="Слой_1" xmlns="http://www.w3.org/2000/svg" xmlns:xlink="http://www.w3.org/1999/xlink" x="0px" y="0px"
	 viewBox="0 0 416 339" enable-background="new 0 0 416 339" xml:space="preserve">
<g>
	<g>
		<g>
			<defs>
				<rect id="SVGID_1_" x="16.91" y="13.62" width="405.33" height="335.77"/>
			</defs>
			<clipPath id="SVGID_2_">
				<use xlink:href="#SVGID_1_"  overflow="visible"/>
			</clipPath>
			<g transform="matrix(1 0 0 1 0 0)" clip-path="url(#SVGID_2_)">
				
					<image overflow="visible" width="406" height="336" xlink:href="54EC9092.png"  transform="matrix(0.9983 0 0 0.9993 16.9116 13.6202)">
				</image>
			</g>
		</g>
		<path fill-rule="evenodd" clip-rule="evenodd" fill="#00692E" d="M194.02,303.65c6.44,0.51,12.97,0.77,19.58,0.77
			c105.12,0,190.46-65.53,190.46-146.24c0-80.71-85.34-146.23-190.46-146.23c-105.11,0-190.45,65.52-190.45,146.23
			c0,22.3,3.57,50.49,15.22,69.41c21.89,42.23,72.87,91.26,175.24,100.3C213.6,327.89,201.64,317.69,194.02,303.65z"/>
	</g>
	<g>
		<path fill="#FFFFFF" d="M69.92,131.67h-1.87v-9.02h-3.23V121h8.34v1.65h-3.23V131.67z"/>
		<path fill="#FFFFFF" d="M81.6,131.67h-1.68v-4.86c0-0.57-0.14-0.97-0.41-1.21c-0.27-0.24-0.66-0.36-1.16-0.36
			c-0.39,0-0.77,0.1-1.12,0.3c-0.35,0.2-0.64,0.45-0.86,0.74v5.39h-1.68V121h1.68v4c0.29-0.34,0.67-0.63,1.16-0.88
			c0.48-0.25,1.01-0.37,1.58-0.37c1.66,0,2.5,0.82,2.5,2.45V131.67z"/>
		<path fill="#FFFFFF" d="M87.35,131.86c-1.17,0-2.14-0.38-2.9-1.13c-0.76-0.75-1.14-1.73-1.14-2.94c0-1.13,0.37-2.09,1.11-2.87
			c0.74-0.78,1.68-1.18,2.81-1.18c1.14,0,2.06,0.39,2.76,1.18c0.7,0.79,1.05,1.8,1.05,3.02v0.4h-5.97c0.06,0.61,0.31,1.11,0.75,1.52
			c0.44,0.41,1.01,0.61,1.71,0.61c0.39,0,0.79-0.08,1.19-0.22s0.73-0.36,1-0.62l0.77,1.1C89.71,131.49,88.66,131.86,87.35,131.86z
			 M89.4,127.17c-0.02-0.53-0.22-1.01-0.58-1.42c-0.37-0.42-0.9-0.62-1.59-0.62c-0.66,0-1.18,0.21-1.55,0.62
			c-0.37,0.41-0.58,0.89-0.62,1.43H89.4z"/>
		<path fill="#FFFFFF" d="M99.44,131.86c-1.39,0-2.49-0.4-3.31-1.2l0.77-1.22c0.29,0.3,0.68,0.55,1.17,0.77
			c0.49,0.21,0.98,0.32,1.46,0.32c0.49,0,0.87-0.1,1.13-0.29c0.26-0.19,0.39-0.44,0.39-0.75c0-0.28-0.16-0.49-0.48-0.65
			c-0.32-0.15-0.71-0.28-1.17-0.37c-0.46-0.09-0.92-0.2-1.38-0.34c-0.46-0.13-0.85-0.37-1.17-0.71c-0.32-0.34-0.48-0.78-0.48-1.33
			c0-0.66,0.27-1.22,0.82-1.67c0.54-0.45,1.29-0.68,2.22-0.68c1.18,0,2.19,0.36,3.01,1.09l-0.7,1.18c-0.25-0.28-0.57-0.5-0.98-0.67
			c-0.41-0.17-0.84-0.26-1.31-0.26c-0.44,0-0.79,0.09-1.05,0.26c-0.26,0.18-0.39,0.4-0.39,0.68c0,0.21,0.11,0.39,0.34,0.52
			c0.23,0.13,0.52,0.23,0.86,0.3c0.35,0.06,0.72,0.15,1.13,0.26c0.41,0.11,0.78,0.24,1.13,0.39s0.63,0.39,0.86,0.73
			c0.23,0.34,0.34,0.74,0.34,1.22c0,0.7-0.28,1.28-0.85,1.73C101.25,131.64,100.46,131.86,99.44,131.86z"/>
		<path fill="#FFFFFF" d="M107.92,131.86c-1.17,0-2.14-0.38-2.9-1.13c-0.76-0.75-1.14-1.73-1.14-2.94c0-1.13,0.37-2.09,1.11-2.87
			c0.74-0.78,1.68-1.18,2.81-1.18c1.14,0,2.06,0.39,2.76,1.18c0.7,0.79,1.05,1.8,1.05,3.02v0.4h-5.97c0.06,0.61,0.31,1.11,0.75,1.52
			c0.44,0.41,1.01,0.61,1.71,0.61c0.39,0,0.79-0.08,1.19-0.22s0.73-0.36,1-0.62l0.77,1.1C110.28,131.49,109.24,131.86,107.92,131.86
			z M109.97,127.17c-0.02-0.53-0.22-1.01-0.58-1.42c-0.37-0.42-0.9-0.62-1.59-0.62c-0.66,0-1.18,0.21-1.55,0.62
			c-0.37,0.41-0.58,0.89-0.62,1.43H109.97z"/>
		<path fill="#FFFFFF" d="M114.95,131.67h-1.68v-7.73h1.68v1.14c0.3-0.38,0.67-0.7,1.12-0.94c0.45-0.25,0.91-0.37,1.39-0.37v1.66
			c-0.15-0.03-0.33-0.05-0.53-0.05c-0.35,0-0.73,0.1-1.13,0.31s-0.69,0.45-0.86,0.71V131.67z"/>
		<path fill="#FFFFFF" d="M122.66,131.67h-1.81l-3.15-7.73h1.79l2.26,5.79l2.26-5.79h1.81L122.66,131.67z"/>
		<path fill="#FFFFFF" d="M127.7,123c-0.28,0-0.52-0.1-0.73-0.3c-0.21-0.2-0.31-0.45-0.31-0.74s0.1-0.53,0.31-0.74
			c0.21-0.2,0.45-0.3,0.73-0.3c0.29,0,0.53,0.1,0.74,0.3c0.2,0.2,0.3,0.45,0.3,0.74s-0.1,0.53-0.3,0.74
			C128.23,122.9,127.99,123,127.7,123z M128.55,131.67h-1.68v-7.73h1.68V131.67z"/>
		<path fill="#FFFFFF" d="M134.24,131.86c-1.17,0-2.13-0.38-2.88-1.14s-1.12-1.74-1.12-2.92c0-1.17,0.37-2.14,1.12-2.9
			c0.75-0.76,1.71-1.14,2.88-1.14c1.29,0,2.28,0.46,2.96,1.38l-1.1,1.02c-0.43-0.61-1.02-0.91-1.78-0.91c-0.7,0-1.27,0.24-1.7,0.71
			c-0.43,0.47-0.64,1.09-0.64,1.85c0,0.76,0.21,1.38,0.64,1.86c0.43,0.48,0.99,0.72,1.7,0.72c0.74,0,1.33-0.3,1.78-0.91l1.1,1.02
			C136.52,131.4,135.53,131.86,134.24,131.86z"/>
		<path fill="#FFFFFF" d="M142.24,131.86c-1.17,0-2.14-0.38-2.9-1.13c-0.76-0.75-1.14-1.73-1.14-2.94c0-1.13,0.37-2.09,1.11-2.87
			c0.74-0.78,1.68-1.18,2.81-1.18c1.14,0,2.06,0.39,2.76,1.18c0.7,0.79,1.05,1.8,1.05,3.02v0.4h-5.97c0.06,0.61,0.31,1.11,0.75,1.52
			c0.44,0.41,1.01,0.61,1.71,0.61c0.39,0,0.79-0.08,1.19-0.22s0.73-0.36,1-0.62l0.77,1.1C144.6,131.49,143.56,131.86,142.24,131.86z
			 M144.29,127.17c-0.02-0.53-0.22-1.01-0.58-1.42c-0.37-0.42-0.9-0.62-1.59-0.62c-0.66,0-1.18,0.21-1.55,0.62
			c-0.37,0.41-0.58,0.89-0.62,1.43H144.29z"/>
		<path fill="#FFFFFF" d="M153.62,131.67h-1.87V121h1.87V131.67z"/>
		<path fill="#FFFFFF" d="M166.87,131.67h-1.68v-4.86c0-0.57-0.14-0.97-0.41-1.21c-0.27-0.24-0.66-0.36-1.16-0.36
			c-0.39,0-0.77,0.1-1.12,0.3c-0.35,0.2-0.64,0.45-0.86,0.74v5.39h-1.68V121h1.68v4c0.29-0.34,0.67-0.63,1.16-0.88
			c0.48-0.25,1.01-0.37,1.58-0.37c1.66,0,2.5,0.82,2.5,2.45V131.67z"/>
		<path fill="#FFFFFF" d="M175.44,131.67h-1.68v-0.83c-0.6,0.68-1.43,1.02-2.5,1.02c-0.7,0-1.33-0.23-1.87-0.68
			c-0.54-0.45-0.82-1.08-0.82-1.88c0-0.82,0.27-1.45,0.81-1.87c0.54-0.43,1.17-0.64,1.88-0.64c1.1,0,1.93,0.33,2.5,0.99v-1.15
			c0-0.45-0.17-0.8-0.5-1.06s-0.77-0.38-1.31-0.38c-0.86,0-1.63,0.33-2.29,0.98l-0.69-1.17c0.87-0.83,1.96-1.25,3.25-1.25
			c0.95,0,1.72,0.22,2.32,0.67c0.6,0.45,0.9,1.16,0.9,2.13V131.67z M171.92,130.71c0.84,0,1.46-0.27,1.84-0.8v-1.17
			c-0.38-0.53-1-0.8-1.84-0.8c-0.48,0-0.87,0.13-1.18,0.38c-0.31,0.26-0.46,0.59-0.46,1.01s0.15,0.75,0.46,1
			C171.05,130.59,171.44,130.71,171.92,130.71z"/>
		<path fill="#FFFFFF" d="M181.46,131.67h-1.81l-3.15-7.73h1.79l2.26,5.79l2.26-5.79h1.81L181.46,131.67z"/>
		<path fill="#FFFFFF" d="M189.23,131.86c-1.17,0-2.14-0.38-2.9-1.13c-0.76-0.75-1.14-1.73-1.14-2.94c0-1.13,0.37-2.09,1.11-2.87
			c0.74-0.78,1.68-1.18,2.81-1.18c1.14,0,2.06,0.39,2.76,1.18c0.7,0.79,1.05,1.8,1.05,3.02v0.4h-5.97c0.06,0.61,0.31,1.11,0.75,1.52
			c0.44,0.41,1.01,0.61,1.71,0.61c0.39,0,0.79-0.08,1.19-0.22s0.73-0.36,1-0.62l0.77,1.1C191.59,131.49,190.55,131.86,189.23,131.86
			z M191.28,127.17c-0.02-0.53-0.22-1.01-0.58-1.42c-0.37-0.42-0.9-0.62-1.59-0.62c-0.66,0-1.18,0.21-1.55,0.62
			c-0.37,0.41-0.58,0.89-0.62,1.43H191.28z"/>
		<path fill="#FFFFFF" d="M200.37,131.67h-1.68v-7.73h1.68v1.14c0.3-0.38,0.67-0.7,1.12-0.94c0.45-0.25,0.91-0.37,1.39-0.37v1.66
			c-0.15-0.03-0.33-0.05-0.53-0.05c-0.35,0-0.73,0.1-1.13,0.31s-0.69,0.45-0.86,0.71V131.67z"/>
		<path fill="#FFFFFF" d="M207.81,131.86c-1.17,0-2.14-0.38-2.9-1.13c-0.76-0.75-1.14-1.73-1.14-2.94c0-1.13,0.37-2.09,1.11-2.87
			c0.74-0.78,1.68-1.18,2.81-1.18c1.14,0,2.06,0.39,2.76,1.18c0.7,0.79,1.05,1.8,1.05,3.02v0.4h-5.97c0.06,0.61,0.31,1.11,0.75,1.52
			c0.44,0.41,1.01,0.61,1.71,0.61c0.39,0,0.79-0.08,1.19-0.22c0.4-0.15,0.73-0.36,1-0.62l0.77,1.1
			C210.17,131.49,209.12,131.86,207.81,131.86z M209.86,127.17c-0.02-0.53-0.22-1.01-0.58-1.42s-0.9-0.62-1.59-0.62
			c-0.66,0-1.18,0.21-1.55,0.62c-0.37,0.41-0.58,0.89-0.62,1.43H209.86z"/>
		<path fill="#FFFFFF" d="M216.67,131.86c-1.17,0-2.13-0.38-2.88-1.14s-1.12-1.74-1.12-2.92c0-1.17,0.37-2.14,1.12-2.9
			c0.75-0.76,1.71-1.14,2.88-1.14c1.29,0,2.28,0.46,2.96,1.38l-1.1,1.02c-0.43-0.61-1.02-0.91-1.78-0.91c-0.7,0-1.27,0.24-1.7,0.71
			c-0.43,0.47-0.64,1.09-0.64,1.85c0,0.76,0.21,1.38,0.64,1.86c0.43,0.48,0.99,0.72,1.7,0.72c0.74,0,1.33-0.3,1.78-0.91l1.1,1.02
			C218.95,131.4,217.96,131.86,216.67,131.86z"/>
		<path fill="#FFFFFF" d="M224.67,131.86c-1.17,0-2.14-0.38-2.9-1.13c-0.76-0.75-1.14-1.73-1.14-2.94c0-1.13,0.37-2.09,1.11-2.87
			c0.74-0.78,1.68-1.18,2.81-1.18c1.14,0,2.06,0.39,2.76,1.18c0.7,0.79,1.05,1.8,1.05,3.02v0.4h-5.97c0.06,0.61,0.31,1.11,0.75,1.52
			c0.44,0.41,1.01,0.61,1.71,0.61c0.39,0,0.79-0.08,1.19-0.22s0.73-0.36,1-0.62l0.77,1.1C227.03,131.49,225.99,131.86,224.67,131.86
			z M226.72,127.17c-0.02-0.53-0.22-1.01-0.58-1.42c-0.37-0.42-0.9-0.62-1.59-0.62c-0.66,0-1.18,0.21-1.55,0.62
			c-0.37,0.41-0.58,0.89-0.62,1.43H226.72z"/>
		<path fill="#FFFFFF" d="M230.85,123c-0.28,0-0.52-0.1-0.73-0.3c-0.21-0.2-0.31-0.45-0.31-0.74s0.1-0.53,0.31-0.74
			c0.21-0.2,0.45-0.3,0.73-0.3c0.29,0,0.53,0.1,0.74,0.3c0.2,0.2,0.3,0.45,0.3,0.74s-0.1,0.53-0.3,0.74
			C231.38,122.9,231.14,123,230.85,123z M231.7,131.67h-1.68v-7.73h1.68V131.67z"/>
		<path fill="#FFFFFF" d="M237.71,131.67h-1.81l-3.15-7.73h1.79l2.26,5.79l2.26-5.79h1.81L237.71,131.67z"/>
		<path fill="#FFFFFF" d="M245.49,131.86c-1.17,0-2.14-0.38-2.9-1.13c-0.76-0.75-1.14-1.73-1.14-2.94c0-1.13,0.37-2.09,1.11-2.87
			s1.68-1.18,2.81-1.18c1.14,0,2.06,0.39,2.76,1.18c0.7,0.79,1.05,1.8,1.05,3.02v0.4h-5.97c0.06,0.61,0.31,1.11,0.75,1.52
			s1.01,0.61,1.71,0.61c0.39,0,0.79-0.08,1.19-0.22s0.73-0.36,1-0.62l0.77,1.1C247.85,131.49,246.8,131.86,245.49,131.86z
			 M247.54,127.17c-0.02-0.53-0.22-1.01-0.58-1.42c-0.37-0.42-0.9-0.62-1.59-0.62c-0.66,0-1.18,0.21-1.55,0.62
			c-0.37,0.41-0.58,0.89-0.62,1.43H247.54z"/>
		<path fill="#FFFFFF" d="M257.95,131.67h-1.68v-1.06c-0.64,0.83-1.47,1.25-2.48,1.25c-1.01,0-1.84-0.36-2.48-1.09
			c-0.64-0.72-0.96-1.71-0.96-2.96c0-1.24,0.32-2.22,0.96-2.96c0.64-0.74,1.47-1.1,2.48-1.1c1.01,0,1.84,0.42,2.48,1.26V121h1.68
			V131.67z M254.27,130.37c0.39,0,0.78-0.1,1.15-0.29s0.66-0.44,0.85-0.74v-3.07c-0.19-0.3-0.47-0.55-0.85-0.74s-0.76-0.3-1.15-0.3
			c-0.66,0-1.19,0.24-1.58,0.72c-0.39,0.48-0.59,1.1-0.59,1.86c0,0.76,0.2,1.37,0.59,1.85S253.61,130.37,254.27,130.37z"/>
		<path fill="#FFFFFF" d="M271.14,131.67h-1.68v-4.86c0-0.57-0.13-0.97-0.41-1.21c-0.27-0.24-0.66-0.36-1.16-0.36
			c-0.39,0-0.77,0.1-1.12,0.3c-0.35,0.2-0.64,0.45-0.86,0.74v5.39h-1.68V121h1.68v4c0.29-0.34,0.67-0.63,1.16-0.88
			c0.48-0.25,1.01-0.37,1.58-0.37c1.66,0,2.5,0.82,2.5,2.45V131.67z"/>
		<path fill="#FFFFFF" d="M279.71,131.67h-1.68v-0.83c-0.6,0.68-1.43,1.02-2.5,1.02c-0.7,0-1.33-0.23-1.87-0.68
			c-0.54-0.45-0.82-1.08-0.82-1.88c0-0.82,0.27-1.45,0.81-1.87c0.54-0.43,1.16-0.64,1.88-0.64c1.1,0,1.93,0.33,2.5,0.99v-1.15
			c0-0.45-0.17-0.8-0.5-1.06c-0.33-0.26-0.77-0.38-1.31-0.38c-0.86,0-1.63,0.33-2.29,0.98l-0.69-1.17c0.87-0.83,1.96-1.25,3.25-1.25
			c0.95,0,1.72,0.22,2.32,0.67c0.6,0.45,0.9,1.16,0.9,2.13V131.67z M276.19,130.71c0.84,0,1.46-0.27,1.84-0.8v-1.17
			c-0.38-0.53-1-0.8-1.84-0.8c-0.48,0-0.88,0.13-1.18,0.38c-0.31,0.26-0.46,0.59-0.46,1.01s0.16,0.75,0.46,1
			C275.32,130.59,275.71,130.71,276.19,130.71z"/>
		<path fill="#FFFFFF" d="M284.53,131.86c-1.39,0-2.49-0.4-3.31-1.2l0.77-1.22c0.29,0.3,0.68,0.55,1.17,0.77
			c0.49,0.21,0.98,0.32,1.46,0.32c0.49,0,0.87-0.1,1.13-0.29c0.26-0.19,0.39-0.44,0.39-0.75c0-0.28-0.16-0.49-0.48-0.65
			c-0.32-0.15-0.71-0.28-1.17-0.37c-0.46-0.09-0.92-0.2-1.38-0.34c-0.46-0.13-0.85-0.37-1.17-0.71c-0.32-0.34-0.48-0.78-0.48-1.33
			c0-0.66,0.27-1.22,0.82-1.67c0.54-0.45,1.29-0.68,2.22-0.68c1.18,0,2.19,0.36,3.01,1.09l-0.71,1.18c-0.25-0.28-0.57-0.5-0.98-0.67
			c-0.41-0.17-0.84-0.26-1.31-0.26c-0.44,0-0.79,0.09-1.05,0.26c-0.26,0.18-0.39,0.4-0.39,0.68c0,0.21,0.11,0.39,0.34,0.52
			c0.23,0.13,0.52,0.23,0.86,0.3c0.35,0.06,0.72,0.15,1.13,0.26c0.41,0.11,0.78,0.24,1.13,0.39s0.63,0.39,0.86,0.73
			s0.34,0.74,0.34,1.22c0,0.7-0.28,1.28-0.85,1.73C286.33,131.64,285.54,131.86,284.53,131.86z"/>
		<path fill="#FFFFFF" d="M295.23,131.67h-1.68V121h1.68v4.02c0.63-0.84,1.46-1.26,2.48-1.26c1,0,1.82,0.37,2.46,1.11
			c0.64,0.74,0.96,1.73,0.96,2.95c0,1.25-0.32,2.24-0.96,2.96c-0.64,0.73-1.46,1.09-2.46,1.09c-1.01,0-1.84-0.42-2.48-1.25V131.67z
			 M295.23,129.35c0.18,0.29,0.46,0.53,0.84,0.73s0.76,0.3,1.14,0.3c0.66,0,1.19-0.24,1.59-0.71c0.4-0.47,0.6-1.09,0.6-1.85
			c0-0.76-0.2-1.38-0.6-1.86c-0.4-0.48-0.93-0.72-1.59-0.72c-0.38,0-0.76,0.1-1.13,0.3c-0.37,0.2-0.66,0.45-0.85,0.75V129.35z"/>
		<path fill="#FFFFFF" d="M306.42,131.86c-1.17,0-2.14-0.38-2.9-1.13c-0.76-0.75-1.14-1.73-1.14-2.94c0-1.13,0.37-2.09,1.11-2.87
			s1.68-1.18,2.81-1.18c1.14,0,2.06,0.39,2.76,1.18c0.7,0.79,1.05,1.8,1.05,3.02v0.4h-5.97c0.06,0.61,0.31,1.11,0.75,1.52
			s1.01,0.61,1.71,0.61c0.39,0,0.79-0.08,1.19-0.22s0.73-0.36,1-0.62l0.77,1.1C308.77,131.49,307.73,131.86,306.42,131.86z
			 M308.46,127.17c-0.02-0.53-0.22-1.01-0.58-1.42c-0.37-0.42-0.9-0.62-1.59-0.62c-0.66,0-1.18,0.21-1.55,0.62
			c-0.37,0.41-0.58,0.89-0.62,1.43H308.46z"/>
		<path fill="#FFFFFF" d="M315.33,131.86c-1.17,0-2.14-0.38-2.9-1.13c-0.76-0.75-1.14-1.73-1.14-2.94c0-1.13,0.37-2.09,1.11-2.87
			c0.74-0.78,1.68-1.18,2.81-1.18c1.14,0,2.06,0.39,2.76,1.18c0.7,0.79,1.05,1.8,1.05,3.02v0.4h-5.97c0.06,0.61,0.31,1.11,0.75,1.52
			s1.01,0.61,1.71,0.61c0.39,0,0.79-0.08,1.19-0.22c0.4-0.15,0.73-0.36,1-0.62l0.77,1.1C317.69,131.49,316.64,131.86,315.33,131.86z
			 M317.38,127.17c-0.02-0.53-0.22-1.01-0.58-1.42c-0.37-0.42-0.9-0.62-1.59-0.62c-0.66,0-1.18,0.21-1.55,0.62
			c-0.37,0.41-0.58,0.89-0.62,1.43H317.38z"/>
		<path fill="#FFFFFF" d="M327.57,131.67h-1.68v-4.83c0-1.07-0.52-1.6-1.55-1.6c-0.4,0-0.78,0.1-1.13,0.3
			c-0.35,0.2-0.63,0.45-0.85,0.74v5.39h-1.68v-7.73h1.68V125c0.29-0.34,0.67-0.63,1.15-0.88c0.48-0.25,1-0.37,1.57-0.37
			c0.82,0,1.44,0.21,1.86,0.64c0.42,0.43,0.63,1.04,0.63,1.84V131.67z"/>
		<path fill="#FFFFFF" d="M337.7,131.67h-1.81l-3.15-7.73h1.79l2.26,5.79l2.26-5.79h1.81L337.7,131.67z"/>
		<path fill="#FFFFFF" d="M345.47,131.86c-1.17,0-2.14-0.38-2.9-1.13c-0.76-0.75-1.14-1.73-1.14-2.94c0-1.13,0.37-2.09,1.11-2.87
			c0.74-0.78,1.68-1.18,2.81-1.18c1.14,0,2.06,0.39,2.76,1.18c0.7,0.79,1.05,1.8,1.05,3.02v0.4h-5.97c0.06,0.61,0.31,1.11,0.75,1.52
			c0.44,0.41,1.01,0.61,1.71,0.61c0.39,0,0.79-0.08,1.19-0.22c0.4-0.15,0.73-0.36,1-0.62l0.77,1.1
			C347.83,131.49,346.78,131.86,345.47,131.86z M347.52,127.17c-0.02-0.53-0.22-1.01-0.58-1.42s-0.9-0.62-1.59-0.62
			c-0.66,0-1.18,0.21-1.55,0.62c-0.37,0.41-0.58,0.89-0.63,1.43H347.52z"/>
		<path fill="#FFFFFF" d="M352.5,131.67h-1.68v-7.73h1.68v1.14c0.3-0.38,0.67-0.7,1.12-0.94c0.45-0.25,0.91-0.37,1.39-0.37v1.66
			c-0.15-0.03-0.33-0.05-0.53-0.05c-0.35,0-0.73,0.1-1.13,0.31c-0.4,0.21-0.69,0.45-0.86,0.71V131.67z"/>
		<path fill="#FFFFFF" d="M356.03,134.69l0.26-1.5c0.19,0.09,0.41,0.13,0.64,0.13c0.54,0,0.91-0.22,1.1-0.67l0.38-0.88l-3.17-7.82
			h1.79l2.26,5.79l2.26-5.79h1.81l-3.73,9.12c-0.46,1.14-1.34,1.72-2.66,1.74C356.62,134.81,356.31,134.77,356.03,134.69z"/>
	</g>
	<g>
		<path fill="#FFFFFF" d="M72.84,164.86c-1.02,0-1.85-0.42-2.48-1.26v4.02h-1.68v-10.67h1.68V158c0.62-0.83,1.45-1.25,2.48-1.25
			c1.01,0,1.84,0.36,2.47,1.09c0.63,0.73,0.95,1.71,0.95,2.96s-0.32,2.24-0.95,2.97C74.68,164.5,73.85,164.86,72.84,164.86z
			 M72.34,163.37c0.66,0,1.19-0.24,1.58-0.72c0.39-0.48,0.59-1.1,0.59-1.86c0-0.76-0.2-1.37-0.59-1.85s-0.92-0.71-1.58-0.71
			c-0.38,0-0.76,0.1-1.14,0.3c-0.37,0.2-0.66,0.45-0.85,0.74v3.06c0.19,0.29,0.47,0.53,0.85,0.74
			C71.58,163.27,71.96,163.37,72.34,163.37z"/>
		<path fill="#FFFFFF" d="M79.61,164.67h-1.68v-7.73h1.68v1.14c0.3-0.38,0.67-0.7,1.12-0.94c0.45-0.25,0.91-0.37,1.39-0.37v1.66
			c-0.15-0.03-0.33-0.05-0.53-0.05c-0.35,0-0.73,0.1-1.13,0.31s-0.69,0.45-0.86,0.71V164.67z"/>
		<path fill="#FFFFFF" d="M86.97,164.86c-1.19,0-2.15-0.39-2.88-1.18c-0.73-0.78-1.09-1.75-1.09-2.89s0.36-2.1,1.09-2.88
			c0.73-0.78,1.69-1.17,2.88-1.17c1.21,0,2.17,0.39,2.9,1.17c0.73,0.78,1.09,1.74,1.09,2.88c0,1.15-0.36,2.12-1.09,2.9
			C89.14,164.47,88.17,164.86,86.97,164.86z M86.97,163.37c0.69,0,1.24-0.25,1.64-0.74c0.4-0.5,0.6-1.11,0.6-1.83
			c0-0.71-0.2-1.32-0.6-1.82c-0.4-0.5-0.95-0.74-1.64-0.74c-0.68,0-1.22,0.25-1.62,0.74c-0.4,0.5-0.6,1.1-0.6,1.82
			c0,0.73,0.2,1.34,0.6,1.83C85.74,163.13,86.29,163.37,86.97,163.37z"/>
		<path fill="#FFFFFF" d="M94.73,164.67h-1.68v-6.26h-1.28v-1.47h1.28v-0.43c0-0.83,0.22-1.49,0.66-1.96
			c0.44-0.47,1.04-0.71,1.78-0.71c0.8,0,1.42,0.22,1.86,0.67l-0.66,1.04c-0.25-0.22-0.54-0.34-0.9-0.34c-0.33,0-0.59,0.11-0.78,0.33
			s-0.29,0.54-0.29,0.97v0.43h1.57v1.47h-1.57V164.67z"/>
		<path fill="#FFFFFF" d="M101.14,164.86c-1.17,0-2.14-0.38-2.9-1.13c-0.76-0.75-1.14-1.73-1.14-2.94c0-1.13,0.37-2.09,1.11-2.87
			c0.74-0.78,1.68-1.18,2.81-1.18c1.14,0,2.06,0.39,2.76,1.18c0.7,0.79,1.05,1.8,1.05,3.02v0.4h-5.97c0.06,0.61,0.31,1.11,0.75,1.52
			c0.44,0.41,1.01,0.61,1.71,0.61c0.39,0,0.79-0.08,1.19-0.22s0.73-0.36,1-0.62l0.77,1.1C103.5,164.49,102.46,164.86,101.14,164.86z
			 M103.19,160.17c-0.02-0.53-0.22-1.01-0.58-1.42c-0.37-0.42-0.9-0.62-1.59-0.62c-0.66,0-1.18,0.21-1.55,0.62
			c-0.37,0.41-0.58,0.89-0.62,1.43H103.19z"/>
		<path fill="#FFFFFF" d="M109.13,164.86c-1.39,0-2.49-0.4-3.31-1.2l0.77-1.22c0.29,0.3,0.68,0.55,1.17,0.77
			c0.49,0.21,0.98,0.32,1.46,0.32c0.49,0,0.87-0.1,1.13-0.29c0.26-0.19,0.39-0.44,0.39-0.75c0-0.28-0.16-0.49-0.48-0.65
			c-0.32-0.15-0.71-0.28-1.17-0.37c-0.46-0.09-0.92-0.2-1.38-0.34c-0.46-0.13-0.85-0.37-1.17-0.71c-0.32-0.34-0.48-0.78-0.48-1.33
			c0-0.66,0.27-1.22,0.82-1.67c0.54-0.45,1.29-0.68,2.22-0.68c1.18,0,2.19,0.36,3.01,1.09l-0.7,1.18c-0.25-0.28-0.57-0.5-0.98-0.67
			c-0.41-0.17-0.84-0.26-1.31-0.26c-0.44,0-0.79,0.09-1.05,0.26c-0.26,0.18-0.39,0.4-0.39,0.68c0,0.21,0.11,0.39,0.34,0.52
			c0.23,0.13,0.52,0.23,0.86,0.3c0.35,0.06,0.72,0.15,1.13,0.26c0.41,0.11,0.78,0.24,1.13,0.39s0.63,0.39,0.86,0.73
			c0.23,0.34,0.34,0.74,0.34,1.22c0,0.7-0.28,1.28-0.85,1.73C110.93,164.64,110.14,164.86,109.13,164.86z"/>
		<path fill="#FFFFFF" d="M116.68,164.86c-1.39,0-2.49-0.4-3.31-1.2l0.77-1.22c0.29,0.3,0.68,0.55,1.17,0.77
			c0.49,0.21,0.98,0.32,1.46,0.32c0.49,0,0.87-0.1,1.13-0.29c0.26-0.19,0.39-0.44,0.39-0.75c0-0.28-0.16-0.49-0.48-0.65
			c-0.32-0.15-0.71-0.28-1.17-0.37c-0.46-0.09-0.92-0.2-1.38-0.34c-0.46-0.13-0.85-0.37-1.17-0.71c-0.32-0.34-0.48-0.78-0.48-1.33
			c0-0.66,0.27-1.22,0.82-1.67c0.54-0.45,1.29-0.68,2.22-0.68c1.18,0,2.19,0.36,3.01,1.09l-0.7,1.18c-0.25-0.28-0.57-0.5-0.98-0.67
			c-0.41-0.17-0.84-0.26-1.31-0.26c-0.44,0-0.79,0.09-1.05,0.26c-0.26,0.18-0.39,0.4-0.39,0.68c0,0.21,0.11,0.39,0.34,0.52
			c0.23,0.13,0.52,0.23,0.86,0.3c0.35,0.06,0.72,0.15,1.13,0.26c0.41,0.11,0.78,0.24,1.13,0.39s0.63,0.39,0.86,0.73
			c0.23,0.34,0.34,0.74,0.34,1.22c0,0.7-0.28,1.28-0.85,1.73C118.48,164.64,117.69,164.86,116.68,164.86z"/>
		<path fill="#FFFFFF" d="M122.42,156c-0.28,0-0.52-0.1-0.73-0.3c-0.21-0.2-0.31-0.45-0.31-0.74s0.1-0.53,0.31-0.74
			c0.21-0.2,0.45-0.3,0.73-0.3c0.29,0,0.53,0.1,0.74,0.3c0.2,0.2,0.3,0.45,0.3,0.74s-0.1,0.53-0.3,0.74
			C122.96,155.9,122.71,156,122.42,156z M123.27,164.67h-1.68v-7.73h1.68V164.67z"/>
		<path fill="#FFFFFF" d="M128.94,164.86c-1.19,0-2.15-0.39-2.88-1.18c-0.73-0.78-1.09-1.75-1.09-2.89s0.36-2.1,1.09-2.88
			c0.73-0.78,1.69-1.17,2.88-1.17c1.21,0,2.17,0.39,2.9,1.17c0.73,0.78,1.09,1.74,1.09,2.88c0,1.15-0.36,2.12-1.09,2.9
			C131.11,164.47,130.14,164.86,128.94,164.86z M128.94,163.37c0.69,0,1.24-0.25,1.64-0.74c0.4-0.5,0.6-1.11,0.6-1.83
			c0-0.71-0.2-1.32-0.6-1.82c-0.4-0.5-0.95-0.74-1.64-0.74c-0.68,0-1.22,0.25-1.62,0.74c-0.4,0.5-0.6,1.1-0.6,1.82
			c0,0.73,0.2,1.34,0.6,1.83C127.71,163.13,128.25,163.37,128.94,163.37z"/>
		<path fill="#FFFFFF" d="M141.51,164.67h-1.68v-4.83c0-1.07-0.52-1.6-1.55-1.6c-0.41,0-0.78,0.1-1.14,0.3
			c-0.35,0.2-0.63,0.45-0.85,0.74v5.39h-1.68v-7.73h1.68V158c0.29-0.34,0.67-0.63,1.15-0.88s1-0.37,1.57-0.37
			c0.82,0,1.44,0.21,1.86,0.64c0.42,0.43,0.63,1.04,0.63,1.84V164.67z"/>
		<path fill="#FFFFFF" d="M150.09,164.67h-1.68v-0.83c-0.6,0.68-1.43,1.02-2.5,1.02c-0.7,0-1.33-0.23-1.87-0.68
			c-0.54-0.45-0.82-1.08-0.82-1.88c0-0.82,0.27-1.45,0.81-1.87c0.54-0.43,1.17-0.64,1.88-0.64c1.1,0,1.93,0.33,2.5,0.99v-1.15
			c0-0.45-0.17-0.8-0.5-1.06s-0.77-0.38-1.31-0.38c-0.86,0-1.63,0.33-2.29,0.98l-0.69-1.17c0.87-0.83,1.96-1.25,3.25-1.25
			c0.95,0,1.72,0.22,2.32,0.67c0.6,0.45,0.9,1.16,0.9,2.13V164.67z M146.57,163.71c0.84,0,1.46-0.27,1.84-0.8v-1.17
			c-0.38-0.53-1-0.8-1.84-0.8c-0.48,0-0.87,0.13-1.18,0.38c-0.31,0.26-0.46,0.59-0.46,1.01s0.15,0.75,0.46,1
			C145.69,163.59,146.09,163.71,146.57,163.71z"/>
		<path fill="#FFFFFF" d="M153.94,164.67h-1.68V154h1.68V164.67z"/>
		<path fill="#FFFFFF" d="M168.71,164.67h-1.76l-1.79-5.66l-1.79,5.66h-1.76l-2.4-7.73h1.74l1.63,5.62l1.84-5.62h1.47l1.84,5.62
			l1.63-5.62h1.74L168.71,164.67z"/>
		<path fill="#FFFFFF" d="M179.19,164.67h-1.68v-4.86c0-0.57-0.14-0.97-0.41-1.21c-0.27-0.24-0.66-0.36-1.16-0.36
			c-0.39,0-0.77,0.1-1.12,0.3c-0.35,0.2-0.64,0.45-0.86,0.74v5.39h-1.68V154h1.68v4c0.29-0.34,0.67-0.63,1.16-0.88
			c0.48-0.25,1.01-0.37,1.58-0.37c1.66,0,2.5,0.82,2.5,2.45V164.67z"/>
		<path fill="#FFFFFF" d="M182.2,156c-0.28,0-0.52-0.1-0.73-0.3c-0.21-0.2-0.31-0.45-0.31-0.74s0.1-0.53,0.31-0.74
			c0.21-0.2,0.45-0.3,0.73-0.3c0.29,0,0.53,0.1,0.74,0.3c0.2,0.2,0.3,0.45,0.3,0.74s-0.1,0.53-0.3,0.74
			C182.73,155.9,182.49,156,182.2,156z M183.05,164.67h-1.68v-7.73h1.68V164.67z"/>
		<path fill="#FFFFFF" d="M188.74,164.86c-1.17,0-2.13-0.38-2.88-1.14s-1.12-1.74-1.12-2.92c0-1.17,0.37-2.14,1.12-2.9
			c0.75-0.76,1.71-1.14,2.88-1.14c1.29,0,2.28,0.46,2.96,1.38l-1.1,1.02c-0.43-0.61-1.02-0.91-1.78-0.91c-0.7,0-1.27,0.24-1.7,0.71
			c-0.43,0.47-0.64,1.09-0.64,1.85c0,0.76,0.21,1.38,0.64,1.86c0.43,0.48,0.99,0.72,1.7,0.72c0.74,0,1.33-0.3,1.78-0.91l1.1,1.02
			C191.02,164.4,190.03,164.86,188.74,164.86z"/>
		<path fill="#FFFFFF" d="M200.09,164.67h-1.68v-4.86c0-0.57-0.14-0.97-0.41-1.21c-0.27-0.24-0.66-0.36-1.16-0.36
			c-0.39,0-0.77,0.1-1.12,0.3c-0.35,0.2-0.64,0.45-0.86,0.74v5.39h-1.68V154h1.68v4c0.29-0.34,0.67-0.63,1.16-0.88
			c0.48-0.25,1.01-0.37,1.58-0.37c1.66,0,2.5,0.82,2.5,2.45V164.67z"/>
		<path fill="#FFFFFF" d="M217.51,164.67h-1.68v-5.04c0-0.93-0.42-1.39-1.26-1.39c-0.35,0-0.69,0.1-1.02,0.3
			c-0.33,0.2-0.59,0.44-0.77,0.72v5.41h-1.68v-5.04c0-0.93-0.43-1.39-1.28-1.39c-0.34,0-0.67,0.1-1,0.3
			c-0.33,0.2-0.58,0.45-0.78,0.74v5.39h-1.68v-7.73h1.68V158c0.19-0.29,0.53-0.57,1-0.84c0.47-0.27,0.98-0.41,1.51-0.41
			c1.12,0,1.82,0.47,2.11,1.42c0.25-0.38,0.61-0.72,1.09-1c0.48-0.28,0.99-0.42,1.54-0.42c1.48,0,2.22,0.78,2.22,2.34V164.67z"/>
		<path fill="#FFFFFF" d="M226.09,164.67h-1.68v-0.83c-0.6,0.68-1.43,1.02-2.5,1.02c-0.7,0-1.33-0.23-1.87-0.68
			c-0.54-0.45-0.82-1.08-0.82-1.88c0-0.82,0.27-1.45,0.81-1.87c0.54-0.43,1.17-0.64,1.88-0.64c1.1,0,1.93,0.33,2.5,0.99v-1.15
			c0-0.45-0.17-0.8-0.5-1.06c-0.33-0.26-0.77-0.38-1.31-0.38c-0.86,0-1.63,0.33-2.29,0.98l-0.69-1.17c0.88-0.83,1.96-1.25,3.25-1.25
			c0.95,0,1.72,0.22,2.32,0.67s0.9,1.16,0.9,2.13V164.67z M222.57,163.71c0.84,0,1.46-0.27,1.84-0.8v-1.17
			c-0.38-0.53-1-0.8-1.84-0.8c-0.48,0-0.88,0.13-1.18,0.38c-0.31,0.26-0.46,0.59-0.46,1.01s0.16,0.75,0.46,1
			C221.69,163.59,222.09,163.71,222.57,163.71z"/>
		<path fill="#FFFFFF" d="M235.38,164.67h-1.68v-1.06c-0.64,0.83-1.47,1.25-2.48,1.25c-1.01,0-1.84-0.36-2.48-1.09
			c-0.64-0.72-0.96-1.71-0.96-2.96c0-1.24,0.32-2.22,0.96-2.96c0.64-0.74,1.47-1.1,2.48-1.1c1.01,0,1.84,0.42,2.48,1.26V154h1.68
			V164.67z M231.7,163.37c0.39,0,0.78-0.1,1.15-0.29s0.66-0.44,0.85-0.74v-3.07c-0.19-0.3-0.47-0.55-0.85-0.74s-0.76-0.3-1.15-0.3
			c-0.66,0-1.19,0.24-1.58,0.72c-0.39,0.48-0.59,1.1-0.59,1.86c0,0.76,0.2,1.37,0.59,1.85S231.04,163.37,231.7,163.37z"/>
		<path fill="#FFFFFF" d="M241.13,164.86c-1.17,0-2.14-0.38-2.9-1.13c-0.76-0.75-1.14-1.73-1.14-2.94c0-1.13,0.37-2.09,1.11-2.87
			s1.68-1.18,2.81-1.18c1.14,0,2.06,0.39,2.76,1.18c0.7,0.79,1.05,1.8,1.05,3.02v0.4h-5.97c0.06,0.61,0.31,1.11,0.75,1.52
			c0.44,0.41,1.01,0.61,1.71,0.61c0.39,0,0.79-0.08,1.19-0.22c0.4-0.15,0.73-0.36,1-0.62l0.77,1.1
			C243.48,164.49,242.44,164.86,241.13,164.86z M243.17,160.17c-0.02-0.53-0.22-1.01-0.58-1.42c-0.37-0.42-0.9-0.62-1.59-0.62
			c-0.66,0-1.18,0.21-1.55,0.62c-0.37,0.41-0.58,0.89-0.62,1.43H243.17z"/>
		<path fill="#FFFFFF" d="M256.98,164.67h-1.68v-0.83c-0.6,0.68-1.43,1.02-2.5,1.02c-0.7,0-1.33-0.23-1.87-0.68
			c-0.54-0.45-0.82-1.08-0.82-1.88c0-0.82,0.27-1.45,0.81-1.87c0.54-0.43,1.17-0.64,1.88-0.64c1.1,0,1.93,0.33,2.5,0.99v-1.15
			c0-0.45-0.17-0.8-0.5-1.06c-0.33-0.26-0.77-0.38-1.31-0.38c-0.86,0-1.63,0.33-2.29,0.98l-0.69-1.17c0.87-0.83,1.96-1.25,3.25-1.25
			c0.95,0,1.72,0.22,2.32,0.67c0.6,0.45,0.9,1.16,0.9,2.13V164.67z M253.46,163.71c0.84,0,1.46-0.27,1.84-0.8v-1.17
			c-0.38-0.53-1-0.8-1.84-0.8c-0.48,0-0.87,0.13-1.18,0.38s-0.46,0.59-0.46,1.01s0.15,0.75,0.46,1S252.98,163.71,253.46,163.71z"/>
		<path fill="#FFFFFF" d="M271.75,164.67h-1.76l-1.79-5.66l-1.79,5.66h-1.76l-2.4-7.73h1.74l1.63,5.62l1.84-5.62h1.47l1.84,5.62
			l1.63-5.62h1.74L271.75,164.67z"/>
		<path fill="#FFFFFF" d="M278.81,164.86c-1.2,0-2.16-0.39-2.88-1.18c-0.72-0.78-1.09-1.75-1.09-2.89s0.36-2.1,1.09-2.88
			c0.73-0.78,1.69-1.17,2.88-1.17c1.21,0,2.17,0.39,2.9,1.17s1.09,1.74,1.09,2.88c0,1.15-0.36,2.12-1.09,2.9
			C280.98,164.47,280.01,164.86,278.81,164.86z M278.81,163.37c0.69,0,1.24-0.25,1.64-0.74s0.6-1.11,0.6-1.83
			c0-0.71-0.2-1.32-0.6-1.82c-0.4-0.5-0.95-0.74-1.64-0.74c-0.68,0-1.22,0.25-1.62,0.74c-0.4,0.5-0.6,1.1-0.6,1.82
			c0,0.73,0.2,1.34,0.6,1.83C277.58,163.13,278.12,163.37,278.81,163.37z"/>
		<path fill="#FFFFFF" d="M286.17,164.67h-1.68v-7.73h1.68v1.14c0.3-0.38,0.67-0.7,1.12-0.94c0.45-0.25,0.91-0.37,1.39-0.37v1.66
			c-0.15-0.03-0.33-0.05-0.53-0.05c-0.35,0-0.73,0.1-1.13,0.31c-0.4,0.21-0.69,0.45-0.86,0.71V164.67z"/>
		<path fill="#FFFFFF" d="M291.72,164.67h-1.68v-7.73h1.68v1.14c0.3-0.38,0.67-0.7,1.12-0.94c0.45-0.25,0.91-0.37,1.39-0.37v1.66
			c-0.15-0.03-0.33-0.05-0.53-0.05c-0.35,0-0.73,0.1-1.13,0.31c-0.4,0.21-0.69,0.45-0.86,0.71V164.67z"/>
		<path fill="#FFFFFF" d="M295.25,167.69l0.26-1.5c0.19,0.09,0.41,0.13,0.64,0.13c0.54,0,0.91-0.22,1.1-0.67l0.38-0.88l-3.17-7.82
			h1.79l2.26,5.79l2.26-5.79h1.81l-3.73,9.12c-0.46,1.14-1.34,1.72-2.66,1.74C295.85,167.81,295.53,167.77,295.25,167.69z"/>
		<path fill="#FFFFFF" d="M304.47,156c-0.28,0-0.52-0.1-0.73-0.3c-0.21-0.2-0.31-0.45-0.31-0.74s0.1-0.53,0.31-0.74
			c0.21-0.2,0.45-0.3,0.73-0.3c0.29,0,0.53,0.1,0.74,0.3c0.2,0.2,0.3,0.45,0.3,0.74s-0.1,0.53-0.3,0.74
			C305,155.9,304.76,156,304.47,156z M305.32,164.67h-1.68v-7.73h1.68V164.67z"/>
		<path fill="#FFFFFF" d="M314.39,164.67h-1.68v-4.83c0-1.07-0.52-1.6-1.55-1.6c-0.41,0-0.78,0.1-1.14,0.3
			c-0.35,0.2-0.63,0.45-0.85,0.74v5.39h-1.68v-7.73h1.68V158c0.29-0.34,0.67-0.63,1.15-0.88c0.48-0.25,1-0.37,1.57-0.37
			c0.82,0,1.44,0.21,1.86,0.64c0.42,0.43,0.63,1.04,0.63,1.84V164.67z"/>
		<path fill="#FFFFFF" d="M319.7,167.81c-1.31,0-2.39-0.38-3.23-1.15l0.78-1.22c0.58,0.66,1.39,0.99,2.45,0.99
			c0.64,0,1.18-0.17,1.62-0.5s0.66-0.87,0.66-1.59v-0.93c-0.66,0.85-1.49,1.28-2.48,1.28c-1.01,0-1.84-0.35-2.47-1.06
			s-0.95-1.67-0.95-2.91c0-1.23,0.32-2.19,0.95-2.9c0.63-0.71,1.46-1.06,2.47-1.06c1.01,0,1.84,0.42,2.48,1.26v-1.07h1.68v7.33
			c0,0.66-0.11,1.24-0.34,1.72s-0.54,0.85-0.94,1.1c-0.4,0.25-0.81,0.43-1.26,0.54C320.69,167.75,320.21,167.81,319.7,167.81z
			 M320,163.2c0.38,0,0.76-0.1,1.14-0.3c0.37-0.2,0.66-0.45,0.85-0.74v-2.88c-0.19-0.29-0.47-0.53-0.85-0.74
			c-0.37-0.2-0.75-0.3-1.14-0.3c-0.66,0-1.19,0.23-1.58,0.68s-0.59,1.05-0.59,1.8c0,0.75,0.2,1.35,0.59,1.8
			C318.82,162.97,319.34,163.2,320,163.2z"/>
		<path fill="#FFFFFF" d="M332.28,164.86c-0.65,0-1.14-0.17-1.48-0.51c-0.34-0.34-0.5-0.83-0.5-1.47v-4.46h-1.28v-1.47h1.28v-2.11
			h1.68v2.11h1.57v1.47h-1.57v4.05c0,0.28,0.06,0.5,0.19,0.66s0.31,0.25,0.54,0.25c0.34,0,0.59-0.09,0.75-0.27l0.4,1.26
			C333.51,164.7,332.98,164.86,332.28,164.86z"/>
		<path fill="#FFFFFF" d="M335.89,156c-0.28,0-0.52-0.1-0.73-0.3c-0.21-0.2-0.31-0.45-0.31-0.74s0.1-0.53,0.31-0.74
			c0.21-0.2,0.45-0.3,0.73-0.3c0.29,0,0.53,0.1,0.74,0.3c0.2,0.2,0.3,0.45,0.3,0.74s-0.1,0.53-0.3,0.74
			C336.43,155.9,336.18,156,335.89,156z M336.74,164.67h-1.68v-7.73h1.68V164.67z"/>
		<path fill="#FFFFFF" d="M350.07,164.67h-1.68v-5.04c0-0.93-0.42-1.39-1.26-1.39c-0.35,0-0.69,0.1-1.02,0.3
			c-0.33,0.2-0.59,0.44-0.77,0.72v5.41h-1.68v-5.04c0-0.93-0.43-1.39-1.28-1.39c-0.34,0-0.67,0.1-1,0.3
			c-0.33,0.2-0.58,0.45-0.78,0.74v5.39h-1.68v-7.73h1.68V158c0.19-0.29,0.53-0.57,1-0.84c0.47-0.27,0.98-0.41,1.51-0.41
			c1.12,0,1.82,0.47,2.11,1.42c0.25-0.38,0.61-0.72,1.09-1c0.48-0.28,0.99-0.42,1.54-0.42c1.48,0,2.22,0.78,2.22,2.34V164.67z"/>
		<path fill="#FFFFFF" d="M355.81,164.86c-1.17,0-2.14-0.38-2.9-1.13c-0.76-0.75-1.14-1.73-1.14-2.94c0-1.13,0.37-2.09,1.11-2.87
			c0.74-0.78,1.68-1.18,2.81-1.18c1.14,0,2.06,0.39,2.76,1.18c0.7,0.79,1.05,1.8,1.05,3.02v0.4h-5.97c0.06,0.61,0.31,1.11,0.75,1.52
			s1.01,0.61,1.71,0.61c0.39,0,0.79-0.08,1.19-0.22c0.4-0.15,0.73-0.36,1-0.62l0.77,1.1C358.17,164.49,357.12,164.86,355.81,164.86z
			 M357.86,160.17c-0.02-0.53-0.22-1.01-0.58-1.42s-0.9-0.62-1.59-0.62c-0.66,0-1.18,0.21-1.55,0.62c-0.37,0.41-0.58,0.89-0.62,1.43
			H357.86z"/>
	</g>
	<g>
		<path fill="#FFFFFF" d="M151.19,197.86c-1.17,0-2.14-0.38-2.9-1.13s-1.14-1.73-1.14-2.94c0-1.13,0.37-2.09,1.11-2.87
			c0.74-0.78,1.68-1.18,2.81-1.18c1.14,0,2.06,0.39,2.76,1.18c0.7,0.79,1.05,1.8,1.05,3.03v0.4h-5.97c0.06,0.61,0.31,1.11,0.75,1.52
			c0.44,0.4,1.01,0.61,1.71,0.61c0.39,0,0.79-0.07,1.19-0.22c0.4-0.15,0.73-0.36,1-0.62l0.77,1.1
			C153.55,197.49,152.5,197.86,151.19,197.86z M153.24,193.17c-0.02-0.53-0.22-1.01-0.58-1.42c-0.37-0.42-0.9-0.62-1.59-0.62
			c-0.66,0-1.18,0.21-1.55,0.62c-0.37,0.41-0.58,0.89-0.62,1.43H153.24z"/>
		<path fill="#FFFFFF" d="M162.93,197.67h-1.68v-0.83c-0.6,0.68-1.43,1.03-2.5,1.03c-0.7,0-1.33-0.23-1.87-0.68
			c-0.54-0.45-0.82-1.08-0.82-1.88c0-0.82,0.27-1.45,0.81-1.87c0.54-0.43,1.17-0.64,1.88-0.64c1.1,0,1.93,0.33,2.5,0.99v-1.15
			c0-0.45-0.17-0.8-0.5-1.06s-0.77-0.38-1.31-0.38c-0.86,0-1.63,0.33-2.29,0.98l-0.69-1.17c0.87-0.83,1.96-1.25,3.25-1.25
			c0.95,0,1.72,0.22,2.32,0.67c0.6,0.45,0.9,1.16,0.9,2.13V197.67z M159.41,196.71c0.84,0,1.46-0.27,1.84-0.8v-1.17
			c-0.38-0.53-1-0.8-1.84-0.8c-0.48,0-0.87,0.13-1.18,0.38c-0.31,0.26-0.46,0.59-0.46,1.01s0.15,0.75,0.46,1
			C158.54,196.59,158.93,196.71,159.41,196.71z"/>
		<path fill="#FFFFFF" d="M167.75,197.86c-1.39,0-2.49-0.4-3.31-1.2l0.77-1.21c0.29,0.3,0.68,0.55,1.17,0.77
			c0.49,0.21,0.98,0.32,1.46,0.32c0.49,0,0.87-0.1,1.13-0.29c0.26-0.19,0.39-0.44,0.39-0.75c0-0.28-0.16-0.49-0.48-0.65
			c-0.32-0.15-0.71-0.28-1.17-0.37c-0.46-0.09-0.92-0.2-1.38-0.34c-0.46-0.13-0.85-0.37-1.17-0.71c-0.32-0.34-0.48-0.78-0.48-1.33
			c0-0.66,0.27-1.22,0.82-1.67c0.54-0.45,1.29-0.68,2.22-0.68c1.18,0,2.19,0.36,3.01,1.09l-0.7,1.18c-0.25-0.28-0.57-0.5-0.98-0.67
			c-0.41-0.17-0.84-0.26-1.31-0.26c-0.44,0-0.79,0.09-1.05,0.27c-0.26,0.18-0.39,0.4-0.39,0.68c0,0.21,0.11,0.39,0.34,0.52
			c0.23,0.13,0.52,0.23,0.86,0.29c0.35,0.06,0.72,0.15,1.13,0.27c0.41,0.11,0.78,0.24,1.13,0.39c0.35,0.15,0.63,0.39,0.86,0.73
			c0.23,0.34,0.34,0.74,0.34,1.22c0,0.7-0.28,1.28-0.85,1.73C169.55,197.64,168.76,197.86,167.75,197.86z"/>
		<path fill="#FFFFFF" d="M173.49,189c-0.28,0-0.52-0.1-0.73-0.3c-0.21-0.2-0.31-0.45-0.31-0.74c0-0.29,0.1-0.53,0.31-0.74
			s0.45-0.3,0.73-0.3c0.29,0,0.53,0.1,0.74,0.3s0.3,0.45,0.3,0.74c0,0.29-0.1,0.53-0.3,0.74C174.03,188.9,173.78,189,173.49,189z
			 M174.34,197.67h-1.68v-7.73h1.68V197.67z"/>
		<path fill="#FFFFFF" d="M180.08,197.86c-1.17,0-2.14-0.38-2.9-1.13s-1.14-1.73-1.14-2.94c0-1.13,0.37-2.09,1.11-2.87
			c0.74-0.78,1.68-1.18,2.81-1.18c1.14,0,2.06,0.39,2.76,1.18c0.7,0.79,1.05,1.8,1.05,3.03v0.4h-5.97c0.06,0.61,0.31,1.11,0.75,1.52
			c0.44,0.4,1.01,0.61,1.71,0.61c0.39,0,0.79-0.07,1.19-0.22c0.4-0.15,0.73-0.36,1-0.62l0.77,1.1
			C182.44,197.49,181.4,197.86,180.08,197.86z M182.13,193.17c-0.02-0.53-0.22-1.01-0.58-1.42c-0.37-0.42-0.9-0.62-1.59-0.62
			c-0.66,0-1.18,0.21-1.55,0.62c-0.37,0.41-0.58,0.89-0.62,1.43H182.13z"/>
		<path fill="#FFFFFF" d="M187.11,197.67h-1.68v-7.73h1.68v1.13c0.3-0.38,0.67-0.7,1.12-0.94c0.45-0.25,0.91-0.37,1.39-0.37v1.66
			c-0.15-0.03-0.33-0.05-0.53-0.05c-0.35,0-0.73,0.1-1.13,0.31c-0.4,0.21-0.69,0.45-0.86,0.71V197.67z"/>
		<path fill="#FFFFFF" d="M197.41,197.86c-0.65,0-1.14-0.17-1.48-0.51c-0.34-0.34-0.5-0.83-0.5-1.47v-4.46h-1.28v-1.47h1.28v-2.11
			h1.68v2.11h1.57v1.47h-1.57v4.05c0,0.28,0.06,0.5,0.19,0.66c0.13,0.16,0.31,0.25,0.54,0.25c0.34,0,0.59-0.09,0.75-0.27l0.4,1.27
			C198.64,197.7,198.12,197.86,197.41,197.86z"/>
		<path fill="#FFFFFF" d="M203.68,197.86c-1.19,0-2.15-0.39-2.88-1.18c-0.73-0.78-1.09-1.75-1.09-2.89c0-1.14,0.36-2.1,1.09-2.88
			c0.73-0.78,1.69-1.17,2.88-1.17c1.21,0,2.17,0.39,2.9,1.17c0.73,0.78,1.09,1.74,1.09,2.88c0,1.15-0.36,2.12-1.09,2.9
			C205.85,197.47,204.89,197.86,203.68,197.86z M203.68,196.38c0.69,0,1.24-0.25,1.64-0.74c0.4-0.5,0.6-1.11,0.6-1.83
			c0-0.71-0.2-1.32-0.6-1.82c-0.4-0.5-0.95-0.74-1.64-0.74c-0.68,0-1.22,0.25-1.62,0.74c-0.4,0.5-0.6,1.1-0.6,1.82
			c0,0.72,0.2,1.34,0.6,1.83C202.46,196.13,203,196.38,203.68,196.38z"/>
		<path fill="#FFFFFF" d="M220.58,197.67h-1.68v-1.05c-0.64,0.83-1.47,1.25-2.48,1.25c-1.01,0-1.84-0.36-2.48-1.09
			c-0.64-0.72-0.96-1.71-0.96-2.96c0-1.24,0.32-2.22,0.96-2.96c0.64-0.73,1.47-1.1,2.48-1.1c1.01,0,1.84,0.42,2.48,1.26V187h1.68
			V197.67z M216.9,196.38c0.39,0,0.78-0.1,1.15-0.29c0.37-0.19,0.66-0.44,0.85-0.74v-3.07c-0.19-0.3-0.47-0.55-0.85-0.74
			c-0.37-0.2-0.76-0.3-1.15-0.3c-0.66,0-1.19,0.24-1.58,0.72c-0.39,0.48-0.59,1.1-0.59,1.86s0.2,1.37,0.59,1.85
			S216.24,196.38,216.9,196.38z"/>
		<path fill="#FFFFFF" d="M226.32,197.86c-1.17,0-2.14-0.38-2.9-1.13s-1.14-1.73-1.14-2.94c0-1.13,0.37-2.09,1.11-2.87
			c0.74-0.78,1.68-1.18,2.81-1.18c1.14,0,2.06,0.39,2.76,1.18c0.7,0.79,1.05,1.8,1.05,3.03v0.4h-5.97c0.06,0.61,0.31,1.11,0.75,1.52
			c0.44,0.4,1.01,0.61,1.71,0.61c0.39,0,0.79-0.07,1.19-0.22c0.4-0.15,0.73-0.36,1-0.62l0.77,1.1
			C228.68,197.49,227.63,197.86,226.32,197.86z M228.37,193.17c-0.02-0.53-0.22-1.01-0.58-1.42s-0.9-0.62-1.59-0.62
			c-0.66,0-1.18,0.21-1.55,0.62c-0.37,0.41-0.58,0.89-0.62,1.43H228.37z"/>
		<path fill="#FFFFFF" d="M238.07,197.67h-1.68v-0.83c-0.6,0.68-1.43,1.03-2.5,1.03c-0.7,0-1.33-0.23-1.87-0.68
			c-0.54-0.45-0.82-1.08-0.82-1.88c0-0.82,0.27-1.45,0.81-1.87c0.54-0.43,1.17-0.64,1.88-0.64c1.1,0,1.93,0.33,2.5,0.99v-1.15
			c0-0.45-0.17-0.8-0.5-1.06c-0.33-0.26-0.77-0.38-1.31-0.38c-0.86,0-1.63,0.33-2.29,0.98L231.6,191c0.88-0.83,1.96-1.25,3.25-1.25
			c0.95,0,1.72,0.22,2.32,0.67c0.6,0.45,0.9,1.16,0.9,2.13V197.67z M234.55,196.71c0.84,0,1.46-0.27,1.84-0.8v-1.17
			c-0.38-0.53-1-0.8-1.84-0.8c-0.48,0-0.88,0.13-1.18,0.38c-0.31,0.26-0.46,0.59-0.46,1.01s0.16,0.75,0.46,1
			C233.67,196.59,234.07,196.71,234.55,196.71z"/>
		<path fill="#FFFFFF" d="M241.92,197.67h-1.68V187h1.68V197.67z"/>
		<path fill="#FFFFFF" d="M256.69,197.67h-1.76l-1.79-5.66l-1.79,5.66h-1.76l-2.4-7.73h1.74l1.63,5.62l1.84-5.62h1.47l1.84,5.62
			l1.63-5.62h1.74L256.69,197.67z"/>
		<path fill="#FFFFFF" d="M261.09,189c-0.28,0-0.52-0.1-0.73-0.3c-0.21-0.2-0.31-0.45-0.31-0.74c0-0.29,0.1-0.53,0.31-0.74
			s0.45-0.3,0.73-0.3c0.29,0,0.53,0.1,0.74,0.3c0.2,0.2,0.3,0.45,0.3,0.74c0,0.29-0.1,0.53-0.3,0.74
			C261.62,188.9,261.38,189,261.09,189z M261.94,197.67h-1.68v-7.73h1.68V197.67z"/>
		<path fill="#FFFFFF" d="M266.44,197.86c-0.65,0-1.14-0.17-1.48-0.51c-0.34-0.34-0.5-0.83-0.5-1.47v-4.46h-1.28v-1.47h1.28v-2.11
			h1.68v2.11h1.57v1.47h-1.57v4.05c0,0.28,0.06,0.5,0.19,0.66c0.13,0.16,0.31,0.25,0.54,0.25c0.34,0,0.59-0.09,0.75-0.27l0.4,1.27
			C267.67,197.7,267.14,197.86,266.44,197.86z"/>
		<path fill="#FFFFFF" d="M276.13,197.67h-1.68v-4.86c0-0.57-0.14-0.97-0.41-1.21c-0.27-0.24-0.66-0.36-1.16-0.36
			c-0.39,0-0.77,0.1-1.12,0.3c-0.35,0.2-0.64,0.45-0.86,0.74v5.39h-1.68V187h1.68v4c0.29-0.34,0.67-0.63,1.16-0.88
			c0.49-0.25,1.01-0.37,1.58-0.37c1.66,0,2.5,0.82,2.5,2.45V197.67z"/>
		<path fill="#FFFFFF" d="M279.95,197.52c-0.22,0.22-0.49,0.33-0.78,0.33c-0.3,0-0.56-0.11-0.78-0.33
			c-0.22-0.22-0.34-0.48-0.34-0.79s0.11-0.57,0.34-0.79c0.22-0.22,0.49-0.33,0.78-0.33c0.3,0,0.56,0.11,0.78,0.33
			c0.22,0.22,0.34,0.48,0.34,0.79S280.18,197.3,279.95,197.52z"/>
	</g>
	<g>
		<path fill="#FFFFFF" d="M193.5,94.59c-2.03,0-3.72-0.64-5.07-1.93c-1.35-1.29-2.03-2.94-2.03-4.97c0-2.03,0.68-3.68,2.03-4.97
			c1.35-1.29,3.04-1.93,5.07-1.93c2.49,0,4.35,1.09,5.58,3.26l-2.44,1.2c-0.29-0.56-0.72-1.02-1.29-1.39
			c-0.57-0.37-1.18-0.55-1.85-0.55c-1.21,0-2.21,0.41-3,1.24s-1.18,1.87-1.18,3.14s0.39,2.31,1.18,3.14c0.79,0.83,1.79,1.24,3,1.24
			c0.67,0,1.28-0.18,1.85-0.54c0.57-0.36,1-0.83,1.29-1.4l2.44,1.18C197.82,93.5,195.96,94.59,193.5,94.59z"/>
		<path fill="#FFFFFF" d="M203.26,94.35h-2.54V81.01h2.54V94.35z"/>
		<path fill="#FFFFFF" d="M214.12,94.35h-2.54v-1c-0.69,0.83-1.71,1.24-3.06,1.24c-0.87,0-1.64-0.28-2.33-0.85
			c-0.69-0.57-1.03-1.35-1.03-2.35c0-1.04,0.34-1.82,1.01-2.34c0.67-0.52,1.46-0.78,2.35-0.78c1.37,0,2.39,0.39,3.06,1.18v-1.3
			c0-0.49-0.19-0.89-0.58-1.18s-0.9-0.44-1.54-0.44c-1.05,0-1.99,0.38-2.82,1.14l-0.96-1.7c1.15-1.01,2.55-1.52,4.22-1.52
			c1.24,0,2.25,0.29,3.04,0.86s1.18,1.51,1.18,2.8V94.35z M209.54,92.87c0.95,0,1.63-0.28,2.04-0.84v-1.2
			c-0.41-0.56-1.09-0.84-2.04-0.84c-0.52,0-0.95,0.13-1.3,0.39c-0.35,0.26-0.52,0.62-0.52,1.07c0,0.44,0.17,0.79,0.52,1.04
			C208.59,92.74,209.02,92.87,209.54,92.87z"/>
		<path fill="#FFFFFF" d="M219.18,94.35h-2.54v-9.66h2.54v1.32c0.36-0.45,0.82-0.83,1.38-1.12s1.13-0.44,1.7-0.44v2.48
			c-0.17-0.04-0.41-0.06-0.7-0.06c-0.43,0-0.88,0.11-1.36,0.32c-0.48,0.21-0.82,0.47-1.02,0.78V94.35z"/>
		<path fill="#FFFFFF" d="M228.38,94.59c-1.49,0-2.73-0.47-3.7-1.4c-0.97-0.93-1.46-2.16-1.46-3.68c0-1.43,0.47-2.63,1.41-3.6
			c0.94-0.97,2.14-1.46,3.59-1.46c1.44,0,2.61,0.49,3.5,1.47c0.89,0.98,1.34,2.26,1.34,3.85v0.56h-7.18
			c0.08,0.64,0.37,1.17,0.86,1.6c0.49,0.43,1.13,0.64,1.92,0.64c0.43,0,0.89-0.09,1.39-0.26c0.5-0.17,0.9-0.41,1.19-0.7l1.12,1.64
			C231.39,94.14,230.06,94.59,228.38,94.59z M230.6,88.61c-0.04-0.55-0.26-1.04-0.65-1.48c-0.39-0.44-0.97-0.66-1.73-0.66
			c-0.72,0-1.28,0.22-1.68,0.65c-0.4,0.43-0.63,0.93-0.7,1.49H230.6z"/>
	</g>
</g>
</svg>
