<?xml version="1.0" encoding="utf-8"?>
<!-- Generator: Adobe Illustrator 24.0.1, SVG Export Plug-In . SVG Version: 6.00 Build 0)  -->
<svg version="1.1" id="Слой_1" xmlns="http://www.w3.org/2000/svg" xmlns:xlink="http://www.w3.org/1999/xlink" x="0px" y="0px"
	 viewBox="0 0 416 339" enable-background="new 0 0 416 339" xml:space="preserve">
<g>
	<g>
		<defs>
			<rect id="SVGID_1_" x="3.56" y="5.4" width="401.64" height="345.87"/>
		</defs>
		<clipPath id="SVGID_2_">
			<use xlink:href="#SVGID_1_"  overflow="visible"/>
		</clipPath>
		<g clip-path="url(#SVGID_2_)">
			
				<image overflow="visible" width="402" height="346" xlink:href="7857A18D.png"  transform="matrix(0.9991 0 0 0.9996 3.5645 5.4049)">
			</image>
		</g>
	</g>
	<path fill-rule="evenodd" clip-rule="evenodd" fill="#FF4448" d="M229.09,305.54c-6.44,0.51-12.97,0.77-19.58,0.77
		c-105.12,0-190.46-65.53-190.46-146.24c0-80.71,85.34-146.23,190.46-146.23s190.45,65.52,190.45,146.23
		c0,22.3-4.16,49.91-15.81,68.82c-21.88,42.23-72.28,91.85-174.65,100.89C209.51,329.78,221.48,319.58,229.09,305.54z"/>
	<g>
		<path fill="#FFFFFF" d="M74.83,133.56h-1.87v-10.67h7.31v1.65h-5.44v2.77h5.33v1.65h-5.33V133.56z"/>
		<path fill="#FFFFFF" d="M83.58,133.56H81.9v-7.73h1.68v1.14c0.3-0.38,0.67-0.7,1.12-0.94c0.45-0.25,0.91-0.37,1.39-0.37v1.66
			c-0.15-0.03-0.33-0.05-0.53-0.05c-0.35,0-0.73,0.1-1.13,0.31s-0.69,0.45-0.86,0.71V133.56z"/>
		<path fill="#FFFFFF" d="M90.94,133.75c-1.19,0-2.15-0.39-2.88-1.18c-0.73-0.78-1.09-1.75-1.09-2.89s0.36-2.1,1.09-2.88
			c0.73-0.78,1.69-1.17,2.88-1.17c1.21,0,2.17,0.39,2.9,1.17c0.73,0.78,1.09,1.74,1.09,2.88c0,1.15-0.36,2.12-1.09,2.9
			C93.11,133.36,92.14,133.75,90.94,133.75z M90.94,132.26c0.69,0,1.24-0.25,1.64-0.74c0.4-0.5,0.6-1.11,0.6-1.83
			c0-0.71-0.2-1.32-0.6-1.82c-0.4-0.5-0.95-0.74-1.64-0.74c-0.68,0-1.22,0.25-1.62,0.74c-0.4,0.5-0.6,1.1-0.6,1.82
			c0,0.73,0.2,1.34,0.6,1.83C89.71,132.01,90.26,132.26,90.94,132.26z"/>
		<path fill="#FFFFFF" d="M107.77,133.56h-1.68v-5.04c0-0.93-0.42-1.39-1.26-1.39c-0.35,0-0.69,0.1-1.02,0.3
			c-0.33,0.2-0.59,0.44-0.77,0.72v5.41h-1.68v-5.04c0-0.93-0.43-1.39-1.28-1.39c-0.34,0-0.67,0.1-1,0.3
			c-0.33,0.2-0.58,0.45-0.78,0.74v5.39h-1.68v-7.73h1.68v1.06c0.19-0.29,0.53-0.57,1-0.84c0.47-0.27,0.98-0.41,1.51-0.41
			c1.12,0,1.82,0.47,2.11,1.42c0.25-0.38,0.61-0.72,1.09-1c0.48-0.28,0.99-0.42,1.54-0.42c1.48,0,2.22,0.78,2.22,2.34V133.56z"/>
		<path fill="#FFFFFF" d="M116.36,133.75c-0.65,0-1.14-0.17-1.48-0.51c-0.34-0.34-0.5-0.83-0.5-1.47v-4.46h-1.28v-1.47h1.28v-2.11
			h1.68v2.11h1.57v1.47h-1.57v4.05c0,0.28,0.06,0.5,0.19,0.66s0.31,0.25,0.54,0.25c0.34,0,0.59-0.09,0.75-0.27l0.4,1.26
			C117.59,133.58,117.07,133.75,116.36,133.75z"/>
		<path fill="#FFFFFF" d="M126.06,133.56h-1.68v-4.86c0-0.57-0.14-0.97-0.41-1.21c-0.27-0.24-0.66-0.36-1.16-0.36
			c-0.39,0-0.77,0.1-1.12,0.3c-0.35,0.2-0.64,0.45-0.86,0.74v5.39h-1.68v-10.67h1.68v4c0.29-0.34,0.67-0.63,1.16-0.88
			c0.48-0.25,1.01-0.37,1.58-0.37c1.66,0,2.5,0.82,2.5,2.45V133.56z"/>
		<path fill="#FFFFFF" d="M131.8,133.75c-1.17,0-2.14-0.38-2.9-1.13c-0.76-0.75-1.14-1.73-1.14-2.94c0-1.13,0.37-2.09,1.11-2.87
			c0.74-0.78,1.68-1.18,2.81-1.18c1.14,0,2.06,0.39,2.76,1.18c0.7,0.79,1.05,1.8,1.05,3.02v0.4h-5.97c0.06,0.61,0.31,1.11,0.75,1.52
			c0.44,0.41,1.01,0.61,1.71,0.61c0.39,0,0.79-0.08,1.19-0.22s0.73-0.36,1-0.62l0.77,1.1C134.16,133.37,133.11,133.75,131.8,133.75z
			 M133.85,129.06c-0.02-0.53-0.22-1.01-0.58-1.42c-0.37-0.42-0.9-0.62-1.59-0.62c-0.66,0-1.18,0.21-1.55,0.62
			c-0.37,0.41-0.58,0.89-0.62,1.43H133.85z"/>
		<path fill="#FFFFFF" d="M143.34,133.56h-1.68v-6.26h-1.28v-1.47h1.28v-0.43c0-0.84,0.22-1.5,0.67-1.97
			c0.45-0.47,1.04-0.7,1.78-0.7c0.54,0,0.99,0.1,1.34,0.3l-0.37,1.25c-0.17-0.12-0.4-0.18-0.67-0.18c-0.33,0-0.59,0.11-0.78,0.33
			s-0.29,0.54-0.29,0.97v0.43h1.57v1.47h-1.57V133.56z M147.02,124.88c-0.28,0-0.52-0.1-0.73-0.3c-0.21-0.2-0.31-0.45-0.31-0.74
			s0.1-0.53,0.31-0.74c0.21-0.2,0.45-0.3,0.73-0.3c0.29,0,0.53,0.1,0.74,0.3c0.2,0.2,0.3,0.45,0.3,0.74s-0.1,0.53-0.3,0.74
			C147.55,124.78,147.31,124.88,147.02,124.88z M147.87,133.56h-1.68v-7.73h1.68V133.56z"/>
		<path fill="#FFFFFF" d="M151.72,133.56h-1.68v-7.73h1.68v1.14c0.3-0.38,0.67-0.7,1.12-0.94c0.45-0.25,0.91-0.37,1.39-0.37v1.66
			c-0.15-0.03-0.33-0.05-0.53-0.05c-0.35,0-0.73,0.1-1.13,0.31s-0.69,0.45-0.86,0.71V133.56z"/>
		<path fill="#FFFFFF" d="M158.23,133.75c-1.39,0-2.49-0.4-3.31-1.2l0.77-1.22c0.29,0.3,0.68,0.55,1.17,0.77
			c0.49,0.21,0.98,0.32,1.46,0.32c0.49,0,0.87-0.1,1.13-0.29c0.26-0.19,0.39-0.44,0.39-0.75c0-0.28-0.16-0.49-0.48-0.65
			c-0.32-0.15-0.71-0.28-1.17-0.37c-0.46-0.09-0.92-0.2-1.38-0.34c-0.46-0.13-0.85-0.37-1.17-0.71c-0.32-0.34-0.48-0.78-0.48-1.33
			c0-0.66,0.27-1.22,0.82-1.67c0.54-0.45,1.29-0.68,2.22-0.68c1.18,0,2.19,0.36,3.01,1.09l-0.7,1.18c-0.25-0.28-0.57-0.5-0.98-0.67
			c-0.41-0.17-0.84-0.26-1.31-0.26c-0.44,0-0.79,0.09-1.05,0.26c-0.26,0.18-0.39,0.4-0.39,0.68c0,0.21,0.11,0.39,0.34,0.52
			c0.23,0.13,0.52,0.23,0.86,0.3c0.35,0.06,0.72,0.15,1.13,0.26c0.41,0.11,0.78,0.24,1.13,0.39s0.63,0.39,0.86,0.73
			c0.23,0.34,0.34,0.74,0.34,1.22c0,0.7-0.28,1.28-0.85,1.73C160.04,133.52,159.25,133.75,158.23,133.75z"/>
		<path fill="#FFFFFF" d="M165.46,133.75c-0.65,0-1.14-0.17-1.48-0.51c-0.34-0.34-0.5-0.83-0.5-1.47v-4.46h-1.28v-1.47h1.28v-2.11
			h1.68v2.11h1.57v1.47h-1.57v4.05c0,0.28,0.06,0.5,0.19,0.66s0.31,0.25,0.54,0.25c0.34,0,0.59-0.09,0.75-0.27l0.4,1.26
			C166.7,133.58,166.17,133.75,165.46,133.75z"/>
		<path fill="#FFFFFF" d="M179.48,133.56h-1.68v-1.06c-0.64,0.83-1.47,1.25-2.48,1.25s-1.84-0.36-2.48-1.09
			c-0.64-0.72-0.96-1.71-0.96-2.96c0-1.24,0.32-2.22,0.96-2.96c0.64-0.74,1.47-1.1,2.48-1.1s1.84,0.42,2.48,1.26v-4.02h1.68V133.56z
			 M175.8,132.26c0.39,0,0.78-0.1,1.15-0.29c0.37-0.19,0.66-0.44,0.85-0.74v-3.07c-0.19-0.3-0.47-0.55-0.85-0.74
			c-0.37-0.2-0.76-0.3-1.15-0.3c-0.66,0-1.19,0.24-1.58,0.72c-0.39,0.48-0.59,1.1-0.59,1.86c0,0.76,0.2,1.37,0.59,1.85
			S175.14,132.26,175.8,132.26z"/>
		<path fill="#FFFFFF" d="M188.06,133.56h-1.68v-0.83c-0.6,0.68-1.43,1.02-2.5,1.02c-0.7,0-1.33-0.23-1.87-0.68
			c-0.54-0.45-0.82-1.08-0.82-1.88c0-0.82,0.27-1.45,0.81-1.87c0.54-0.43,1.17-0.64,1.88-0.64c1.1,0,1.93,0.33,2.5,0.99v-1.15
			c0-0.45-0.17-0.8-0.5-1.06s-0.77-0.38-1.31-0.38c-0.86,0-1.63,0.33-2.29,0.98l-0.69-1.17c0.87-0.83,1.96-1.25,3.25-1.25
			c0.95,0,1.72,0.22,2.32,0.67c0.6,0.45,0.9,1.16,0.9,2.13V133.56z M184.54,132.6c0.84,0,1.46-0.27,1.84-0.8v-1.17
			c-0.38-0.53-1-0.8-1.84-0.8c-0.48,0-0.87,0.13-1.18,0.38c-0.31,0.26-0.46,0.59-0.46,1.01s0.15,0.75,0.46,1
			C183.66,132.47,184.06,132.6,184.54,132.6z"/>
		<path fill="#FFFFFF" d="M189.9,136.58l0.26-1.5c0.19,0.09,0.41,0.13,0.64,0.13c0.54,0,0.91-0.22,1.1-0.67l0.38-0.88l-3.17-7.82
			h1.79l2.26,5.79l2.26-5.79h1.81l-3.73,9.12c-0.46,1.14-1.34,1.72-2.66,1.74C190.49,136.69,190.17,136.65,189.9,136.58z"/>
		<path fill="#FFFFFF" d="M205.88,133.75c-1.19,0-2.15-0.39-2.88-1.18c-0.73-0.78-1.09-1.75-1.09-2.89s0.36-2.1,1.09-2.88
			c0.73-0.78,1.69-1.17,2.88-1.17c1.21,0,2.17,0.39,2.9,1.17s1.09,1.74,1.09,2.88c0,1.15-0.36,2.12-1.09,2.9
			C208.05,133.36,207.09,133.75,205.88,133.75z M205.88,132.26c0.69,0,1.24-0.25,1.64-0.74c0.4-0.5,0.6-1.11,0.6-1.83
			c0-0.71-0.2-1.32-0.6-1.82c-0.4-0.5-0.95-0.74-1.64-0.74c-0.68,0-1.22,0.25-1.62,0.74c-0.4,0.5-0.6,1.1-0.6,1.82
			c0,0.73,0.2,1.34,0.6,1.83C204.66,132.01,205.2,132.26,205.88,132.26z"/>
		<path fill="#FFFFFF" d="M213.64,133.56h-1.68v-6.26h-1.28v-1.47h1.28v-0.43c0-0.83,0.22-1.49,0.66-1.96
			c0.44-0.47,1.04-0.71,1.78-0.71c0.8,0,1.42,0.22,1.86,0.67l-0.66,1.04c-0.25-0.22-0.54-0.34-0.9-0.34c-0.33,0-0.59,0.11-0.78,0.33
			c-0.19,0.22-0.29,0.54-0.29,0.97v0.43h1.57v1.47h-1.57V133.56z"/>
		<path fill="#FFFFFF" d="M222.9,133.75c-0.65,0-1.14-0.17-1.48-0.51c-0.34-0.34-0.5-0.83-0.5-1.47v-4.46h-1.28v-1.47h1.28v-2.11
			h1.68v2.11h1.57v1.47h-1.57v4.05c0,0.28,0.06,0.5,0.19,0.66s0.31,0.25,0.54,0.25c0.34,0,0.59-0.09,0.75-0.27l0.4,1.26
			C224.14,133.58,223.61,133.75,222.9,133.75z"/>
		<path fill="#FFFFFF" d="M232.6,133.56h-1.68v-4.86c0-0.57-0.14-0.97-0.41-1.21c-0.27-0.24-0.66-0.36-1.16-0.36
			c-0.39,0-0.77,0.1-1.12,0.3c-0.35,0.2-0.64,0.45-0.86,0.74v5.39h-1.68v-10.67h1.68v4c0.29-0.34,0.67-0.63,1.16-0.88
			s1.01-0.37,1.58-0.37c1.66,0,2.5,0.82,2.5,2.45V133.56z"/>
		<path fill="#FFFFFF" d="M238.34,133.75c-1.17,0-2.14-0.38-2.9-1.13c-0.76-0.75-1.14-1.73-1.14-2.94c0-1.13,0.37-2.09,1.11-2.87
			s1.68-1.18,2.81-1.18c1.14,0,2.06,0.39,2.76,1.18c0.7,0.79,1.05,1.8,1.05,3.02v0.4h-5.97c0.06,0.61,0.31,1.11,0.75,1.52
			c0.44,0.41,1.01,0.61,1.71,0.61c0.39,0,0.79-0.08,1.19-0.22c0.4-0.15,0.73-0.36,1-0.62l0.77,1.1
			C240.7,133.37,239.66,133.75,238.34,133.75z M240.39,129.06c-0.02-0.53-0.22-1.01-0.58-1.42c-0.37-0.42-0.9-0.62-1.59-0.62
			c-0.66,0-1.18,0.21-1.55,0.62c-0.37,0.41-0.58,0.89-0.62,1.43H240.39z"/>
		<path fill="#FFFFFF" d="M254.2,133.56h-1.68v-0.83c-0.6,0.68-1.43,1.02-2.5,1.02c-0.7,0-1.33-0.23-1.87-0.68
			c-0.54-0.45-0.82-1.08-0.82-1.88c0-0.82,0.27-1.45,0.81-1.87c0.54-0.43,1.17-0.64,1.88-0.64c1.1,0,1.93,0.33,2.5,0.99v-1.15
			c0-0.45-0.17-0.8-0.5-1.06c-0.33-0.26-0.77-0.38-1.31-0.38c-0.86,0-1.63,0.33-2.29,0.98l-0.69-1.17c0.87-0.83,1.96-1.25,3.25-1.25
			c0.95,0,1.72,0.22,2.32,0.67c0.6,0.45,0.9,1.16,0.9,2.13V133.56z M250.68,132.6c0.84,0,1.46-0.27,1.84-0.8v-1.17
			c-0.38-0.53-1-0.8-1.84-0.8c-0.48,0-0.87,0.13-1.18,0.38s-0.46,0.59-0.46,1.01s0.15,0.75,0.46,1S250.2,132.6,250.68,132.6z"/>
		<path fill="#FFFFFF" d="M263.5,133.56h-1.68v-1.06c-0.64,0.83-1.47,1.25-2.48,1.25c-1.01,0-1.84-0.36-2.48-1.09
			c-0.64-0.72-0.96-1.71-0.96-2.96c0-1.24,0.32-2.22,0.96-2.96c0.64-0.74,1.47-1.1,2.48-1.1c1.01,0,1.84,0.42,2.48,1.26v-4.02h1.68
			V133.56z M259.82,132.26c0.39,0,0.78-0.1,1.15-0.29s0.66-0.44,0.85-0.74v-3.07c-0.19-0.3-0.47-0.55-0.85-0.74s-0.76-0.3-1.15-0.3
			c-0.66,0-1.19,0.24-1.58,0.72c-0.39,0.48-0.59,1.1-0.59,1.86c0,0.76,0.2,1.37,0.59,1.85S259.15,132.26,259.82,132.26z"/>
		<path fill="#FFFFFF" d="M269.51,133.56h-1.81l-3.15-7.73h1.79l2.26,5.79l2.26-5.79h1.81L269.51,133.56z"/>
		<path fill="#FFFFFF" d="M274.55,124.88c-0.28,0-0.52-0.1-0.73-0.3c-0.21-0.2-0.31-0.45-0.31-0.74s0.1-0.53,0.31-0.74
			c0.21-0.2,0.45-0.3,0.73-0.3c0.29,0,0.53,0.1,0.74,0.3c0.2,0.2,0.3,0.45,0.3,0.74s-0.1,0.53-0.3,0.74
			C275.08,124.78,274.84,124.88,274.55,124.88z M275.4,133.56h-1.68v-7.73h1.68V133.56z"/>
		<path fill="#FFFFFF" d="M280.22,133.75c-1.39,0-2.49-0.4-3.31-1.2l0.77-1.22c0.29,0.3,0.68,0.55,1.17,0.77
			c0.49,0.21,0.98,0.32,1.46,0.32c0.49,0,0.87-0.1,1.13-0.29c0.26-0.19,0.39-0.44,0.39-0.75c0-0.28-0.16-0.49-0.48-0.65
			c-0.32-0.15-0.71-0.28-1.17-0.37c-0.46-0.09-0.92-0.2-1.38-0.34c-0.46-0.13-0.85-0.37-1.17-0.71c-0.32-0.34-0.48-0.78-0.48-1.33
			c0-0.66,0.27-1.22,0.82-1.67c0.54-0.45,1.29-0.68,2.22-0.68c1.18,0,2.19,0.36,3.01,1.09l-0.7,1.18c-0.25-0.28-0.57-0.5-0.98-0.67
			c-0.41-0.17-0.84-0.26-1.31-0.26c-0.44,0-0.79,0.09-1.05,0.26c-0.26,0.18-0.39,0.4-0.39,0.68c0,0.21,0.11,0.39,0.34,0.52
			c0.23,0.13,0.52,0.23,0.86,0.3c0.35,0.06,0.72,0.15,1.13,0.26c0.41,0.11,0.78,0.24,1.13,0.39s0.63,0.39,0.86,0.73
			c0.23,0.34,0.34,0.74,0.34,1.22c0,0.7-0.28,1.28-0.85,1.73C282.02,133.52,281.23,133.75,280.22,133.75z"/>
		<path fill="#FFFFFF" d="M288.62,133.75c-1.19,0-2.15-0.39-2.88-1.18c-0.73-0.78-1.09-1.75-1.09-2.89s0.36-2.1,1.09-2.88
			s1.69-1.17,2.88-1.17c1.21,0,2.17,0.39,2.9,1.17c0.72,0.78,1.09,1.74,1.09,2.88c0,1.15-0.36,2.12-1.09,2.9
			C290.79,133.36,289.82,133.75,288.62,133.75z M288.62,132.26c0.69,0,1.24-0.25,1.64-0.74c0.4-0.5,0.6-1.11,0.6-1.83
			c0-0.71-0.2-1.32-0.6-1.82c-0.4-0.5-0.95-0.74-1.64-0.74c-0.68,0-1.22,0.25-1.62,0.74c-0.4,0.5-0.6,1.1-0.6,1.82
			c0,0.73,0.2,1.34,0.6,1.83S287.93,132.26,288.62,132.26z"/>
		<path fill="#FFFFFF" d="M295.98,133.56h-1.68v-7.73h1.68v1.14c0.3-0.38,0.67-0.7,1.12-0.94c0.45-0.25,0.91-0.37,1.39-0.37v1.66
			c-0.15-0.03-0.33-0.05-0.53-0.05c-0.35,0-0.73,0.1-1.13,0.31c-0.4,0.21-0.69,0.45-0.86,0.71V133.56z"/>
		<path fill="#FFFFFF" d="M307.48,133.75c-1.17,0-2.13-0.38-2.88-1.14c-0.75-0.76-1.12-1.74-1.12-2.92c0-1.17,0.37-2.14,1.12-2.9
			c0.75-0.76,1.71-1.14,2.88-1.14c1.29,0,2.28,0.46,2.96,1.38l-1.1,1.02c-0.43-0.61-1.02-0.91-1.78-0.91c-0.7,0-1.27,0.24-1.7,0.71
			s-0.64,1.09-0.64,1.85c0,0.76,0.21,1.38,0.64,1.86c0.43,0.48,0.99,0.72,1.7,0.72c0.74,0,1.33-0.3,1.78-0.91l1.1,1.02
			C309.76,133.29,308.77,133.75,307.48,133.75z"/>
		<path fill="#FFFFFF" d="M315.4,133.75c-1.2,0-2.16-0.39-2.88-1.18c-0.72-0.78-1.09-1.75-1.09-2.89s0.36-2.1,1.09-2.88
			c0.73-0.78,1.69-1.17,2.88-1.17c1.21,0,2.17,0.39,2.9,1.17s1.09,1.74,1.09,2.88c0,1.15-0.36,2.12-1.09,2.9
			C317.57,133.36,316.6,133.75,315.4,133.75z M315.4,132.26c0.69,0,1.24-0.25,1.64-0.74s0.6-1.11,0.6-1.83c0-0.71-0.2-1.32-0.6-1.82
			c-0.4-0.5-0.95-0.74-1.64-0.74c-0.68,0-1.22,0.25-1.62,0.74c-0.4,0.5-0.6,1.1-0.6,1.82c0,0.73,0.2,1.34,0.6,1.83
			C314.17,132.01,314.72,132.26,315.4,132.26z"/>
		<path fill="#FFFFFF" d="M332.23,133.56h-1.68v-5.04c0-0.93-0.42-1.39-1.26-1.39c-0.35,0-0.69,0.1-1.02,0.3
			c-0.33,0.2-0.59,0.44-0.77,0.72v5.41h-1.68v-5.04c0-0.93-0.43-1.39-1.28-1.39c-0.34,0-0.67,0.1-1,0.3
			c-0.33,0.2-0.58,0.45-0.78,0.74v5.39h-1.68v-7.73h1.68v1.06c0.19-0.29,0.53-0.57,1-0.84c0.47-0.27,0.98-0.41,1.51-0.41
			c1.12,0,1.82,0.47,2.11,1.42c0.25-0.38,0.61-0.72,1.09-1c0.48-0.28,0.99-0.42,1.54-0.42c1.48,0,2.22,0.78,2.22,2.34V133.56z"/>
		<path fill="#FFFFFF" d="M335.24,124.88c-0.28,0-0.52-0.1-0.73-0.3c-0.21-0.2-0.31-0.45-0.31-0.74s0.1-0.53,0.31-0.74
			c0.21-0.2,0.45-0.3,0.73-0.3c0.29,0,0.53,0.1,0.74,0.3c0.2,0.2,0.3,0.45,0.3,0.74s-0.1,0.53-0.3,0.74
			C335.77,124.78,335.53,124.88,335.24,124.88z M336.09,133.56h-1.68v-7.73h1.68V133.56z"/>
		<path fill="#FFFFFF" d="M345.16,133.56h-1.68v-4.83c0-1.07-0.52-1.6-1.55-1.6c-0.41,0-0.78,0.1-1.14,0.3
			c-0.35,0.2-0.63,0.45-0.85,0.74v5.39h-1.68v-7.73h1.68v1.06c0.29-0.34,0.67-0.63,1.15-0.88c0.48-0.25,1-0.37,1.57-0.37
			c0.82,0,1.44,0.21,1.86,0.64c0.42,0.43,0.63,1.04,0.63,1.84V133.56z"/>
		<path fill="#FFFFFF" d="M350.47,136.69c-1.31,0-2.39-0.38-3.23-1.15l0.78-1.22c0.58,0.66,1.39,0.99,2.45,0.99
			c0.64,0,1.18-0.17,1.62-0.5s0.66-0.87,0.66-1.59v-0.93c-0.66,0.85-1.49,1.28-2.48,1.28c-1.01,0-1.84-0.35-2.47-1.06
			s-0.95-1.67-0.95-2.91c0-1.23,0.32-2.19,0.95-2.9c0.63-0.71,1.46-1.06,2.47-1.06c1.01,0,1.84,0.42,2.48,1.26v-1.07h1.68v7.33
			c0,0.66-0.11,1.24-0.34,1.72s-0.54,0.85-0.94,1.1c-0.4,0.25-0.81,0.43-1.26,0.54C351.46,136.64,350.98,136.69,350.47,136.69z
			 M350.77,132.08c0.38,0,0.76-0.1,1.14-0.3c0.37-0.2,0.66-0.45,0.85-0.74v-2.88c-0.19-0.29-0.47-0.53-0.85-0.74
			c-0.37-0.2-0.75-0.3-1.14-0.3c-0.66,0-1.19,0.23-1.58,0.68s-0.59,1.05-0.59,1.8c0,0.75,0.2,1.35,0.59,1.8
			C349.58,131.86,350.11,132.08,350.77,132.08z"/>
	</g>
	<g>
		<path fill="#FFFFFF" d="M74.17,166.75c-1.2,0-2.16-0.39-2.88-1.18c-0.72-0.78-1.09-1.75-1.09-2.89s0.36-2.1,1.09-2.88
			c0.73-0.78,1.69-1.17,2.88-1.17c1.21,0,2.17,0.39,2.9,1.17s1.09,1.74,1.09,2.88c0,1.15-0.36,2.12-1.09,2.9
			C76.34,166.36,75.38,166.75,74.17,166.75z M74.17,165.26c0.69,0,1.24-0.25,1.64-0.74s0.6-1.11,0.6-1.83c0-0.71-0.2-1.32-0.6-1.82
			c-0.4-0.5-0.95-0.74-1.64-0.74c-0.68,0-1.22,0.25-1.62,0.74c-0.4,0.5-0.6,1.1-0.6,1.82c0,0.73,0.2,1.34,0.6,1.83
			C72.95,165.01,73.49,165.26,74.17,165.26z"/>
		<path fill="#FFFFFF" d="M86.75,166.56h-1.68v-1.02c-0.73,0.81-1.64,1.22-2.74,1.22c-1.65,0-2.48-0.82-2.48-2.45v-5.47h1.68v4.86
			c0,0.57,0.13,0.97,0.4,1.21s0.65,0.36,1.15,0.36c0.41,0,0.78-0.1,1.14-0.29c0.35-0.19,0.63-0.43,0.85-0.72v-5.42h1.68V166.56z"/>
		<path fill="#FFFFFF" d="M91.24,166.75c-0.65,0-1.14-0.17-1.48-0.51c-0.34-0.34-0.5-0.83-0.5-1.47v-4.46h-1.28v-1.47h1.28v-2.11
			h1.68v2.11h1.57v1.47h-1.57v4.05c0,0.28,0.06,0.5,0.19,0.66s0.31,0.25,0.54,0.25c0.34,0,0.59-0.09,0.75-0.27l0.4,1.26
			C92.47,166.58,91.95,166.75,91.24,166.75z"/>
		<path fill="#FFFFFF" d="M100.46,166.75c-0.65,0-1.14-0.17-1.48-0.51c-0.34-0.34-0.5-0.83-0.5-1.47v-4.46h-1.28v-1.47h1.28v-2.11
			h1.68v2.11h1.57v1.47h-1.57v4.05c0,0.28,0.06,0.5,0.19,0.66s0.31,0.25,0.54,0.25c0.34,0,0.59-0.09,0.75-0.27l0.4,1.26
			C101.69,166.58,101.16,166.75,100.46,166.75z"/>
		<path fill="#FFFFFF" d="M106.73,166.75c-1.19,0-2.15-0.39-2.88-1.18c-0.73-0.78-1.09-1.75-1.09-2.89s0.36-2.1,1.09-2.88
			s1.69-1.17,2.88-1.17c1.21,0,2.17,0.39,2.9,1.17c0.72,0.78,1.09,1.74,1.09,2.88c0,1.15-0.36,2.12-1.09,2.9
			C108.9,166.36,107.93,166.75,106.73,166.75z M106.73,165.26c0.69,0,1.24-0.25,1.64-0.74c0.4-0.5,0.6-1.11,0.6-1.83
			c0-0.71-0.2-1.32-0.6-1.82c-0.4-0.5-0.95-0.74-1.64-0.74c-0.68,0-1.22,0.25-1.62,0.74c-0.4,0.5-0.6,1.1-0.6,1.82
			c0,0.73,0.2,1.34,0.6,1.83S106.05,165.26,106.73,165.26z"/>
		<path fill="#FFFFFF" d="M127.66,166.56h-1.68v-5.04c0-0.93-0.42-1.39-1.26-1.39c-0.35,0-0.69,0.1-1.02,0.3
			c-0.33,0.2-0.59,0.44-0.77,0.72v5.41h-1.68v-5.04c0-0.93-0.43-1.39-1.28-1.39c-0.34,0-0.67,0.1-1,0.3
			c-0.33,0.2-0.58,0.45-0.78,0.74v5.39h-1.68v-7.73h1.68v1.06c0.19-0.29,0.53-0.57,1-0.84c0.47-0.27,0.98-0.41,1.51-0.41
			c1.12,0,1.82,0.47,2.11,1.42c0.25-0.38,0.61-0.72,1.09-1c0.48-0.28,0.99-0.42,1.54-0.42c1.48,0,2.22,0.78,2.22,2.34V166.56z"/>
		<path fill="#FFFFFF" d="M133.4,166.75c-1.17,0-2.14-0.38-2.9-1.13c-0.76-0.75-1.14-1.73-1.14-2.94c0-1.13,0.37-2.09,1.11-2.87
			c0.74-0.78,1.68-1.18,2.81-1.18c1.14,0,2.06,0.39,2.76,1.18c0.7,0.79,1.05,1.8,1.05,3.02v0.4h-5.97c0.06,0.61,0.31,1.11,0.75,1.52
			s1.01,0.61,1.71,0.61c0.39,0,0.79-0.08,1.19-0.22c0.4-0.15,0.73-0.36,1-0.62l0.77,1.1C135.76,166.37,134.71,166.75,133.4,166.75z
			 M135.45,162.06c-0.02-0.53-0.22-1.01-0.58-1.42s-0.9-0.62-1.59-0.62c-0.66,0-1.18,0.21-1.55,0.62c-0.37,0.41-0.58,0.89-0.62,1.43
			H135.45z"/>
		<path fill="#FFFFFF" d="M142.31,166.75c-1.17,0-2.14-0.38-2.9-1.13c-0.76-0.75-1.14-1.73-1.14-2.94c0-1.13,0.37-2.09,1.11-2.87
			c0.74-0.78,1.68-1.18,2.81-1.18c1.14,0,2.06,0.39,2.76,1.18c0.7,0.79,1.05,1.8,1.05,3.02v0.4h-5.97c0.06,0.61,0.31,1.11,0.75,1.52
			s1.01,0.61,1.71,0.61c0.39,0,0.79-0.08,1.19-0.22c0.4-0.15,0.73-0.36,1-0.62l0.77,1.1C144.67,166.37,143.63,166.75,142.31,166.75z
			 M144.36,162.06c-0.02-0.53-0.22-1.01-0.58-1.42s-0.9-0.62-1.59-0.62c-0.66,0-1.18,0.21-1.55,0.62c-0.37,0.41-0.58,0.89-0.62,1.43
			H144.36z"/>
		<path fill="#FFFFFF" d="M149.98,166.75c-0.65,0-1.14-0.17-1.48-0.51c-0.34-0.34-0.5-0.83-0.5-1.47v-4.46h-1.28v-1.47h1.28v-2.11
			h1.68v2.11h1.57v1.47h-1.57v4.05c0,0.28,0.06,0.5,0.19,0.66s0.31,0.25,0.54,0.25c0.34,0,0.59-0.09,0.75-0.27l0.4,1.26
			C151.21,166.58,150.68,166.75,149.98,166.75z"/>
		<path fill="#FFFFFF" d="M163.77,166.56h-1.68v-1.02c-0.73,0.81-1.64,1.22-2.74,1.22c-1.65,0-2.48-0.82-2.48-2.45v-5.47h1.68v4.86
			c0,0.57,0.13,0.97,0.4,1.21s0.65,0.36,1.15,0.36c0.41,0,0.78-0.1,1.14-0.29c0.35-0.19,0.63-0.43,0.85-0.72v-5.42h1.68V166.56z"/>
		<path fill="#FFFFFF" d="M168.58,166.75c-1.39,0-2.49-0.4-3.31-1.2l0.77-1.22c0.29,0.3,0.68,0.55,1.17,0.77
			c0.49,0.21,0.98,0.32,1.46,0.32c0.49,0,0.87-0.1,1.13-0.29c0.26-0.19,0.39-0.44,0.39-0.75c0-0.28-0.16-0.49-0.48-0.65
			c-0.32-0.15-0.71-0.28-1.17-0.37c-0.46-0.09-0.92-0.2-1.38-0.34c-0.46-0.13-0.85-0.37-1.17-0.71c-0.32-0.34-0.48-0.78-0.48-1.33
			c0-0.66,0.27-1.22,0.82-1.67c0.54-0.45,1.29-0.68,2.22-0.68c1.18,0,2.19,0.36,3.01,1.09l-0.7,1.18c-0.25-0.28-0.57-0.5-0.98-0.67
			c-0.41-0.17-0.84-0.26-1.31-0.26c-0.44,0-0.79,0.09-1.05,0.26c-0.26,0.18-0.39,0.4-0.39,0.68c0,0.21,0.11,0.39,0.34,0.52
			c0.23,0.13,0.52,0.23,0.86,0.3c0.35,0.06,0.72,0.15,1.13,0.26c0.41,0.11,0.78,0.24,1.13,0.39s0.63,0.39,0.86,0.73
			c0.23,0.34,0.34,0.74,0.34,1.22c0,0.7-0.28,1.28-0.85,1.73C170.39,166.52,169.6,166.75,168.58,166.75z"/>
		<path fill="#FFFFFF" d="M184.01,166.56h-1.68v-0.83c-0.6,0.68-1.43,1.02-2.5,1.02c-0.7,0-1.33-0.23-1.87-0.68
			c-0.54-0.45-0.82-1.08-0.82-1.88c0-0.82,0.27-1.45,0.81-1.87c0.54-0.43,1.17-0.64,1.88-0.64c1.1,0,1.93,0.33,2.5,0.99v-1.15
			c0-0.45-0.17-0.8-0.5-1.06c-0.33-0.26-0.77-0.38-1.31-0.38c-0.86,0-1.63,0.33-2.29,0.98l-0.69-1.17c0.87-0.83,1.96-1.25,3.25-1.25
			c0.95,0,1.72,0.22,2.32,0.67c0.6,0.45,0.9,1.16,0.9,2.13V166.56z M180.49,165.6c0.84,0,1.46-0.27,1.84-0.8v-1.17
			c-0.38-0.53-1-0.8-1.84-0.8c-0.48,0-0.87,0.13-1.18,0.38s-0.46,0.59-0.46,1.01s0.15,0.75,0.46,1S180.01,165.6,180.49,165.6z"/>
		<path fill="#FFFFFF" d="M193.08,166.56h-1.68v-4.83c0-1.07-0.52-1.6-1.55-1.6c-0.41,0-0.78,0.1-1.14,0.3
			c-0.35,0.2-0.63,0.45-0.85,0.74v5.39h-1.68v-7.73h1.68v1.06c0.29-0.34,0.67-0.63,1.15-0.88c0.48-0.25,1-0.37,1.57-0.37
			c0.82,0,1.44,0.21,1.86,0.64c0.42,0.43,0.63,1.04,0.63,1.84V166.56z"/>
		<path fill="#FFFFFF" d="M202.38,166.56h-1.68v-1.06c-0.64,0.83-1.47,1.25-2.48,1.25c-1.01,0-1.84-0.36-2.48-1.09
			c-0.64-0.72-0.96-1.71-0.96-2.96c0-1.24,0.32-2.22,0.96-2.96c0.64-0.74,1.47-1.1,2.48-1.1c1.01,0,1.84,0.42,2.48,1.26v-4.02h1.68
			V166.56z M198.7,165.26c0.39,0,0.78-0.1,1.15-0.29c0.37-0.19,0.66-0.44,0.85-0.74v-3.07c-0.19-0.3-0.47-0.55-0.85-0.74
			c-0.37-0.2-0.76-0.3-1.15-0.3c-0.66,0-1.19,0.24-1.58,0.72c-0.39,0.48-0.59,1.1-0.59,1.86c0,0.76,0.2,1.37,0.59,1.85
			S198.04,165.26,198.7,165.26z"/>
		<path fill="#FFFFFF" d="M215.77,166.56h-1.68v-1.06c-0.64,0.83-1.47,1.25-2.48,1.25c-1.01,0-1.84-0.36-2.48-1.09
			c-0.64-0.72-0.96-1.71-0.96-2.96c0-1.24,0.32-2.22,0.96-2.96c0.64-0.74,1.47-1.1,2.48-1.1c1.01,0,1.84,0.42,2.48,1.26v-4.02h1.68
			V166.56z M212.09,165.26c0.39,0,0.78-0.1,1.15-0.29s0.66-0.44,0.85-0.74v-3.07c-0.19-0.3-0.47-0.55-0.85-0.74s-0.76-0.3-1.15-0.3
			c-0.66,0-1.19,0.24-1.58,0.72c-0.39,0.48-0.59,1.1-0.59,1.86c0,0.76,0.2,1.37,0.59,1.85S211.43,165.26,212.09,165.26z"/>
		<path fill="#FFFFFF" d="M218.78,157.88c-0.28,0-0.52-0.1-0.73-0.3c-0.21-0.2-0.31-0.45-0.31-0.74s0.1-0.53,0.31-0.74
			c0.21-0.2,0.45-0.3,0.73-0.3c0.29,0,0.53,0.1,0.74,0.3c0.2,0.2,0.3,0.45,0.3,0.74s-0.1,0.53-0.3,0.74
			C219.31,157.78,219.06,157.88,218.78,157.88z M219.62,166.56h-1.68v-7.73h1.68V166.56z"/>
		<path fill="#FFFFFF" d="M224.44,166.75c-1.39,0-2.49-0.4-3.31-1.2l0.77-1.22c0.29,0.3,0.68,0.55,1.17,0.77
			c0.49,0.21,0.98,0.32,1.46,0.32c0.49,0,0.87-0.1,1.13-0.29c0.26-0.19,0.39-0.44,0.39-0.75c0-0.28-0.16-0.49-0.48-0.65
			c-0.32-0.15-0.71-0.28-1.17-0.37c-0.46-0.09-0.92-0.2-1.38-0.34c-0.46-0.13-0.85-0.37-1.17-0.71c-0.32-0.34-0.48-0.78-0.48-1.33
			c0-0.66,0.27-1.22,0.82-1.67c0.54-0.45,1.29-0.68,2.22-0.68c1.18,0,2.19,0.36,3.01,1.09l-0.7,1.18c-0.25-0.28-0.57-0.5-0.98-0.67
			c-0.41-0.17-0.84-0.26-1.31-0.26c-0.44,0-0.79,0.09-1.05,0.26c-0.26,0.18-0.39,0.4-0.39,0.68c0,0.21,0.11,0.39,0.34,0.52
			c0.23,0.13,0.52,0.23,0.86,0.3c0.35,0.06,0.72,0.15,1.13,0.26c0.41,0.11,0.78,0.24,1.13,0.39s0.63,0.39,0.86,0.73
			c0.23,0.34,0.34,0.74,0.34,1.22c0,0.7-0.28,1.28-0.85,1.73C226.24,166.52,225.45,166.75,224.44,166.75z"/>
		<path fill="#FFFFFF" d="M232.87,166.75c-1.17,0-2.13-0.38-2.88-1.14c-0.75-0.76-1.12-1.74-1.12-2.92c0-1.17,0.37-2.14,1.12-2.9
			c0.75-0.76,1.71-1.14,2.88-1.14c1.29,0,2.28,0.46,2.96,1.38l-1.1,1.02c-0.43-0.61-1.02-0.91-1.78-0.91c-0.7,0-1.27,0.24-1.7,0.71
			s-0.64,1.09-0.64,1.85c0,0.76,0.21,1.38,0.64,1.86c0.43,0.48,0.99,0.72,1.7,0.72c0.74,0,1.33-0.3,1.78-0.91l1.1,1.02
			C235.15,166.29,234.16,166.75,232.87,166.75z"/>
		<path fill="#FFFFFF" d="M244.2,166.56h-1.68v-1.02c-0.73,0.81-1.64,1.22-2.74,1.22c-1.65,0-2.48-0.82-2.48-2.45v-5.47h1.68v4.86
			c0,0.57,0.13,0.97,0.4,1.21s0.65,0.36,1.15,0.36c0.41,0,0.78-0.1,1.14-0.29c0.35-0.19,0.63-0.43,0.85-0.72v-5.42h1.68V166.56z"/>
		<path fill="#FFFFFF" d="M249.02,166.75c-1.39,0-2.49-0.4-3.31-1.2l0.77-1.22c0.29,0.3,0.68,0.55,1.17,0.77
			c0.49,0.21,0.98,0.32,1.46,0.32c0.49,0,0.87-0.1,1.13-0.29c0.26-0.19,0.39-0.44,0.39-0.75c0-0.28-0.16-0.49-0.48-0.65
			c-0.32-0.15-0.71-0.28-1.17-0.37c-0.46-0.09-0.92-0.2-1.38-0.34c-0.46-0.13-0.85-0.37-1.17-0.71c-0.32-0.34-0.48-0.78-0.48-1.33
			c0-0.66,0.27-1.22,0.82-1.67c0.54-0.45,1.29-0.68,2.22-0.68c1.18,0,2.19,0.36,3.01,1.09l-0.7,1.18c-0.25-0.28-0.57-0.5-0.98-0.67
			c-0.41-0.17-0.84-0.26-1.31-0.26c-0.44,0-0.79,0.09-1.05,0.26c-0.26,0.18-0.39,0.4-0.39,0.68c0,0.21,0.11,0.39,0.34,0.52
			c0.23,0.13,0.52,0.23,0.86,0.3c0.35,0.06,0.72,0.15,1.13,0.26c0.41,0.11,0.78,0.24,1.13,0.39s0.63,0.39,0.86,0.73
			c0.23,0.34,0.34,0.74,0.34,1.22c0,0.7-0.28,1.28-0.85,1.73C250.82,166.52,250.03,166.75,249.02,166.75z"/>
		<path fill="#FFFFFF" d="M256.57,166.75c-1.39,0-2.49-0.4-3.31-1.2l0.77-1.22c0.29,0.3,0.68,0.55,1.17,0.77
			c0.49,0.21,0.98,0.32,1.46,0.32c0.49,0,0.87-0.1,1.13-0.29c0.26-0.19,0.39-0.44,0.39-0.75c0-0.28-0.16-0.49-0.48-0.65
			c-0.32-0.15-0.71-0.28-1.17-0.37c-0.46-0.09-0.92-0.2-1.38-0.34c-0.46-0.13-0.85-0.37-1.17-0.71c-0.32-0.34-0.48-0.78-0.48-1.33
			c0-0.66,0.27-1.22,0.82-1.67c0.54-0.45,1.29-0.68,2.22-0.68c1.18,0,2.19,0.36,3.01,1.09l-0.7,1.18c-0.25-0.28-0.57-0.5-0.98-0.67
			c-0.41-0.17-0.84-0.26-1.31-0.26c-0.44,0-0.79,0.09-1.05,0.26c-0.26,0.18-0.39,0.4-0.39,0.68c0,0.21,0.11,0.39,0.34,0.52
			c0.23,0.13,0.52,0.23,0.86,0.3c0.35,0.06,0.72,0.15,1.13,0.26c0.41,0.11,0.78,0.24,1.13,0.39s0.63,0.39,0.86,0.73
			c0.23,0.34,0.34,0.74,0.34,1.22c0,0.7-0.28,1.28-0.85,1.73C258.37,166.52,257.58,166.75,256.57,166.75z"/>
		<path fill="#FFFFFF" d="M269.08,166.75c-1.19,0-2.15-0.39-2.88-1.18c-0.73-0.78-1.09-1.75-1.09-2.89s0.36-2.1,1.09-2.88
			s1.69-1.17,2.88-1.17c1.21,0,2.17,0.39,2.9,1.17c0.72,0.78,1.09,1.74,1.09,2.88c0,1.15-0.36,2.12-1.09,2.9
			C271.25,166.36,270.28,166.75,269.08,166.75z M269.08,165.26c0.69,0,1.24-0.25,1.64-0.74c0.4-0.5,0.6-1.11,0.6-1.83
			c0-0.71-0.2-1.32-0.6-1.82c-0.4-0.5-0.95-0.74-1.64-0.74c-0.68,0-1.22,0.25-1.62,0.74c-0.4,0.5-0.6,1.1-0.6,1.82
			c0,0.73,0.2,1.34,0.6,1.83S268.4,165.26,269.08,165.26z"/>
		<path fill="#FFFFFF" d="M281.66,166.56h-1.68v-1.02c-0.73,0.81-1.64,1.22-2.74,1.22c-1.65,0-2.48-0.82-2.48-2.45v-5.47h1.68v4.86
			c0,0.57,0.13,0.97,0.4,1.21s0.65,0.36,1.15,0.36c0.41,0,0.78-0.1,1.14-0.29c0.35-0.19,0.63-0.43,0.85-0.72v-5.42h1.68V166.56z"/>
		<path fill="#FFFFFF" d="M285.51,166.56h-1.68v-7.73h1.68v1.14c0.3-0.38,0.67-0.7,1.12-0.94c0.45-0.25,0.91-0.37,1.39-0.37v1.66
			c-0.15-0.03-0.33-0.05-0.53-0.05c-0.35,0-0.73,0.1-1.13,0.31c-0.4,0.21-0.69,0.45-0.86,0.71V166.56z"/>
		<path fill="#FFFFFF" d="M296.98,166.75c-1.19,0-2.15-0.39-2.88-1.18c-0.73-0.78-1.09-1.75-1.09-2.89s0.36-2.1,1.09-2.88
			s1.69-1.17,2.88-1.17c1.21,0,2.17,0.39,2.9,1.17c0.72,0.78,1.09,1.74,1.09,2.88c0,1.15-0.36,2.12-1.09,2.9
			C299.15,166.36,298.19,166.75,296.98,166.75z M296.98,165.26c0.69,0,1.24-0.25,1.64-0.74c0.4-0.5,0.6-1.11,0.6-1.83
			c0-0.71-0.2-1.32-0.6-1.82c-0.4-0.5-0.95-0.74-1.64-0.74c-0.68,0-1.22,0.25-1.62,0.74c-0.4,0.5-0.6,1.1-0.6,1.82
			c0,0.73,0.2,1.34,0.6,1.83S296.3,165.26,296.98,165.26z"/>
		<path fill="#FFFFFF" d="M306.82,166.75c-1.02,0-1.85-0.42-2.48-1.26v4.02h-1.68v-10.67h1.68v1.06c0.62-0.83,1.45-1.25,2.48-1.25
			c1.01,0,1.84,0.36,2.47,1.09c0.63,0.73,0.95,1.71,0.95,2.96s-0.32,2.24-0.95,2.97C308.66,166.38,307.84,166.75,306.82,166.75z
			 M306.33,165.26c0.66,0,1.19-0.24,1.58-0.72c0.39-0.48,0.59-1.1,0.59-1.86c0-0.76-0.2-1.37-0.59-1.85s-0.92-0.71-1.58-0.71
			c-0.38,0-0.76,0.1-1.14,0.3c-0.37,0.2-0.66,0.45-0.85,0.74v3.06c0.19,0.29,0.47,0.53,0.85,0.74
			C305.56,165.16,305.94,165.26,306.33,165.26z"/>
		<path fill="#FFFFFF" d="M314.23,166.75c-0.65,0-1.14-0.17-1.48-0.51c-0.34-0.34-0.5-0.83-0.5-1.47v-4.46h-1.28v-1.47h1.28v-2.11
			h1.68v2.11h1.57v1.47h-1.57v4.05c0,0.28,0.06,0.5,0.19,0.66s0.31,0.25,0.54,0.25c0.34,0,0.59-0.09,0.75-0.27l0.4,1.26
			C315.46,166.58,314.93,166.75,314.23,166.75z"/>
		<path fill="#FFFFFF" d="M317.85,157.88c-0.28,0-0.52-0.1-0.73-0.3c-0.21-0.2-0.31-0.45-0.31-0.74s0.1-0.53,0.31-0.74
			c0.21-0.2,0.45-0.3,0.73-0.3c0.29,0,0.53,0.1,0.74,0.3c0.2,0.2,0.3,0.45,0.3,0.74s-0.1,0.53-0.3,0.74
			C318.38,157.78,318.13,157.88,317.85,157.88z M318.69,166.56h-1.68v-7.73h1.68V166.56z"/>
		<path fill="#FFFFFF" d="M324.36,166.75c-1.2,0-2.16-0.39-2.88-1.18c-0.72-0.78-1.09-1.75-1.09-2.89s0.36-2.1,1.09-2.88
			c0.73-0.78,1.69-1.17,2.88-1.17c1.21,0,2.17,0.39,2.9,1.17s1.09,1.74,1.09,2.88c0,1.15-0.36,2.12-1.09,2.9
			C326.53,166.36,325.56,166.75,324.36,166.75z M324.36,165.26c0.69,0,1.24-0.25,1.64-0.74s0.6-1.11,0.6-1.83
			c0-0.71-0.2-1.32-0.6-1.82c-0.4-0.5-0.95-0.74-1.64-0.74c-0.68,0-1.22,0.25-1.62,0.74c-0.4,0.5-0.6,1.1-0.6,1.82
			c0,0.73,0.2,1.34,0.6,1.83C323.13,165.01,323.67,165.26,324.36,165.26z"/>
		<path fill="#FFFFFF" d="M336.93,166.56h-1.68v-4.83c0-1.07-0.52-1.6-1.55-1.6c-0.41,0-0.78,0.1-1.14,0.3
			c-0.35,0.2-0.63,0.45-0.85,0.74v5.39h-1.68v-7.73h1.68v1.06c0.29-0.34,0.67-0.63,1.15-0.88c0.48-0.25,1-0.37,1.57-0.37
			c0.82,0,1.44,0.21,1.86,0.64c0.42,0.43,0.63,1.04,0.63,1.84V166.56z"/>
		<path fill="#FFFFFF" d="M341.75,166.75c-1.39,0-2.49-0.4-3.31-1.2l0.77-1.22c0.29,0.3,0.68,0.55,1.17,0.77
			c0.49,0.21,0.98,0.32,1.46,0.32c0.49,0,0.87-0.1,1.13-0.29c0.26-0.19,0.39-0.44,0.39-0.75c0-0.28-0.16-0.49-0.48-0.65
			c-0.32-0.15-0.71-0.28-1.17-0.37c-0.46-0.09-0.92-0.2-1.38-0.34c-0.46-0.13-0.85-0.37-1.17-0.71c-0.32-0.34-0.48-0.78-0.48-1.33
			c0-0.66,0.27-1.22,0.82-1.67c0.54-0.45,1.29-0.68,2.22-0.68c1.18,0,2.19,0.36,3.01,1.09l-0.7,1.18c-0.25-0.28-0.57-0.5-0.98-0.67
			c-0.41-0.17-0.84-0.26-1.31-0.26c-0.44,0-0.79,0.09-1.05,0.26c-0.26,0.18-0.39,0.4-0.39,0.68c0,0.21,0.11,0.39,0.34,0.52
			c0.23,0.13,0.52,0.23,0.86,0.3c0.35,0.06,0.72,0.15,1.13,0.26c0.41,0.11,0.78,0.24,1.13,0.39s0.63,0.39,0.86,0.73
			c0.23,0.34,0.34,0.74,0.34,1.22c0,0.7-0.28,1.28-0.85,1.73C343.55,166.52,342.76,166.75,341.75,166.75z"/>
		<path fill="#FFFFFF" d="M348.74,165.95c0,0.53-0.14,1.04-0.41,1.53c-0.27,0.49-0.64,0.89-1.1,1.21l-0.75-0.62
			c0.27-0.16,0.51-0.38,0.74-0.67c0.22-0.29,0.36-0.57,0.42-0.83c-0.1,0.03-0.19,0.05-0.27,0.05c-0.28,0-0.51-0.09-0.69-0.28
			c-0.18-0.19-0.27-0.43-0.27-0.73s0.11-0.56,0.32-0.78c0.21-0.22,0.47-0.33,0.77-0.33c0.34,0,0.63,0.13,0.88,0.39
			C348.62,165.15,348.74,165.5,348.74,165.95z"/>
		<path fill="#FFFFFF" d="M356.6,166.56h-1.87v-10.67h1.87V166.56z"/>
	</g>
	<g>
		<g>
			<path fill="#FFFFFF" d="M72.59,199.56h-2.11l-2.37-3.18l-1.07,1.1v2.08h-1.68v-10.67h1.68v6.67l3.41-3.73h2.08l-3.22,3.5
				L72.59,199.56z"/>
			<path fill="#FFFFFF" d="M80.67,199.56h-1.68v-4.83c0-1.07-0.52-1.6-1.55-1.6c-0.41,0-0.78,0.1-1.14,0.3
				c-0.35,0.2-0.63,0.45-0.85,0.74v5.39h-1.68v-7.73h1.68v1.06c0.29-0.34,0.67-0.63,1.15-0.88s1-0.37,1.57-0.37
				c0.82,0,1.44,0.21,1.86,0.64c0.42,0.43,0.63,1.04,0.63,1.84V199.56z"/>
			<path fill="#FFFFFF" d="M86.41,199.75c-1.17,0-2.14-0.38-2.9-1.13c-0.76-0.75-1.14-1.73-1.14-2.94c0-1.13,0.37-2.09,1.11-2.87
				c0.74-0.78,1.68-1.18,2.81-1.18c1.14,0,2.06,0.39,2.76,1.18c0.7,0.79,1.05,1.8,1.05,3.02v0.4h-5.97
				c0.06,0.61,0.31,1.11,0.75,1.52c0.44,0.41,1.01,0.61,1.71,0.61c0.39,0,0.79-0.08,1.19-0.22s0.73-0.36,1-0.62l0.77,1.1
				C88.77,199.37,87.72,199.75,86.41,199.75z M88.46,195.06c-0.02-0.53-0.22-1.01-0.58-1.42c-0.37-0.42-0.9-0.62-1.59-0.62
				c-0.66,0-1.18,0.21-1.55,0.62c-0.37,0.41-0.58,0.89-0.62,1.43H88.46z"/>
			<path fill="#FFFFFF" d="M100.25,199.56h-1.76l-1.79-5.66l-1.79,5.66h-1.76l-2.4-7.73h1.74l1.63,5.62l1.84-5.62h1.47l1.84,5.62
				l1.63-5.62h1.74L100.25,199.56z"/>
			<path fill="#FFFFFF" d="M110.23,199.75c-0.65,0-1.14-0.17-1.48-0.51c-0.34-0.34-0.5-0.83-0.5-1.47v-4.46h-1.28v-1.47h1.28v-2.11
				h1.68v2.11h1.57v1.47h-1.57v4.05c0,0.28,0.06,0.5,0.19,0.66s0.31,0.25,0.54,0.25c0.34,0,0.59-0.09,0.75-0.27l0.4,1.26
				C111.47,199.58,110.94,199.75,110.23,199.75z"/>
			<path fill="#FFFFFF" d="M119.93,199.56h-1.68v-4.86c0-0.57-0.14-0.97-0.41-1.21c-0.27-0.24-0.66-0.36-1.16-0.36
				c-0.39,0-0.77,0.1-1.12,0.3c-0.35,0.2-0.64,0.45-0.86,0.74v5.39h-1.68v-10.67h1.68v4c0.29-0.34,0.67-0.63,1.16-0.88
				c0.48-0.25,1.01-0.37,1.58-0.37c1.66,0,2.5,0.82,2.5,2.45V199.56z"/>
			<path fill="#FFFFFF" d="M122.94,190.88c-0.28,0-0.52-0.1-0.73-0.3c-0.21-0.2-0.31-0.45-0.31-0.74s0.1-0.53,0.31-0.74
				c0.21-0.2,0.45-0.3,0.73-0.3c0.29,0,0.53,0.1,0.74,0.3c0.2,0.2,0.3,0.45,0.3,0.74s-0.1,0.53-0.3,0.74
				C123.47,190.78,123.23,190.88,122.94,190.88z M123.79,199.56h-1.68v-7.73h1.68V199.56z"/>
			<path fill="#FFFFFF" d="M128.6,199.75c-1.39,0-2.49-0.4-3.31-1.2l0.77-1.22c0.29,0.3,0.68,0.55,1.17,0.77
				c0.49,0.21,0.98,0.32,1.46,0.32c0.49,0,0.87-0.1,1.13-0.29c0.26-0.19,0.39-0.44,0.39-0.75c0-0.28-0.16-0.49-0.48-0.65
				c-0.32-0.15-0.71-0.28-1.17-0.37c-0.46-0.09-0.92-0.2-1.38-0.34c-0.46-0.13-0.85-0.37-1.17-0.71c-0.32-0.34-0.48-0.78-0.48-1.33
				c0-0.66,0.27-1.22,0.82-1.67c0.54-0.45,1.29-0.68,2.22-0.68c1.18,0,2.19,0.36,3.01,1.09l-0.7,1.18c-0.25-0.28-0.57-0.5-0.98-0.67
				c-0.41-0.17-0.84-0.26-1.31-0.26c-0.44,0-0.79,0.09-1.05,0.26c-0.26,0.18-0.39,0.4-0.39,0.68c0,0.21,0.11,0.39,0.34,0.52
				c0.23,0.13,0.52,0.23,0.86,0.3c0.35,0.06,0.72,0.15,1.13,0.26c0.41,0.11,0.78,0.24,1.13,0.39s0.63,0.39,0.86,0.73
				c0.23,0.34,0.34,0.74,0.34,1.22c0,0.7-0.28,1.28-0.85,1.73C130.4,199.52,129.61,199.75,128.6,199.75z"/>
			<path fill="#FFFFFF" d="M146.12,199.56h-1.76l-1.79-5.66l-1.79,5.66h-1.76l-2.4-7.73h1.74l1.63,5.62l1.84-5.62h1.47l1.84,5.62
				l1.63-5.62h1.74L146.12,199.56z"/>
			<path fill="#FFFFFF" d="M156.09,199.56h-1.68v-0.83c-0.6,0.68-1.43,1.02-2.5,1.02c-0.7,0-1.33-0.23-1.87-0.68
				c-0.54-0.45-0.82-1.08-0.82-1.88c0-0.82,0.27-1.45,0.81-1.87c0.54-0.43,1.17-0.64,1.88-0.64c1.1,0,1.93,0.33,2.5,0.99v-1.15
				c0-0.45-0.17-0.8-0.5-1.06s-0.77-0.38-1.31-0.38c-0.86,0-1.63,0.33-2.29,0.98l-0.69-1.17c0.87-0.83,1.96-1.25,3.25-1.25
				c0.95,0,1.72,0.22,2.32,0.67c0.6,0.45,0.9,1.16,0.9,2.13V199.56z M152.57,198.6c0.84,0,1.46-0.27,1.84-0.8v-1.17
				c-0.38-0.53-1-0.8-1.84-0.8c-0.48,0-0.87,0.13-1.18,0.38c-0.31,0.26-0.46,0.59-0.46,1.01s0.15,0.75,0.46,1
				C151.69,198.47,152.09,198.6,152.57,198.6z"/>
			<path fill="#FFFFFF" d="M160.91,199.75c-1.39,0-2.49-0.4-3.31-1.2l0.77-1.22c0.29,0.3,0.68,0.55,1.17,0.77
				c0.49,0.21,0.98,0.32,1.46,0.32c0.49,0,0.87-0.1,1.13-0.29c0.26-0.19,0.39-0.44,0.39-0.75c0-0.28-0.16-0.49-0.48-0.65
				c-0.32-0.15-0.71-0.28-1.17-0.37c-0.46-0.09-0.92-0.2-1.38-0.34c-0.46-0.13-0.85-0.37-1.17-0.71c-0.32-0.34-0.48-0.78-0.48-1.33
				c0-0.66,0.27-1.22,0.82-1.67c0.54-0.45,1.29-0.68,2.22-0.68c1.18,0,2.19,0.36,3.01,1.09l-0.7,1.18c-0.25-0.28-0.57-0.5-0.98-0.67
				c-0.41-0.17-0.84-0.26-1.31-0.26c-0.44,0-0.79,0.09-1.05,0.26c-0.26,0.18-0.39,0.4-0.39,0.68c0,0.21,0.11,0.39,0.34,0.52
				c0.23,0.13,0.52,0.23,0.86,0.3c0.35,0.06,0.72,0.15,1.13,0.26c0.41,0.11,0.78,0.24,1.13,0.39s0.63,0.39,0.86,0.73
				c0.23,0.34,0.34,0.74,0.34,1.22c0,0.7-0.28,1.28-0.85,1.73C162.71,199.52,161.92,199.75,160.91,199.75z"/>
			<path fill="#FFFFFF" d="M172.25,199.75c-0.65,0-1.14-0.17-1.48-0.51c-0.34-0.34-0.5-0.83-0.5-1.47v-4.46h-1.28v-1.47h1.28v-2.11
				h1.68v2.11h1.57v1.47h-1.57v4.05c0,0.28,0.06,0.5,0.19,0.66s0.31,0.25,0.54,0.25c0.34,0,0.59-0.09,0.75-0.27l0.4,1.26
				C173.48,199.58,172.95,199.75,172.25,199.75z"/>
			<path fill="#FFFFFF" d="M181.94,199.56h-1.68v-4.86c0-0.57-0.14-0.97-0.41-1.21c-0.27-0.24-0.66-0.36-1.16-0.36
				c-0.39,0-0.77,0.1-1.12,0.3c-0.35,0.2-0.64,0.45-0.86,0.74v5.39h-1.68v-10.67h1.68v4c0.29-0.34,0.67-0.63,1.16-0.88
				c0.48-0.25,1.01-0.37,1.58-0.37c1.66,0,2.5,0.82,2.5,2.45V199.56z"/>
			<path fill="#FFFFFF" d="M187.69,199.75c-1.17,0-2.14-0.38-2.9-1.13c-0.76-0.75-1.14-1.73-1.14-2.94c0-1.13,0.37-2.09,1.11-2.87
				c0.74-0.78,1.68-1.18,2.81-1.18c1.14,0,2.06,0.39,2.76,1.18c0.7,0.79,1.05,1.8,1.05,3.02v0.4h-5.97
				c0.06,0.61,0.31,1.11,0.75,1.52c0.44,0.41,1.01,0.61,1.71,0.61c0.39,0,0.79-0.08,1.19-0.22s0.73-0.36,1-0.62l0.77,1.1
				C190.05,199.37,189,199.75,187.69,199.75z M189.74,195.06c-0.02-0.53-0.22-1.01-0.58-1.42c-0.37-0.42-0.9-0.62-1.59-0.62
				c-0.66,0-1.18,0.21-1.55,0.62c-0.37,0.41-0.58,0.89-0.62,1.43H189.74z"/>
			<path fill="#FFFFFF" d="M198.82,199.56h-1.68v-7.73h1.68v1.14c0.3-0.38,0.67-0.7,1.12-0.94c0.45-0.25,0.91-0.37,1.39-0.37v1.66
				c-0.15-0.03-0.33-0.05-0.53-0.05c-0.35,0-0.73,0.1-1.13,0.31s-0.69,0.45-0.86,0.71V199.56z"/>
			<path fill="#FFFFFF" d="M203.53,190.88c-0.28,0-0.52-0.1-0.73-0.3c-0.21-0.2-0.31-0.45-0.31-0.74s0.1-0.53,0.31-0.74
				c0.21-0.2,0.45-0.3,0.73-0.3c0.29,0,0.53,0.1,0.74,0.3c0.2,0.2,0.3,0.45,0.3,0.74s-0.1,0.53-0.3,0.74
				C204.06,190.78,203.82,190.88,203.53,190.88z M204.38,199.56h-1.68v-7.73h1.68V199.56z"/>
			<path fill="#FFFFFF" d="M209.69,202.69c-1.31,0-2.39-0.38-3.23-1.15l0.78-1.22c0.58,0.66,1.39,0.99,2.45,0.99
				c0.64,0,1.18-0.17,1.62-0.5c0.44-0.34,0.66-0.87,0.66-1.59v-0.93c-0.66,0.85-1.49,1.28-2.48,1.28c-1.01,0-1.84-0.35-2.47-1.06
				c-0.63-0.7-0.95-1.67-0.95-2.91c0-1.23,0.32-2.19,0.95-2.9c0.63-0.71,1.46-1.06,2.47-1.06c1.01,0,1.84,0.42,2.48,1.26v-1.07h1.68
				v7.33c0,0.66-0.12,1.24-0.34,1.72c-0.23,0.49-0.54,0.85-0.94,1.1s-0.81,0.43-1.26,0.54C210.68,202.64,210.2,202.69,209.69,202.69
				z M209.99,198.08c0.38,0,0.76-0.1,1.14-0.3c0.37-0.2,0.66-0.45,0.85-0.74v-2.88c-0.19-0.29-0.48-0.53-0.85-0.74
				c-0.37-0.2-0.75-0.3-1.14-0.3c-0.66,0-1.19,0.23-1.58,0.68s-0.59,1.05-0.59,1.8c0,0.75,0.2,1.35,0.59,1.8
				C208.8,197.86,209.33,198.08,209.99,198.08z"/>
			<path fill="#FFFFFF" d="M222.74,199.56h-1.68v-4.86c0-0.57-0.14-0.97-0.41-1.21c-0.27-0.24-0.66-0.36-1.16-0.36
				c-0.39,0-0.77,0.1-1.12,0.3c-0.35,0.2-0.64,0.45-0.86,0.74v5.39h-1.68v-10.67h1.68v4c0.29-0.34,0.67-0.63,1.16-0.88
				s1.01-0.37,1.58-0.37c1.66,0,2.5,0.82,2.5,2.45V199.56z"/>
			<path fill="#FFFFFF" d="M227.24,199.75c-0.65,0-1.14-0.17-1.48-0.51c-0.34-0.34-0.5-0.83-0.5-1.47v-4.46h-1.28v-1.47h1.28v-2.11
				h1.68v2.11h1.57v1.47h-1.57v4.05c0,0.28,0.06,0.5,0.19,0.66s0.31,0.25,0.54,0.25c0.34,0,0.59-0.09,0.75-0.27l0.4,1.26
				C228.47,199.58,227.94,199.75,227.24,199.75z"/>
			<path fill="#FFFFFF" d="M237.66,199.75c-1.17,0-2.13-0.38-2.88-1.14c-0.75-0.76-1.12-1.74-1.12-2.92c0-1.17,0.37-2.14,1.12-2.9
				c0.75-0.76,1.71-1.14,2.88-1.14c1.29,0,2.28,0.46,2.96,1.38l-1.1,1.02c-0.43-0.61-1.02-0.91-1.78-0.91c-0.7,0-1.27,0.24-1.7,0.71
				c-0.43,0.47-0.64,1.09-0.64,1.85c0,0.76,0.21,1.38,0.64,1.86c0.43,0.48,0.99,0.72,1.7,0.72c0.74,0,1.33-0.3,1.78-0.91l1.1,1.02
				C239.93,199.29,238.95,199.75,237.66,199.75z"/>
			<path fill="#FFFFFF" d="M249,199.56h-1.68v-4.86c0-0.57-0.14-0.97-0.41-1.21c-0.27-0.24-0.66-0.36-1.16-0.36
				c-0.39,0-0.77,0.1-1.12,0.3c-0.35,0.2-0.64,0.45-0.86,0.74v5.39h-1.68v-10.67h1.68v4c0.29-0.34,0.67-0.63,1.16-0.88
				c0.48-0.25,1.01-0.37,1.58-0.37c1.66,0,2.5,0.82,2.5,2.45V199.56z"/>
			<path fill="#FFFFFF" d="M254.66,199.75c-1.19,0-2.15-0.39-2.88-1.18c-0.73-0.78-1.09-1.75-1.09-2.89s0.36-2.1,1.09-2.88
				s1.69-1.17,2.88-1.17c1.21,0,2.17,0.39,2.9,1.17c0.72,0.78,1.09,1.74,1.09,2.88c0,1.15-0.36,2.12-1.09,2.9
				C256.83,199.36,255.87,199.75,254.66,199.75z M254.66,198.26c0.69,0,1.24-0.25,1.64-0.74c0.4-0.5,0.6-1.11,0.6-1.83
				c0-0.71-0.2-1.32-0.6-1.82c-0.4-0.5-0.95-0.74-1.64-0.74c-0.68,0-1.22,0.25-1.62,0.74c-0.4,0.5-0.6,1.1-0.6,1.82
				c0,0.73,0.2,1.34,0.6,1.83S253.98,198.26,254.66,198.26z"/>
			<path fill="#FFFFFF" d="M261.17,190.88c-0.28,0-0.52-0.1-0.73-0.3c-0.21-0.2-0.31-0.45-0.31-0.74s0.1-0.53,0.31-0.74
				c0.21-0.2,0.45-0.3,0.73-0.3c0.29,0,0.53,0.1,0.74,0.3c0.2,0.2,0.3,0.45,0.3,0.74s-0.1,0.53-0.3,0.74
				C261.71,190.78,261.46,190.88,261.17,190.88z M262.02,199.56h-1.68v-7.73h1.68V199.56z"/>
			<path fill="#FFFFFF" d="M267.72,199.75c-1.17,0-2.13-0.38-2.88-1.14c-0.75-0.76-1.12-1.74-1.12-2.92c0-1.17,0.37-2.14,1.12-2.9
				c0.75-0.76,1.71-1.14,2.88-1.14c1.29,0,2.28,0.46,2.96,1.38l-1.1,1.02c-0.43-0.61-1.02-0.91-1.78-0.91c-0.7,0-1.27,0.24-1.7,0.71
				c-0.43,0.47-0.64,1.09-0.64,1.85c0,0.76,0.21,1.38,0.64,1.86c0.43,0.48,0.99,0.72,1.7,0.72c0.74,0,1.33-0.3,1.78-0.91l1.1,1.02
				C270,199.29,269.01,199.75,267.72,199.75z"/>
			<path fill="#FFFFFF" d="M275.72,199.75c-1.17,0-2.14-0.38-2.9-1.13c-0.76-0.75-1.14-1.73-1.14-2.94c0-1.13,0.37-2.09,1.11-2.87
				s1.68-1.18,2.81-1.18c1.14,0,2.06,0.39,2.76,1.18c0.7,0.79,1.05,1.8,1.05,3.02v0.4h-5.97c0.06,0.61,0.31,1.11,0.75,1.52
				c0.44,0.41,1.01,0.61,1.71,0.61c0.39,0,0.79-0.08,1.19-0.22c0.4-0.15,0.73-0.36,1-0.62l0.77,1.1
				C278.08,199.37,277.03,199.75,275.72,199.75z M277.77,195.06c-0.02-0.53-0.22-1.01-0.58-1.42c-0.37-0.42-0.9-0.62-1.59-0.62
				c-0.66,0-1.18,0.21-1.55,0.62c-0.37,0.41-0.58,0.89-0.62,1.43H277.77z"/>
			<path fill="#FFFFFF" d="M287.25,199.56h-1.68v-6.26h-1.28v-1.47h1.28v-0.43c0-0.83,0.22-1.49,0.66-1.96
				c0.44-0.47,1.04-0.71,1.78-0.71c0.8,0,1.42,0.22,1.86,0.67l-0.66,1.04c-0.25-0.22-0.54-0.34-0.9-0.34
				c-0.33,0-0.59,0.11-0.78,0.33c-0.19,0.22-0.29,0.54-0.29,0.97v0.43h1.57v1.47h-1.57V199.56z"/>
			<path fill="#FFFFFF" d="M293.59,199.75c-1.19,0-2.15-0.39-2.88-1.18c-0.73-0.78-1.09-1.75-1.09-2.89s0.36-2.1,1.09-2.88
				s1.69-1.17,2.88-1.17c1.21,0,2.17,0.39,2.9,1.17c0.72,0.78,1.09,1.74,1.09,2.88c0,1.15-0.36,2.12-1.09,2.9
				C295.76,199.36,294.8,199.75,293.59,199.75z M293.59,198.26c0.69,0,1.24-0.25,1.64-0.74c0.4-0.5,0.6-1.11,0.6-1.83
				c0-0.71-0.2-1.32-0.6-1.82c-0.4-0.5-0.95-0.74-1.64-0.74c-0.68,0-1.22,0.25-1.62,0.74c-0.4,0.5-0.6,1.1-0.6,1.82
				c0,0.73,0.2,1.34,0.6,1.83S292.91,198.26,293.59,198.26z"/>
			<path fill="#FFFFFF" d="M300.95,199.56h-1.68v-7.73h1.68v1.14c0.3-0.38,0.67-0.7,1.12-0.94c0.45-0.25,0.91-0.37,1.39-0.37v1.66
				c-0.15-0.03-0.33-0.05-0.53-0.05c-0.35,0-0.73,0.1-1.13,0.31c-0.4,0.21-0.69,0.45-0.86,0.71V199.56z"/>
			<path fill="#FFFFFF" d="M320.09,199.56h-1.68v-5.04c0-0.93-0.42-1.39-1.26-1.39c-0.35,0-0.69,0.1-1.02,0.3
				c-0.33,0.2-0.59,0.44-0.77,0.72v5.41h-1.68v-5.04c0-0.93-0.43-1.39-1.28-1.39c-0.34,0-0.67,0.1-1,0.3
				c-0.33,0.2-0.58,0.45-0.78,0.74v5.39h-1.68v-7.73h1.68v1.06c0.19-0.29,0.53-0.57,1-0.84c0.47-0.27,0.98-0.41,1.51-0.41
				c1.12,0,1.82,0.47,2.11,1.42c0.25-0.38,0.61-0.72,1.09-1c0.48-0.28,0.99-0.42,1.54-0.42c1.48,0,2.22,0.78,2.22,2.34V199.56z"/>
			<path fill="#FFFFFF" d="M321.93,202.58l0.26-1.5c0.19,0.09,0.41,0.13,0.64,0.13c0.54,0,0.91-0.22,1.1-0.67l0.38-0.88l-3.17-7.82
				h1.79l2.26,5.79l2.26-5.79h1.81l-3.73,9.12c-0.46,1.14-1.34,1.72-2.66,1.74C322.52,202.69,322.2,202.65,321.93,202.58z"/>
			<path fill="#FFFFFF" d="M342.92,199.56h-1.76l-1.79-5.66l-1.79,5.66h-1.76l-2.4-7.73h1.74l1.63,5.62l1.84-5.62h1.47l1.84,5.62
				l1.63-5.62h1.74L342.92,199.56z"/>
			<path fill="#FFFFFF" d="M347.32,190.88c-0.28,0-0.52-0.1-0.73-0.3c-0.21-0.2-0.31-0.45-0.31-0.74s0.1-0.53,0.31-0.74
				c0.21-0.2,0.45-0.3,0.73-0.3c0.29,0,0.53,0.1,0.74,0.3c0.2,0.2,0.3,0.45,0.3,0.74s-0.1,0.53-0.3,0.74
				C347.85,190.78,347.61,190.88,347.32,190.88z M348.17,199.56h-1.68v-7.73h1.68V199.56z"/>
			<path fill="#FFFFFF" d="M352.42,199.56h-1.68v-6.26h-1.28v-1.47h1.28v-0.43c0-0.83,0.22-1.49,0.66-1.96s1.04-0.71,1.78-0.71
				c0.8,0,1.42,0.22,1.86,0.67l-0.66,1.04c-0.25-0.22-0.54-0.34-0.9-0.34c-0.33,0-0.59,0.11-0.78,0.33
				c-0.19,0.22-0.29,0.54-0.29,0.97v0.43h1.57v1.47h-1.57V199.56z"/>
			<path fill="#FFFFFF" d="M358.84,199.75c-1.17,0-2.14-0.38-2.9-1.13c-0.76-0.75-1.14-1.73-1.14-2.94c0-1.13,0.37-2.09,1.11-2.87
				s1.68-1.18,2.81-1.18c1.14,0,2.06,0.39,2.76,1.18c0.7,0.79,1.05,1.8,1.05,3.02v0.4h-5.97c0.06,0.61,0.31,1.11,0.75,1.52
				c0.44,0.41,1.01,0.61,1.71,0.61c0.39,0,0.79-0.08,1.19-0.22c0.4-0.15,0.73-0.36,1-0.62l0.77,1.1
				C361.2,199.37,360.15,199.75,358.84,199.75z M360.89,195.06c-0.02-0.53-0.22-1.01-0.58-1.42c-0.37-0.42-0.9-0.62-1.59-0.62
				c-0.66,0-1.18,0.21-1.55,0.62c-0.37,0.41-0.58,0.89-0.62,1.43H360.89z"/>
		</g>
		<g>
			<path fill="#FFFFFF" d="M170.83,232.56h-1.68v-0.83c-0.6,0.68-1.43,1.02-2.5,1.02c-0.7,0-1.33-0.23-1.87-0.68
				c-0.54-0.45-0.82-1.08-0.82-1.88c0-0.82,0.27-1.45,0.81-1.87c0.54-0.43,1.17-0.64,1.88-0.64c1.1,0,1.93,0.33,2.5,0.99v-1.15
				c0-0.45-0.17-0.8-0.5-1.06c-0.33-0.26-0.77-0.38-1.31-0.38c-0.86,0-1.63,0.33-2.29,0.98l-0.69-1.17
				c0.88-0.83,1.96-1.25,3.25-1.25c0.95,0,1.72,0.22,2.32,0.67s0.9,1.16,0.9,2.13V232.56z M167.31,231.6c0.84,0,1.46-0.27,1.84-0.8
				v-1.17c-0.38-0.53-1-0.8-1.84-0.8c-0.48,0-0.88,0.13-1.18,0.38c-0.31,0.26-0.46,0.59-0.46,1.01s0.16,0.75,0.46,1
				C166.44,231.47,166.83,231.6,167.31,231.6z"/>
			<path fill="#FFFFFF" d="M179.91,232.56h-1.68v-4.83c0-1.07-0.52-1.6-1.55-1.6c-0.41,0-0.78,0.1-1.14,0.3
				c-0.35,0.2-0.63,0.45-0.85,0.74v5.39h-1.68v-7.73h1.68v1.06c0.29-0.34,0.67-0.63,1.15-0.88c0.48-0.25,1-0.37,1.57-0.37
				c0.82,0,1.44,0.21,1.86,0.64c0.42,0.43,0.63,1.04,0.63,1.84V232.56z"/>
			<path fill="#FFFFFF" d="M189.2,232.56h-1.68v-1.06c-0.64,0.83-1.47,1.25-2.48,1.25c-1.01,0-1.84-0.36-2.48-1.09
				c-0.64-0.72-0.96-1.71-0.96-2.96c0-1.24,0.32-2.22,0.96-2.96c0.64-0.74,1.47-1.1,2.48-1.1c1.01,0,1.84,0.42,2.48,1.26v-4.02h1.68
				V232.56z M185.52,231.26c0.39,0,0.78-0.1,1.15-0.29s0.66-0.44,0.85-0.74v-3.07c-0.19-0.3-0.47-0.55-0.85-0.74s-0.76-0.3-1.15-0.3
				c-0.66,0-1.19,0.24-1.58,0.72c-0.39,0.48-0.59,1.1-0.59,1.86c0,0.76,0.2,1.37,0.59,1.85S184.86,231.26,185.52,231.26z"/>
			<path fill="#FFFFFF" d="M197.39,232.56h-1.87v-10.67h1.87V232.56z"/>
			<path fill="#FFFFFF" d="M206.05,232.75c-0.65,0-1.14-0.17-1.48-0.51c-0.34-0.34-0.5-0.83-0.5-1.47v-4.46h-1.28v-1.47h1.28v-2.11
				h1.68v2.11h1.57v1.47h-1.57v4.05c0,0.28,0.06,0.5,0.19,0.66s0.31,0.25,0.54,0.25c0.34,0,0.59-0.09,0.75-0.27l0.4,1.26
				C207.28,232.58,206.75,232.75,206.05,232.75z"/>
			<path fill="#FFFFFF" d="M212.32,232.75c-1.19,0-2.15-0.39-2.88-1.18c-0.73-0.78-1.09-1.75-1.09-2.89s0.36-2.1,1.09-2.88
				s1.69-1.17,2.88-1.17c1.21,0,2.17,0.39,2.9,1.17c0.72,0.78,1.09,1.74,1.09,2.88c0,1.15-0.36,2.12-1.09,2.9
				C214.49,232.36,213.53,232.75,212.32,232.75z M212.32,231.26c0.69,0,1.24-0.25,1.64-0.74c0.4-0.5,0.6-1.11,0.6-1.83
				c0-0.71-0.2-1.32-0.6-1.82c-0.4-0.5-0.95-0.74-1.64-0.74c-0.68,0-1.22,0.25-1.62,0.74c-0.4,0.5-0.6,1.1-0.6,1.82
				c0,0.73,0.2,1.34,0.6,1.83S211.64,231.26,212.32,231.26z"/>
			<path fill="#FFFFFF" d="M233.25,232.56h-1.68v-5.04c0-0.93-0.42-1.39-1.26-1.39c-0.35,0-0.69,0.1-1.02,0.3
				c-0.33,0.2-0.59,0.44-0.77,0.72v5.41h-1.68v-5.04c0-0.93-0.43-1.39-1.28-1.39c-0.34,0-0.67,0.1-1,0.3
				c-0.33,0.2-0.58,0.45-0.78,0.74v5.39h-1.68v-7.73h1.68v1.06c0.19-0.29,0.53-0.57,1-0.84c0.47-0.27,0.98-0.41,1.51-0.41
				c1.12,0,1.82,0.47,2.11,1.42c0.25-0.38,0.61-0.72,1.09-1c0.48-0.28,0.99-0.42,1.54-0.42c1.48,0,2.22,0.78,2.22,2.34V232.56z"/>
			<path fill="#FFFFFF" d="M241.83,232.56h-1.68v-0.83c-0.6,0.68-1.43,1.02-2.5,1.02c-0.7,0-1.33-0.23-1.87-0.68
				c-0.54-0.45-0.82-1.08-0.82-1.88c0-0.82,0.27-1.45,0.81-1.87c0.54-0.43,1.17-0.64,1.88-0.64c1.1,0,1.93,0.33,2.5,0.99v-1.15
				c0-0.45-0.17-0.8-0.5-1.06c-0.33-0.26-0.77-0.38-1.31-0.38c-0.86,0-1.63,0.33-2.29,0.98l-0.69-1.17
				c0.88-0.83,1.96-1.25,3.25-1.25c0.95,0,1.72,0.22,2.32,0.67s0.9,1.16,0.9,2.13V232.56z M238.31,231.6c0.84,0,1.46-0.27,1.84-0.8
				v-1.17c-0.38-0.53-1-0.8-1.84-0.8c-0.48,0-0.88,0.13-1.18,0.38c-0.31,0.26-0.46,0.59-0.46,1.01s0.16,0.75,0.46,1
				C237.43,231.47,237.83,231.6,238.31,231.6z"/>
			<path fill="#FFFFFF" d="M251.23,232.56h-2.11l-2.37-3.18l-1.07,1.1v2.08H244v-10.67h1.68v6.67l3.41-3.73h2.08l-3.22,3.5
				L251.23,232.56z"/>
			<path fill="#FFFFFF" d="M255.92,232.75c-1.17,0-2.14-0.38-2.9-1.13c-0.76-0.75-1.14-1.73-1.14-2.94c0-1.13,0.37-2.09,1.11-2.87
				s1.68-1.18,2.81-1.18c1.14,0,2.06,0.39,2.76,1.18c0.7,0.79,1.05,1.8,1.05,3.02v0.4h-5.97c0.06,0.61,0.31,1.11,0.75,1.52
				c0.44,0.41,1.01,0.61,1.71,0.61c0.39,0,0.79-0.08,1.19-0.22c0.4-0.15,0.73-0.36,1-0.62l0.77,1.1
				C258.28,232.37,257.23,232.75,255.92,232.75z M257.97,228.06c-0.02-0.53-0.22-1.01-0.58-1.42c-0.37-0.42-0.9-0.62-1.59-0.62
				c-0.66,0-1.18,0.21-1.55,0.62c-0.37,0.41-0.58,0.89-0.62,1.43H257.97z"/>
			<path fill="#FFFFFF" d="M262.85,232.4c-0.22,0.22-0.49,0.33-0.78,0.33c-0.3,0-0.56-0.11-0.78-0.33
				c-0.22-0.22-0.34-0.48-0.34-0.79c0-0.31,0.11-0.57,0.34-0.79c0.22-0.22,0.49-0.33,0.78-0.33c0.3,0,0.56,0.11,0.78,0.33
				c0.22,0.22,0.34,0.48,0.34,0.79C263.18,231.92,263.07,232.19,262.85,232.4z"/>
		</g>
	</g>
	<g>
		<path fill="#FFFFFF" d="M184.1,96.48c-1.51,0-2.7-0.43-3.58-1.3l1.24-2.18c0.67,0.64,1.37,0.96,2.12,0.96
			c0.63,0,1.13-0.19,1.51-0.58c0.38-0.39,0.57-0.91,0.57-1.56V82.9h2.84v8.96c0,1.52-0.43,2.67-1.28,3.45
			C186.67,96.09,185.53,96.48,184.1,96.48z"/>
		<path fill="#FFFFFF" d="M199.72,96.24h-2.54v-1c-0.69,0.83-1.71,1.24-3.06,1.24c-0.87,0-1.64-0.28-2.33-0.85
			c-0.69-0.57-1.03-1.35-1.03-2.35c0-1.04,0.34-1.82,1.01-2.34c0.67-0.52,1.46-0.78,2.35-0.78c1.37,0,2.39,0.39,3.06,1.18v-1.3
			c0-0.49-0.19-0.89-0.58-1.18s-0.9-0.44-1.54-0.44c-1.05,0-1.99,0.38-2.82,1.14l-0.96-1.7c1.15-1.01,2.55-1.52,4.22-1.52
			c1.24,0,2.25,0.29,3.04,0.86s1.18,1.51,1.18,2.8V96.24z M195.14,94.76c0.95,0,1.63-0.28,2.04-0.84v-1.2
			c-0.41-0.56-1.09-0.84-2.04-0.84c-0.52,0-0.95,0.13-1.3,0.39c-0.35,0.26-0.52,0.62-0.52,1.07c0,0.44,0.17,0.79,0.52,1.04
			C194.19,94.63,194.62,94.76,195.14,94.76z"/>
		<path fill="#FFFFFF" d="M216.78,96.24h-2.56v-6.1c0-1.03-0.48-1.54-1.44-1.54c-0.41,0-0.8,0.11-1.15,0.34
			c-0.35,0.23-0.64,0.49-0.85,0.78v6.52h-2.56v-6.1c0-1.03-0.48-1.54-1.44-1.54c-0.4,0-0.78,0.11-1.14,0.34
			c-0.36,0.23-0.65,0.49-0.86,0.8v6.5h-2.54v-9.66h2.54v1.26c0.24-0.35,0.66-0.68,1.26-1.01c0.6-0.33,1.23-0.49,1.9-0.49
			c1.4,0,2.29,0.59,2.68,1.76c0.31-0.48,0.76-0.89,1.37-1.24c0.61-0.35,1.26-0.52,1.95-0.52c0.91,0,1.61,0.24,2.1,0.73
			c0.49,0.49,0.74,1.22,0.74,2.19V96.24z"/>
		<path fill="#FFFFFF" d="M223.82,96.48c-1.49,0-2.73-0.47-3.7-1.4c-0.97-0.93-1.46-2.16-1.46-3.68c0-1.43,0.47-2.63,1.41-3.6
			c0.94-0.97,2.14-1.46,3.59-1.46c1.44,0,2.61,0.49,3.5,1.47c0.89,0.98,1.34,2.26,1.34,3.85v0.56h-7.18
			c0.08,0.64,0.37,1.17,0.86,1.6c0.49,0.43,1.13,0.64,1.92,0.64c0.43,0,0.89-0.09,1.39-0.26c0.5-0.17,0.9-0.41,1.19-0.7l1.12,1.64
			C226.83,96.03,225.5,96.48,223.82,96.48z M226.04,90.5c-0.04-0.55-0.26-1.04-0.65-1.48c-0.39-0.44-0.97-0.66-1.73-0.66
			c-0.72,0-1.28,0.22-1.68,0.65c-0.4,0.43-0.63,0.93-0.7,1.49H226.04z"/>
		<path fill="#FFFFFF" d="M233.82,96.48c-0.84,0-1.64-0.13-2.41-0.4s-1.4-0.63-1.91-1.1l1.1-1.78c0.37,0.35,0.88,0.65,1.52,0.92
			c0.64,0.27,1.25,0.4,1.82,0.4c0.53,0,0.94-0.09,1.21-0.28s0.41-0.44,0.41-0.76c0-0.24-0.14-0.44-0.43-0.59
			c-0.29-0.15-0.64-0.26-1.06-0.33s-0.88-0.17-1.38-0.3c-0.5-0.13-0.96-0.29-1.38-0.48s-0.77-0.48-1.06-0.89
			c-0.29-0.41-0.43-0.91-0.43-1.51c0-0.85,0.35-1.57,1.06-2.16c0.71-0.59,1.67-0.88,2.9-0.88c1.49,0,2.79,0.44,3.9,1.32l-1.02,1.74
			c-0.31-0.32-0.72-0.59-1.23-0.8c-0.51-0.21-1.06-0.32-1.63-0.32c-0.45,0-0.82,0.09-1.1,0.27c-0.28,0.18-0.42,0.41-0.42,0.69
			c0,0.21,0.14,0.39,0.42,0.53c0.28,0.14,0.63,0.24,1.06,0.31c0.43,0.07,0.89,0.17,1.38,0.31c0.49,0.14,0.95,0.31,1.38,0.5
			s0.78,0.5,1.06,0.93c0.28,0.43,0.42,0.95,0.42,1.56c0,0.91-0.37,1.65-1.11,2.23C236.15,96.19,235.13,96.48,233.82,96.48z"/>
	</g>
</g>
</svg>
